<?xml version="1.0" standalone="no"?>
<!DOCTYPE svg PUBLIC "-//W3C//DTD SVG 1.1//EN" "http://www.w3.org/Graphics/SVG/1.1/DTD/svg11.dtd" >
<svg>
<metadata>
Created by FontForge 20090914 at Thu Feb 23 21:47:00 2012
 By root
Copyright 1997 by MGI Software
</metadata>
<defs>
<font id="AntigoniMed" horiz-adv-x="1024" >
  <font-face 
    font-family="Antigoni Med"
    font-weight="400"
    font-stretch="normal"
    units-per-em="2048"
    panose-1="2 11 7 3 2 2 4 3 2 4"
    ascent="1757"
    descent="-291"
    x-height="1121"
    cap-height="1365"
    bbox="-300 -512 2463 2048"
    underline-thickness="239"
    underline-position="-95"
    unicode-range="U+0020-U+F002"
  />
<missing-glyph 
d="M128 0v2048h768v-2048h-768zM256 128h512v1792h-512v-1792z" />
    <glyph glyph-name=".notdef" 
d="M128 0v2048h768v-2048h-768zM256 128h512v1792h-512v-1792z" />
    <glyph glyph-name=".null" horiz-adv-x="0" 
 />
    <glyph glyph-name="nonmarkingreturn" horiz-adv-x="512" 
 />
    <glyph glyph-name="space" unicode=" " horiz-adv-x="512" 
 />
    <glyph glyph-name="glyph4" horiz-adv-x="512" 
 />
    <glyph glyph-name="glyph5" horiz-adv-x="512" 
 />
    <glyph glyph-name="exclam" unicode="!" horiz-adv-x="496" 
d="M233 206q153 0 153 -118t-158 -118q-156 0 -156 115q0 121 161 121zM327 351h-195l-33 493q-7 105 -7 151q0 34 1 101t1 101q0 12 -1 71q-1 80 35 106q29 21 115 21q76 0 103 -23q29 -26 28 -101l-2 -113q0 -6 1 -75q1 -63 1 -94q0 -28 -9 -145z" />
    <glyph glyph-name="quotedbl" unicode="&#x22;" horiz-adv-x="845" 
d="M328 816h-196l-49 549h295zM712 816h-196l-49 549h295z" />
    <glyph glyph-name="numbersign" unicode="#" horiz-adv-x="1256" 
d="M1182 612l-37 -239h-207l-61 -373h-273l60 373h-172l-60 -373h-271l61 373h-208l37 239h207l27 169h-205l36 239h206l56 345h270l-56 -345h173l56 345h273l-56 -345h204l-37 -239h-204l-27 -169h208zM728 781h-173l-27 -169h173z" />
    <glyph glyph-name="dollar" unicode="$" horiz-adv-x="1174" 
d="M542 1562h120v-166q170 -22 302 -145v-326q-84 95 -132 128q-68 47 -170 61v-324q163 -50 250 -112q136 -97 136 -288q0 -355 -398 -420v-195h-120v195q-211 25 -349 155v301q122 -198 349 -219v338q-142 48 -204 83q-200 113 -200 340q0 197 146 321q101 86 270 107v166
zM542 1114q-134 -26 -134 -134q0 -94 134 -148v282zM650 224q132 33 132 135q0 96 -132 137v-272z" />
    <glyph glyph-name="percent" unicode="%" horiz-adv-x="1741" 
d="M1246 1365l113 -81l-882 -1284l-114 73zM370 1375q314 2 314 -371q0 -206 -107 -313q-80 -80 -220 -80q-302 0 -302 397q0 365 315 367zM368 1206q-148 1 -148 -204q0 -238 147 -238q148 0 148 235q0 206 -147 207zM1367 747q318 2 318 -378q0 -173 -71 -273
q-81 -114 -245 -114q-313 0 -313 400q0 363 311 365zM1369 576q-146 1 -146 -196q0 -244 146 -244q147 0 147 225q0 214 -147 215z" />
    <glyph glyph-name="ampersand" unicode="&#x26;" horiz-adv-x="1347" 
d="M738 719l221 -272q106 139 231 452l27 -379q-47 -108 -130 -229l235 -291h-305l-107 130q-159 -170 -397 -170q-169 0 -287 95q-128 103 -128 268q0 131 87 239q57 70 196 172q-68 85 -88 114q-79 114 -79 228q0 164 145 252q110 67 263 67q192 0 289 -105
q74 -80 74 -186q0 -186 -247 -385zM525 577q-142 -93 -142 -205q0 -80 56 -132t137 -52q108 0 197 87zM593 855q143 117 143 204q0 118 -122 118q-55 0 -90.5 -37.5t-35.5 -92.5q0 -76 105 -192z" />
    <glyph glyph-name="quotesingle" unicode="'" horiz-adv-x="461" 
d="M328 816h-195l-50 549h295z" />
    <glyph glyph-name="parenleft" unicode="(" horiz-adv-x="621" 
d="M304 1423h238q-65 -106 -97 -183q-106 -254 -106 -655q0 -398 101 -649q35 -88 107 -202h-239q-80 108 -123 213q-110 272 -110 639q0 534 229 837z" />
    <glyph glyph-name="parenright" unicode=")" horiz-adv-x="621" 
d="M317 -266h-238q69 117 97 184q106 251 106 654q0 398 -101 649q-35 86 -107 202h239q80 -105 123 -212q110 -275 110 -639q0 -549 -229 -838z" />
    <glyph glyph-name="asterisk" unicode="*" horiz-adv-x="1177" 
d="M501 1365h180l-9 -200l168 80l66 -173l-183 -52l126 -139l-146 -118l-102 162l-102 -173l-153 103l120 149l-196 43l45 180l192 -73z" />
    <glyph glyph-name="plus" unicode="+" horiz-adv-x="1178" 
d="M491 598h-389v197h389v375h197v-375h389v-197h-389v-375h-197v375z" />
    <glyph glyph-name="comma" unicode="," horiz-adv-x="486" 
d="M122 217h249q0 -318 -104 -493h-192q49 123 49 398q0 38 -2 95z" />
    <glyph glyph-name="hyphen" unicode="-" horiz-adv-x="501" 
d="M0 696h501v-217h-501v217z" />
    <glyph glyph-name="hyphen" unicode="&#x2010;" horiz-adv-x="501" 
d="M0 696h501v-217h-501v217z" />
    <glyph glyph-name="period" unicode="." horiz-adv-x="478" 
d="M243 206q153 0 153 -117q0 -119 -158 -119q-156 0 -156 115q0 121 161 121z" />
    <glyph glyph-name="slash" unicode="/" horiz-adv-x="1165" 
d="M796 1427l189 -90l-845 -1605l-185 96z" />
    <glyph glyph-name="zero" unicode="0" horiz-adv-x="1174" 
d="M587 1395q402 3 495 -354q30 -115 30 -299q0 -772 -529 -772q-522 0 -522 745q0 318 103 479q126 199 423 201zM593 1102q-267 2 -267 -420q0 -459 257 -459q260 0 260 477q0 179 -39 268q-58 133 -211 134z" />
    <glyph glyph-name="one" unicode="1" horiz-adv-x="1174" 
d="M889 1365v-1365h-300v1075q-19 -25 -67 -57l-396 -265v260l506 352h257z" />
    <glyph glyph-name="two" unicode="2" horiz-adv-x="1174" 
d="M481 222l555 18v-240h-891v204q594 461 594 697q0 94 -61.5 150t-156.5 56q-161 0 -267 -115q-47 -51 -102 -159h-20q0 239 -19 331q78 106 150 152q126 79 305 79q208 0 339 -107q141 -116 141 -320q0 -229 -199 -445q-123 -133 -368 -301z" />
    <glyph glyph-name="three" unicode="3" horiz-adv-x="1174" 
d="M125 1365h887v-270l-448 -311q80 11 128 11q172 0 270 -96t98 -268q0 -152 -82 -267q-139 -194 -421 -194q-259 0 -443 174q17 47 17 106q0 24 -6 155h16q69 -94 142 -136q110 -63 230 -63q106 0 174 60q72 63 72 167q0 205 -250 205q-104 0 -250 -45v223l389 287h-523
v262z" />
    <glyph glyph-name="four" unicode="4" horiz-adv-x="1174" 
d="M976 1365v-879h142v-240h-142v-246h-276v233h-632v338l444 794h464zM700 468v699l-399 -699h399z" />
    <glyph glyph-name="five" unicode="5" horiz-adv-x="1174" 
d="M171 1365h843v-272h-604v-267q131 39 237 39q193 0 309 -105q120 -110 120 -301q0 -120 -55 -228q-133 -261 -462 -261q-136 0 -229 41q-86 37 -190 135q15 35 15 115q0 48 -7 129l14 5q53 -81 114 -119q108 -67 238 -67q118 0 193 58q83 63 83 178q0 217 -286 217
q-143 0 -333 -57v760z" />
    <glyph glyph-name="six" unicode="6" horiz-adv-x="1174" 
d="M338 655q58 116 126 159q95 61 224 61q185 0 292 -114t107 -300q0 -163 -85 -291q-133 -200 -407 -200q-507 0 -507 712q0 243 54 388q121 325 493 325q238 0 390 -163q-23 -47 -23 -132q0 -25 3 -124h-12q-50 73 -111 107q-93 52 -211 52q-230 0 -301 -195
q-33 -90 -39 -285h7zM609 648q-107 2 -175 -55q-71 -61 -71 -166q0 -120 84 -182q64 -47 152 -47q106 0 169 63t63 169q0 214 -222 218z" />
    <glyph glyph-name="seven" unicode="7" horiz-adv-x="1174" 
d="M117 1365h941v-281l-543 -1084h-295l522 1089l-625 -2v278z" />
    <glyph glyph-name="eight" unicode="8" horiz-adv-x="1174" 
d="M786 702q214 -31 287 -165q38 -70 38 -160q0 -207 -168 -315q-142 -92 -360 -92q-350 0 -473 220q-47 84 -47 183q0 188 150 275q65 38 177 54v10q-114 19 -177 61q-121 81 -121 254q0 197 150 291q123 77 333 77q284 0 417 -129q99 -96 99 -243q0 -173 -133 -256
q-61 -38 -172 -55v-10zM595 1145q-237 2 -237 -169t230 -171q94 0 157 37q76 44 76 132q0 169 -226 171zM591 587q-262 3 -262 -190q0 -191 261 -191q252 0 252 188q0 190 -251 193z" />
    <glyph glyph-name="nine" unicode="9" horiz-adv-x="1174" 
d="M820 668q-28 -77 -69 -118q-87 -86 -244 -86q-202 0 -318 143q-97 119 -97 311q0 326 247 430q112 47 246 47q281 0 401 -188q96 -153 96 -450q0 -422 -156 -629q-119 -158 -371 -158q-259 0 -431 178q22 51 22 125q0 8 -3 125h12q58 -89 125 -132q108 -69 236 -69
q234 0 289 235q21 90 25 236h-10zM577 1132q-106 1 -167 -59.5t-61 -166.5q0 -215 225 -215q103 0 167.5 60t64.5 163t-62.5 160t-166.5 58z" />
    <glyph glyph-name="colon" unicode=":" horiz-adv-x="478" 
d="M243 206q153 0 153 -117q0 -119 -158 -119q-156 0 -156 115q0 121 161 121zM243 1025q153 0 153 -117q0 -119 -158 -119q-156 0 -156 115q0 121 161 121z" />
    <glyph glyph-name="semicolon" unicode=";" horiz-adv-x="486" 
d="M122 217h250q-2 -320 -105 -493h-192q49 123 49 398q0 34 -2 95zM231 1025q153 0 153 -117q0 -119 -158 -119q-156 0 -156 115q0 121 161 121z" />
    <glyph glyph-name="less" unicode="&#x3c;" 
d="M955 1248v-264l-606 -301l606 -302v-261l-887 452v224z" />
    <glyph glyph-name="equal" unicode="=" horiz-adv-x="1176" 
d="M101 772v177h975v-177h-975zM101 444v177h975v-177h-975z" />
    <glyph glyph-name="greater" unicode="&#x3e;" 
d="M68 120v263l606 301l-605 302v262l886 -453v-223z" />
    <glyph glyph-name="question" unicode="?" horiz-adv-x="994" 
d="M419 206q153 0 153 -117q0 -119 -158 -119q-156 0 -156 115q0 121 161 121zM90 910v293q61 72 117 110q121 82 285 82q202 0 323 -122q96 -97 96 -243q0 -166 -138 -286l-166 -144q-84 -73 -84 -194q0 -11 1 -61h-207q-5 73 -5 118q0 97 26 143q15 27 100 112l127 127
q88 88 88 152q0 71 -69 110q-56 32 -133 32q-158 0 -261 -102q-37 -37 -100 -127z" />
    <glyph glyph-name="at" unicode="@" horiz-adv-x="1368" 
d="M1108 272h173q-109 -135 -201 -196q-152 -101 -384 -101q-314 0 -520 193q-210 197 -210 509q0 346 258 553q200 160 476 160q187 0 337 -72q164 -79 251 -231q72 -127 72 -278q0 -307 -252 -459q-122 -74 -211 -74q-106 0 -110 96q-81 -88 -193 -88q-139 0 -221 100
q-77 92 -77 234q0 170 100 294q110 137 282 137q143 0 223 -120l19 95h177l-90 -526q-7 -41 -7 -51q0 -25 26 -25q73 0 148 123q62 102 62 226q0 201 -129 335q-144 150 -393 150q-217 0 -370 -131q-203 -174 -203 -447q0 -162 79 -297q81 -138 223 -209q126 -63 274 -63
q208 0 391 163zM704 846q-93 1 -146 -79q-41 -61 -41 -135q0 -69 40.5 -113.5t108.5 -44.5q101 0 150 86q32 56 32 122q0 71 -36 115q-39 49 -108 49z" />
    <glyph glyph-name="A" unicode="A" horiz-adv-x="1335" 
d="M429 343l-105 -343h-291l420 1365h433l418 -1365h-298l-103 343h-474zM837 602l-173 566l-171 -566h344z" />
    <glyph glyph-name="B" unicode="B" horiz-adv-x="1189" 
d="M111 1365h538q222 0 309 -43q157 -77 157 -286q0 -171 -114 -261q-71 -56 -213 -77q147 -15 213 -52q127 -71 127 -264q0 -302 -270 -365q-73 -17 -219 -17h-528v1365zM390 1112v-317h215q223 0 223 168q0 96 -73 128q-48 21 -145 21h-220zM390 579v-340h214
q115 0 167 29q70 39 70 141q0 111 -83 148q-49 22 -155 22h-213z" />
    <glyph glyph-name="C" unicode="C" horiz-adv-x="1129" 
d="M1064 1218v-341h-11q-128 225 -364 225q-175 0 -266 -127q-80 -111 -80 -292q0 -192 72 -308q88 -140 269 -140q233 0 369 229h11v-298q-81 -79 -138 -114q-134 -82 -302 -82q-140 0 -261 65q-308 166 -308 675q0 309 134 486q150 199 450 199q241 0 425 -177z" />
    <glyph glyph-name="D" unicode="D" horiz-adv-x="1275" 
d="M111 1365h470q148 0 223 -13q416 -72 416 -609q0 -286 -124 -485q-92 -147 -245 -208q-126 -50 -323 -50h-417v1365zM402 1092v-833h130q191 0 276 75q125 110 125 379q0 217 -103 310q-76 69 -238 69h-190z" />
    <glyph glyph-name="E" unicode="E" horiz-adv-x="1106" 
d="M111 1365h892v-273h-613v-281h613v-259h-613v-293h613v-259h-892v1365z" />
    <glyph glyph-name="F" unicode="F" horiz-adv-x="1070" 
d="M111 1365h890v-273h-599v-304h599v-259h-599v-529h-291v1365z" />
    <glyph glyph-name="G" unicode="G" horiz-adv-x="1200" 
d="M1130 689v-464q-6 -5 -18 -21q-59 -79 -114 -122q-141 -112 -356 -112q-241 0 -393 150q-205 203 -205 586q0 368 209 550q160 139 406 139q135 0 233 -40q94 -39 197 -132v-319h-12q-68 90 -139 132q-111 66 -243 66q-187 0 -281 -128q-83 -112 -83 -306q0 -190 70 -310
q87 -149 262 -149q109 0 188 64v416h279z" />
    <glyph glyph-name="H" unicode="H" horiz-adv-x="1289" 
d="M402 844h486v521h291v-1365h-291v556h-486v-556h-291v1365h291v-521z" />
    <glyph glyph-name="I" unicode="I" horiz-adv-x="512" 
d="M111 1365h291v-1365h-291v1365z" />
    <glyph glyph-name="J" unicode="J" horiz-adv-x="882" 
d="M481 1365h291v-815q0 -217 -11 -278q-31 -171 -163 -245q-101 -57 -236 -57q-183 0 -328 112q4 74 4 102q0 55 -4 136q110 -116 242 -116q202 0 204 213l1 123v825z" />
    <glyph glyph-name="K" unicode="K" horiz-adv-x="1220" 
d="M111 1365h296v-595l412 595h357l-502 -679l518 -686h-358l-427 614v-614h-296v1365z" />
    <glyph glyph-name="L" unicode="L" horiz-adv-x="946" 
d="M402 273h502v-273h-793v1365h291v-1092z" />
    <glyph glyph-name="M" unicode="M" horiz-adv-x="1623" 
d="M1513 1365v-1365h-280l3 811q0 29 2 93q3 95 3 131v46q-45 -258 -91 -411l-199 -670h-287l-195 667q-33 114 -88 428v-40q1 -22 3 -89q4 -102 4 -157l4 -809h-281v1365h441l200 -740q34 -126 62 -379q25 250 60 384l193 735h446z" />
    <glyph glyph-name="N" unicode="N" horiz-adv-x="1331" 
d="M1221 1365v-1365h-347l-362 723q-49 98 -142 361q17 -234 18 -391l3 -693h-280v1365h406l308 -639q70 -146 148 -431q-27 282 -28 461l-5 609h281z" />
    <glyph glyph-name="O" unicode="O" horiz-adv-x="1300" 
d="M652 1395q592 4 592 -673q0 -281 -95 -463q-151 -289 -505 -289q-308 0 -460 222q-129 189 -129 511q0 688 597 692zM653 1102q-310 2 -310 -419q0 -448 305 -448q169 0 248 157q61 121 61 308q0 400 -304 402z" />
    <glyph glyph-name="P" unicode="P" horiz-adv-x="1181" 
d="M111 1365h527q116 0 161 -6q84 -11 152 -50q188 -107 188 -375q0 -155 -71 -282q-90 -160 -290 -202q-76 -16 -231 -16h-145v-434h-291v1365zM402 1092v-411h155q134 0 196 35q99 56 99 184q0 109 -76 157q-56 35 -206 35h-168z" />
    <glyph glyph-name="Q" unicode="Q" horiz-adv-x="1301" 
d="M836 0l126 -201h-302l-99 172q-132 22 -204 61q-301 163 -301 666q0 335 129 504q147 193 471 193q588 0 588 -666q0 -599 -408 -729zM652 1102q-309 2 -309 -426q0 -185 60 -299q77 -148 246 -148q168 0 247 155q61 120 61 306q0 410 -305 412z" />
    <glyph glyph-name="R" unicode="R" horiz-adv-x="1188" 
d="M111 1365h525q201 0 297 -45q178 -84 178 -326q0 -145 -70 -244q-89 -126 -330 -151l456 -599h-358l-407 578v-578h-291v1365zM402 1106v-348h182q240 0 240 184q0 103 -67 140q-44 24 -166 24h-189z" />
    <glyph glyph-name="S" unicode="S" horiz-adv-x="1058" 
d="M949 1266v-324q-85 93 -166 130q-106 48 -212 48q-81 0 -138 -34q-69 -41 -69 -116q0 -81 84 -120q17 -8 156 -45q200 -53 282 -130q110 -103 110 -271q0 -125 -63.5 -228t-175.5 -156q-106 -50 -232 -50q-219 0 -409 140v299q92 -97 168 -135q110 -55 227 -55
q85 0 142 35q68 42 68 122q0 81 -79 126q-41 23 -152 51q-201 50 -295 127q-125 102 -125 284q0 206 157 329q131 102 326 102q212 0 396 -129z" />
    <glyph glyph-name="T" unicode="T" horiz-adv-x="1181" 
d="M56 1365h1069v-287h-388v-1078h-291v1078h-390v287z" />
    <glyph glyph-name="U" unicode="U" horiz-adv-x="1268" 
d="M111 1365h291v-781q0 -178 40 -244q57 -94 191 -94q162 0 211 125q23 58 23 220v774h291v-774q0 -225 -21 -296q-96 -325 -503 -325q-198 0 -329 86q-146 95 -181 281q-13 69 -13 234v794z" />
    <glyph glyph-name="V" unicode="V" horiz-adv-x="1243" 
d="M1217 1365l-423 -1365h-351l-417 1365h300l214 -723q33 -112 80 -374q42 236 85 384l208 713h304z" />
    <glyph glyph-name="W" unicode="W" horiz-adv-x="1823" 
d="M1799 1365l-349 -1365h-350l-142 712q-21 107 -54 373q-30 -267 -51 -372l-144 -713h-344l-340 1365h299l149 -646q30 -129 66 -461q37 342 62 462l134 645h342l130 -620q31 -148 66 -516q41 367 77 519l145 617h304z" />
    <glyph glyph-name="X" unicode="X" horiz-adv-x="1272" 
d="M1243 1365l-409 -681l414 -684h-349l-209 390q-18 34 -51 113q-21 -63 -49 -114l-213 -389h-351l415 687l-412 678h350l212 -392q23 -43 53 -123q26 78 56 133l206 382h337z" />
    <glyph glyph-name="Y" unicode="Y" horiz-adv-x="1238" 
d="M1212 1365l-446 -865v-500h-291v494l-450 871h331l177 -377q59 -126 86 -265q30 147 84 264l175 378h334z" />
    <glyph glyph-name="Z" unicode="Z" horiz-adv-x="1054" 
d="M82 1365h903v-323l-565 -783h565v-259h-915v271l595 821h-583v273z" />
    <glyph glyph-name="bracketleft" unicode="[" horiz-adv-x="621" 
d="M135 1423h433v-171h-185v-1345h185v-173h-433v1689z" />
    <glyph glyph-name="backslash" unicode="\" horiz-adv-x="1165" 
d="M368 1427l841 -1599l-185 -96l-845 1605z" />
    <glyph glyph-name="bracketright" unicode="]" horiz-adv-x="621" 
d="M485 -266h-432v171h184v1345h-184v173h432v-1689z" />
    <glyph glyph-name="asciicircum" unicode="^" 
d="M287 685h-278l328 688h349l329 -688h-278l-225 476z" />
    <glyph glyph-name="underscore" unicode="_" 
d="M0 -94h1024v-239h-1024v239z" />
    <glyph glyph-name="grave" unicode="`" 
d="M177 1454h284l188 -218h-233z" />
    <glyph glyph-name="a" unicode="a" horiz-adv-x="1107" 
d="M1004 0h-256v167q-98 -201 -340 -201q-146 0 -239 81q-99 85 -99 228q0 209 213 296q95 39 284 77q167 34 167 133q0 64 -69 100q-56 29 -126 29q-249 0 -420 -203v272q90 78 172 114q139 61 293 61q239 0 348 -134q72 -89 72 -306v-714zM739 537q-42 -39 -208 -86
q-181 -51 -181 -156q0 -60 41 -94.5t102 -34.5q157 0 216 149q28 71 30 222z" />
    <glyph glyph-name="b" unicode="b" horiz-adv-x="1217" 
d="M106 0v1423h307v-485q50 102 106 146q89 70 225 70q215 0 322 -176q88 -145 88 -376q0 -294 -139 -479q-118 -157 -315 -157q-220 0 -318 213v-179h-276zM631 865q-130 1 -193 -100q-53 -84 -53 -221q0 -135 51 -217q63 -100 190 -100q234 0 234 330q0 306 -229 308z" />
    <glyph glyph-name="c" unicode="c" horiz-adv-x="1038" 
d="M956 993v-306h-11q-52 81 -112 119q-94 59 -202 59q-274 0 -274 -322q0 -150 66 -236q74 -97 220 -97q198 0 304 196h11q-4 -91 -4 -147q0 -34 4 -118q-135 -175 -381 -175q-231 0 -358 139q-156 171 -156 473q0 259 127 411q136 165 390 165q228 0 376 -161z" />
    <glyph glyph-name="d" unicode="d" horiz-adv-x="1226" 
d="M1121 1423v-1423h-278v193q-55 -111 -118 -157q-95 -70 -222 -70q-185 0 -305 137q-71 81 -108 231q-27 109 -27 226q0 198 76 366q56 124 178 185q86 43 186 43q208 0 311 -191v460h307zM603 865q-128 1 -192 -99q-54 -84 -54 -219q0 -320 235 -320q129 0 197 106
q58 90 58 226q0 304 -244 306z" />
    <glyph glyph-name="e" unicode="e" horiz-adv-x="1144" 
d="M1072 469h-724q17 -285 311 -285q228 0 354 184h10v-227q-74 -79 -144 -114q-121 -61 -279 -61q-238 0 -375 137q-162 162 -162 462q0 271 128 424q138 166 404 166q247 0 372 -157q115 -143 115 -396q0 -62 -10 -133zM869 681q-15 86 -47 132q-68 97 -217 97
q-245 0 -257 -229h521z" />
    <glyph glyph-name="f" unicode="f" horiz-adv-x="911" 
d="M469 885h396v-235h-355v-650h-307v650h-168v235h168q-15 118 -15 174q0 171 114 268q108 91 282 91q154 0 297 -74v-238q-104 75 -219 75q-123 0 -166 -74q-27 -46 -27 -154v-68z" />
    <glyph glyph-name="g" unicode="g" horiz-adv-x="1221" 
d="M1117 1121v-839q0 -131 -6 -185q-41 -370 -529 -370q-252 0 -421 117v234q168 -135 387 -135q184 0 252 111q42 69 42 209v47q-44 -103 -99 -146q-91 -71 -237 -71q-200 0 -322 139t-122 397q0 366 239 483q88 43 201 43q252 0 327 -214v180h288zM596 879
q-121 2 -184 -82q-56 -75 -56 -200q0 -122 53 -197q60 -86 177 -86q123 0 187 90q56 78 56 206q0 264 -233 269z" />
    <glyph glyph-name="h" unicode="h" horiz-adv-x="1225" 
d="M104 0v1423h307v-512q50 112 112 164q97 82 244 82q219 0 307 -162q38 -69 45 -158q2 -24 2 -167v-670h-307v610q0 129 -23 176q-40 82 -155 82q-121 0 -181 -98q-44 -72 -44 -221v-549h-307z" />
    <glyph glyph-name="i" unicode="i" horiz-adv-x="515" 
d="M265 1439q169 0 169 -122q0 -113 -176 -113q-180 0 -180 114q0 121 187 121zM104 0v1120q79 -18 146 -18q66 0 161 18v-1120h-307z" />
    <glyph glyph-name="j" unicode="j" horiz-adv-x="610" 
d="M361 1439q171 0 171 -122q0 -113 -178 -113q-181 0 -181 114q0 121 188 121zM506 1120v-947q0 -142 -1 -155q-7 -87 -37 -149q-67 -135 -283 -135q-101 0 -225 40v211q59 -38 123 -38q83 0 104 66q12 38 12 155v952q80 -24 153 -24t154 24z" />
    <glyph glyph-name="k" unicode="k" horiz-adv-x="1178" 
d="M104 0v1423h313v-822l356 509h367l-445 -547l468 -563h-385l-367 512v-512h-307z" />
    <glyph glyph-name="l" unicode="l" horiz-adv-x="522" 
d="M107 0v1423h307v-1423h-307z" />
    <glyph glyph-name="m" unicode="m" horiz-adv-x="1835" 
d="M104 0v1121h287v-246q33 105 75 161q90 119 262 119q184 0 267 -133q35 -56 55 -167q37 116 84 176q97 124 268 124q134 0 218.5 -71.5t103.5 -203.5q7 -49 7 -193v-687h-307v585q0 163 -18 210q-30 80 -136 80q-116 0 -169 -102q-28 -54 -28 -194v-579h-307v579
q0 179 -24 230q-32 69 -131 69q-122 0 -173 -111q-27 -58 -27 -194v-573h-307z" />
    <glyph glyph-name="n" unicode="n" horiz-adv-x="1227" 
d="M104 0v1121h289v-266q44 127 98 187q101 113 282 113q138 0 229 -71q96 -74 116 -208q6 -40 6 -201v-675h-307v575q0 167 -26 215q-41 75 -148 75q-140 0 -202 -126q-30 -61 -30 -201v-538h-307z" />
    <glyph glyph-name="o" unicode="o" horiz-adv-x="1191" 
d="M597 1154q531 2 531 -573q0 -194 -70 -345q-125 -270 -472 -270q-247 0 -373 137q-151 164 -151 475q0 573 535 576zM601 865q-258 2 -258 -316q0 -339 253 -339q252 0 252 352q0 301 -247 303z" />
    <glyph glyph-name="p" unicode="p" horiz-adv-x="1227" 
d="M104 -266v1387h283v-198q58 104 105 146q96 86 255 86q223 0 330 -176q88 -144 88 -382q0 -249 -88 -411q-119 -220 -349 -220q-130 0 -213 68q-42 34 -104 126v-426h-307zM631 866q-128 2 -193 -91q-56 -80 -56 -213q0 -190 87 -274q64 -61 156 -61q127 0 192 106
q54 88 54 223q0 307 -240 310z" />
    <glyph glyph-name="q" unicode="q" horiz-adv-x="1223" 
d="M1119 1121v-1387h-307v424q-46 -71 -77 -102q-90 -90 -240 -90q-186 0 -294 133q-138 169 -138 479q0 424 265 542q79 35 170 35q244 0 338 -236v202h283zM599 866q-242 2 -242 -318q0 -321 233 -321q127 0 195 101q58 87 58 220q0 316 -244 318z" />
    <glyph glyph-name="r" unicode="r" horiz-adv-x="866" 
d="M100 0v1121h292v-269q59 303 282 303q98 0 177 -67l-14 -323h-10q-75 77 -165 77q-120 0 -182 -92q-76 -112 -76 -451q0 -94 3 -299h-307z" />
    <glyph glyph-name="s" unicode="s" horiz-adv-x="939" 
d="M841 1043v-284q-67 63 -125 90q-94 44 -195 44q-68 0 -118 -25q-63 -31 -63 -93q0 -68 170 -113q218 -58 259 -88q112 -81 112 -236q0 -179 -127 -279q-116 -93 -299 -93q-198 0 -358 113v259q69 -64 127 -93q97 -48 201 -48q184 0 184 118q0 55 -45 83q-32 20 -205 54
q-299 59 -299 331q0 182 131 281q118 90 305 90q191 0 345 -111z" />
    <glyph glyph-name="t" unicode="t" horiz-adv-x="933" 
d="M500 1110h383v-273h-388l-1 -374q0 -117 20 -168q33 -85 129 -85q116 0 212 113v-227q-128 -130 -311 -130q-258 0 -316 204q-27 94 -27 314q0 178 8 347h-183v195q242 51 322 379h158z" />
    <glyph glyph-name="u" unicode="u" horiz-adv-x="1208" 
d="M1105 1121v-1121h-294v223q-44 -110 -102 -164q-100 -93 -252 -93q-306 0 -345 325q-8 66 -8 269v561h307v-554q0 -185 19 -237q34 -92 155 -92q137 0 185 119q28 70 28 253v511h307z" />
    <glyph glyph-name="v" unicode="v" horiz-adv-x="1144" 
d="M1116 1121l-360 -1121h-354l-373 1121h318l164 -547q35 -116 68 -341q37 230 69 341l157 547h311z" />
    <glyph glyph-name="w" unicode="w" horiz-adv-x="1702" 
d="M1673 1121l-331 -1121h-340l-98 462q-25 118 -50 376q-26 -240 -55 -376l-97 -462h-335l-338 1121h316l111 -441q35 -138 72 -415q28 290 55 415l95 441h359l95 -466q18 -90 50 -374q40 265 70 382l117 458h304z" />
    <glyph glyph-name="x" unicode="x" horiz-adv-x="1151" 
d="M1118 1121l-349 -555l344 -566h-355l-139 273l-44 96q-26 -65 -48 -104l-149 -265h-349l356 566l-341 555h351l130 -258q24 -48 54 -126q13 33 57 126l133 258h349z" />
    <glyph glyph-name="y" unicode="y" horiz-adv-x="1145" 
d="M1117 1121l-488 -1390h-300l122 342l-422 1048h316l156 -432q48 -132 96 -395q40 253 84 395l133 432h303z" />
    <glyph glyph-name="z" unicode="z" horiz-adv-x="982" 
d="M75 1121h841v-229l-486 -641h486v-251h-849v236l462 612h-454v273z" />
    <glyph glyph-name="braceleft" unicode="{" horiz-adv-x="757" 
d="M367 578q72 -45 99 -103q23 -51 23 -142v-239q0 -138 39 -163q30 -19 124 -19q13 0 41 1v-175q-120 -4 -114 -4h-26q-159 0 -230 59q-79 65 -79 221v300q0 74 -20 110q-25 44 -92 58v193q112 22 112 168v300q0 156 79 221q71 59 230 59q28 0 140 -5v-188q-27 1 -39 1
q-100 0 -129 -20q-36 -25 -36 -149v-238q0 -92 -23 -142q-26 -58 -99 -104z" />
    <glyph glyph-name="bar" unicode="|" 
d="M379 1365h266v-1706h-266v1706z" />
    <glyph glyph-name="braceright" unicode="}" horiz-adv-x="757" 
d="M390 578q-73 46 -99 104q-23 50 -23 142v238q0 139 -39 163q-31 19 -124 19h-41v174q112 5 140 5q159 0 230 -59q79 -65 79 -221v-300q0 -146 112 -168v-193q-67 -14 -92 -58q-20 -36 -20 -110v-300q0 -156 -79 -221q-71 -59 -230 -59q-24 0 -140 4v188h39q144 0 159 61
q6 24 6 107v239q0 91 23 142q27 58 99 103z" />
    <glyph glyph-name="asciitilde" unicode="~" horiz-adv-x="1365" 
d="M330 1147l-146 96l16 35q33 75 52 107q32 53 77 89q68 54 165 54q68 0 213 -53q132 -48 177 -48q84 0 146 104l151 -87q-39 -81 -62 -118q-40 -62 -90 -98q-82 -58 -174 -58q-54 0 -210 56q-128 46 -165 46q-51 0 -92 -35q-22 -19 -58 -90z" />
    <glyph glyph-name="exclamdown" unicode="&#xa1;" horiz-adv-x="496" 
d="M268 1154q156 1 156 -115q0 -121 -161 -121q-153 0 -153 117t158 119zM169 774h194l33 -493q7 -111 7 -152l-1 -99q-1 -93 0 -174q1 -80 -35 -106q-29 -21 -114 -21q-76 0 -104 24.5t-27 99.5l1 113q0 30 -1 84q-1 60 -1 85q0 16 10 146z" />
    <glyph glyph-name="cent" unicode="&#xa2;" horiz-adv-x="1174" 
d="M716 1472v-174q172 -31 275 -150v-299h-14q-74 134 -261 155v-678q159 22 261 189h14v-243q-56 -81 -119 -122q-54 -36 -156 -67v-202h-134v202q-289 34 -400 266q-81 170 -81 371q0 525 481 578v174h134zM582 1004q-79 -21 -120 -60q-85 -81 -85 -261q0 -192 96 -293
q36 -38 109 -64v678z" />
    <glyph glyph-name="sterling" unicode="&#xa3;" horiz-adv-x="1174" 
d="M503 750h423v-132h-392q6 -45 6 -78q0 -102 -58 -239q32 3 47 3q79 0 236 -63q22 -9 54 -9q96 0 195 103h13v-234q-147 -131 -314 -131q-58 0 -168 38t-167 38q-61 0 -112 -24q-22 -10 -99 -61v212q57 57 127 87q34 86 34 157q0 92 -55 201h-129v132h75q-49 123 -49 220
q0 192 137 313q130 115 325 115q243 0 395 -182q0 -39 1.5 -115.5t1.5 -115.5v-42q0 -23 -12 -23q-14 0 -24 32q-26 82 -125 139q-91 54 -182 54q-110 0 -176 -76q-41 -47 -41 -126q0 -72 33 -193z" />
    <glyph glyph-name="currency" unicode="&#xa4;" horiz-adv-x="1365" 
d="M42 281l210 211q-89 131 -89 281q0 147 91 282l-214 213l145 145l213 -213q138 89 286 89q147 0 281 -87l211 209l144 -144l-209 -209q93 -146 93 -285q0 -144 -89 -280l211 -211l-143 -144l-210 210q-138 -92 -291 -92q-141 0 -287 91l-210 -209zM687 1052
q-118 2 -199.5 -79.5t-81.5 -200.5q0 -117 80.5 -198t197.5 -81q118 0 198 81t80 199q0 115 -80 196t-195 83z" />
    <glyph glyph-name="yen" unicode="&#xa5;" horiz-adv-x="1174" 
d="M683 303v-303h-291v303h-289v132h289v59l-24 55h-265v132h207l-300 684h331l195 -642l190 642h334l-298 -684h205v-132h-263l-21 -49v-65h284v-132h-284z" />
    <glyph glyph-name="brokenbar" unicode="&#xa6;" 
d="M379 1365h266v-710h-266v710zM379 314h266v-655h-266v655z" />
    <glyph glyph-name="section" unicode="&#xa7;" horiz-adv-x="1178" 
d="M985 1266v-303q-80 86 -149 132q-153 102 -281 102q-51 0 -89 -26q-43 -29 -43 -78q0 -76 247 -144q364 -101 364 -352q0 -98 -43 -161q-26 -38 -121 -123q70 -58 97 -99q36 -55 36 -132q0 -188 -176 -290q-112 -65 -258 -65q-119 0 -223 41q-78 31 -200 110v309
q229 -230 416 -230q61 0 112 32q59 36 59 94q0 41 -55 71q-42 23 -243 87q-142 46 -207 105q-85 78 -85 209q0 150 163 281q-145 105 -145 242q0 170 152 275q113 78 262 78q218 0 410 -165zM533 748q-138 -67 -138 -171q0 -84 166 -138l86 -28q139 63 139 175q0 62 -66 99
q-27 15 -120 43z" />
    <glyph glyph-name="dieresis" unicode="&#xa8;" 
d="M695 1456q124 0 124 -110q0 -112 -126 -112q-127 0 -127 112q0 110 129 110zM333 1456q124 0 124 -110q0 -112 -126 -112q-127 0 -127 112q0 110 129 110z" />
    <glyph glyph-name="copyright" unicode="&#xa9;" horiz-adv-x="1556" 
d="M790 1396q196 0 363.5 -106t256.5 -283q78 -154 78 -325q0 -201 -103 -371.5t-282 -262.5q-153 -79 -323 -79q-203 0 -372 103.5t-261 284.5q-79 154 -79 325q0 205 104.5 375.5t286.5 262.5q150 76 331 76zM788 1268q-244 3 -411 -169t-167 -417q0 -241 164.5 -413
t404.5 -172t405 173q162 171 162 412q0 164 -82 304.5t-226 217.5q-116 63 -250 64zM1047 1001v-211h-18q-78 133 -225 133q-105 0 -161 -70q-50 -63 -50 -171q0 -256 208 -256q141 0 228 135h18v-186q-130 -119 -284 -119q-148 0 -242 91q-123 118 -123 352q0 191 90 297
q97 114 285 114q158 0 274 -109z" />
    <glyph glyph-name="ordfeminine" unicode="&#xaa;" horiz-adv-x="524" 
d="M476 819h-122v22q0 8 2 24t2 24q0 5 -1 15q-63 -101 -168 -101q-66 0 -111 39.5t-45 104.5q0 86 79 129q44 24 156 47q79 16 79 62q0 61 -92 61q-118 0 -199 -93v129q95 83 220 83q113 0 166 -64q34 -41 34 -144v-338zM349 1073q-22 -20 -97 -41q-84 -24 -84 -74
q0 -61 67 -61q73 0 100 71q13 34 14 105zM510 692v-96h-511v96h511z" />
    <glyph glyph-name="guillemotleft" unicode="&#xab;" horiz-adv-x="868" 
d="M246 926h208l-140 -339l140 -340h-208l-163 340zM575 926h210l-144 -339l144 -340h-210l-164 340z" />
    <glyph glyph-name="logicalnot" unicode="&#xac;" 
d="M689 0v307h-621v239h887v-546h-266z" />
    <glyph glyph-name="registered" unicode="&#xae;" horiz-adv-x="1556" 
d="M790 1396q196 0 363.5 -106t256.5 -283q78 -154 78 -325q0 -201 -103 -371.5t-282 -262.5q-153 -79 -323 -79q-203 0 -372 103.5t-261 284.5q-79 154 -79 325q0 205 104.5 375.5t286.5 262.5q150 76 331 76zM788 1268q-244 3 -411 -169t-167 -417q0 -241 164.5 -413
t404.5 -172t405 173q162 171 162 412q0 164 -82 304.5t-226 217.5q-116 63 -250 64zM435 1092h337q161 0 225 -47q81 -60 81 -179q0 -213 -245 -238l288 -355h-243l-246 327v-327h-197v819zM632 925v-191h108q144 0 144 101q0 59 -43 78q-27 12 -97 12h-112z" />
    <glyph glyph-name="overscore" unicode="&#xaf;" 
d="M0 1829h1024v-239h-1024v239z" />
    <glyph glyph-name="degree" unicode="&#xb0;" horiz-adv-x="1176" 
d="M593 1399q137 0 235.5 -94t98.5 -230q0 -138 -99.5 -231t-238.5 -93t-237 91q-101 94 -101 232q0 140 102 234q99 91 240 91zM589 1252q-75 1 -126.5 -50.5t-51.5 -126.5q0 -74 51 -125.5t125 -51.5t125 51.5t51 125.5q0 73 -50.5 124.5t-123.5 52.5z" />
    <glyph glyph-name="plusminus" unicode="&#xb1;" horiz-adv-x="1176" 
d="M490 598h-389v197h389v375h197v-375h389v-197h-389v-334h-197v334zM101 -14v197h975v-197h-975z" />
    <glyph glyph-name="twosuperior" unicode="&#xb2;" horiz-adv-x="789" 
d="M351 692l338 10v-156h-585v131q381 273 381 408q0 54 -41 86q-37 29 -93 29q-144 0 -231 -162h-24v74q0 72 -13 129q51 65 101 94q82 48 198 48q132 0 218 -62q97 -69 97 -197q0 -132 -117 -255q-75 -79 -229 -177z" />
    <glyph glyph-name="threesuperior" unicode="&#xb3;" horiz-adv-x="788" 
d="M93 1365h580v-170l-264 -169q34 3 57 3q106 0 170 -57q67 -60 67 -165q0 -150 -130 -228q-83 -50 -197 -50q-167 0 -292 108q13 28 13 64q0 19 -4 98h21q91 -117 234 -117q62 0 104 32q46 35 46 95q0 114 -152 114q-69 0 -167 -29v144l233 159h-319v168z" />
    <glyph glyph-name="acute" unicode="&#xb4;" 
d="M847 1454l-239 -218h-233l188 218h284z" />
    <glyph glyph-name="paragraph" unicode="&#xb6;" horiz-adv-x="1365" 
d="M445 -188v846q-17 -1 -26 -1q-143 0 -245 79q-118 92 -118 268q0 243 212 323q100 38 260 38h688v-205h-150v-1348h-225v1348h-171v-1348h-225z" />
    <glyph glyph-name="middot" unicode="&#xb7;" horiz-adv-x="478" 
d="M243 699q153 0 153 -117q0 -119 -158 -119q-156 0 -156 115q0 121 161 121z" />
    <glyph glyph-name="cedilla" unicode="&#xb8;" 
d="M418 -95h212l-134 -246h-160z" />
    <glyph glyph-name="onesuperior" unicode="&#xb9;" horiz-adv-x="787" 
d="M593 1365v-819h-205v624q-6 -6 -32 -22l-264 -163v169l328 211h173z" />
    <glyph glyph-name="ordmasculine" unicode="&#xba;" horiz-adv-x="563" 
d="M283 1365q251 1 251 -271q0 -290 -257 -290q-249 0 -249 289q0 271 255 272zM283 1230q-123 1 -123 -151q0 -162 121 -162t121 168q0 144 -119 145zM537 692v-96h-511v96h511z" />
    <glyph glyph-name="guillemotright" unicode="&#xbb;" horiz-adv-x="868" 
d="M622 248h-208l140 339l-140 341h208l163 -341zM293 248h-210l144 339l-144 341h210l164 -341z" />
    <glyph glyph-name="onequarter" unicode="&#xbc;" horiz-adv-x="1987" 
d="M593 1365v-819h-205v624q-6 -6 -32 -22l-264 -163v169l328 211h173zM1370 1392l115 -83l-884 -1336l-114 83zM1839 819v-518h92v-156h-92v-145h-190v138h-405v208l287 473h308zM1649 294v378l-237 -378h237z" />
    <glyph glyph-name="onehalf" unicode="&#xbd;" horiz-adv-x="1988" 
d="M593 1365v-819h-205v624q-6 -6 -32 -22l-264 -163v169l328 211h173zM1370 1392l115 -83l-884 -1336l-114 83zM1550 145l337 11v-156h-584v131q381 271 381 407q0 116 -134 116q-145 0 -231 -163h-24v75q0 73 -13 129q51 65 101 94q82 48 198 48q132 0 217 -62
q97 -70 97 -197q0 -132 -116 -255q-75 -79 -229 -178z" />
    <glyph glyph-name="threequarters" unicode="&#xbe;" horiz-adv-x="1988" 
d="M93 1365h580v-170l-264 -169q34 3 57 3q106 0 170 -57q67 -60 67 -165q0 -150 -130 -228q-83 -50 -197 -50q-169 0 -292 108q13 28 13 64q0 19 -4 98h21q92 -117 234 -117q62 0 104 32q46 35 46 95q0 114 -152 114q-68 0 -167 -29v144l233 159h-319v168zM1371 1392
l115 -83l-884 -1336l-114 83zM1841 819v-518h91v-156h-91v-145h-190v138h-406v208l288 473h308zM1651 294v378l-237 -378h237z" />
    <glyph glyph-name="questiondown" unicode="&#xbf;" horiz-adv-x="992" 
d="M578 1154q156 1 156 -115q0 -121 -161 -121q-153 0 -153 117t158 119zM902 213v-292q-62 -74 -116 -111q-120 -82 -285 -82q-202 0 -322 122q-96 97 -96 243q0 167 136 286l165 144q85 74 85 194q0 9 -1 61h207q5 -76 5 -117q0 -96 -26 -143q-16 -29 -100 -113l-127 -127
q-87 -87 -87 -151q0 -72 68 -110q56 -32 133 -32q158 0 261 102q36 36 100 126z" />
    <glyph glyph-name="Agrave" unicode="&#xc0;" horiz-adv-x="1335" 
d="M429 343l-105 -343h-291l420 1365h433l418 -1365h-298l-103 343h-474zM837 602l-173 566l-171 -566h344zM351 1673h284l188 -205h-233z" />
    <glyph glyph-name="Aacute" unicode="&#xc1;" horiz-adv-x="1335" 
d="M429 343l-105 -343h-291l420 1365h433l418 -1365h-298l-103 343h-474zM837 602l-173 566l-171 -566h344zM995 1673l-239 -205h-233l188 205h284z" />
    <glyph glyph-name="Acircumflex" unicode="&#xc2;" horiz-adv-x="1335" 
d="M429 343l-105 -343h-291l420 1365h433l418 -1365h-298l-103 343h-474zM837 602l-173 566l-171 -566h344zM518 1673h301l161 -205h-209l-102 103l-103 -103h-209z" />
    <glyph glyph-name="Atilde" unicode="&#xc3;" horiz-adv-x="1335" 
d="M429 343l-105 -343h-291l420 1365h433l418 -1365h-298l-103 343h-474zM837 602l-173 566l-171 -566h344zM795 1663h149q-14 -88 -34 -121q-43 -72 -135 -72q-44 0 -147 36q-26 9 -43 9q-33 0 -44 -39h-149q12 85 38 124q46 69 134 69q53 0 142 -35q26 -10 47 -10
q33 0 42 39z" />
    <glyph glyph-name="Adieresis" unicode="&#xc4;" horiz-adv-x="1335" 
d="M429 343l-105 -343h-291l420 1365h433l418 -1365h-298l-103 343h-474zM837 602l-173 566l-171 -566h344zM858 1683q124 0 124 -110q0 -112 -126 -112q-54 0 -89 29q-38 31 -38 84q0 109 129 109zM482 1683q124 0 124 -110q0 -112 -126 -112q-54 0 -89 29q-38 31 -38 84
q0 109 129 109z" />
    <glyph glyph-name="Aring" unicode="&#xc5;" horiz-adv-x="1335" 
d="M429 343l-105 -343h-291l420 1365h433l418 -1365h-298l-103 343h-474zM837 602l-173 566l-171 -566h344zM668 1830q82 1 136.5 -55.5t54.5 -138.5q0 -78 -56 -133.5t-135 -55.5q-80 0 -135.5 55.5t-55.5 136.5t55 135.5t136 55.5zM668 1721q-34 0 -58 -24t-24 -58
t24 -58.5t58 -24.5t58 24t24 58q0 35 -23.5 59t-58.5 24z" />
    <glyph glyph-name="AE" unicode="&#xc6;" horiz-adv-x="1974" 
d="M777 1365h1094v-273h-632v-274h632v-259h-632v-300h632v-259h-911v373h-432l-205 -373h-301zM960 632v537l-299 -537h299z" />
    <glyph glyph-name="Ccedilla" unicode="&#xc7;" horiz-adv-x="1129" 
d="M1064 1218v-341h-11q-128 225 -364 225q-175 0 -266 -127q-80 -111 -80 -292q0 -192 72 -308q88 -140 269 -140q233 0 369 229h11v-298q-81 -79 -138 -114q-134 -82 -302 -82q-140 0 -261 65q-308 166 -308 675q0 309 134 486q150 199 450 199q241 0 425 -177zM522 -95
h212l-134 -246h-160z" />
    <glyph glyph-name="Egrave" unicode="&#xc8;" horiz-adv-x="1106" 
d="M111 1365h892v-273h-613v-281h613v-259h-613v-293h613v-259h-892v1365zM278 1673h284l188 -205h-233z" />
    <glyph glyph-name="Eacute" unicode="&#xc9;" horiz-adv-x="1106" 
d="M111 1365h892v-273h-613v-281h613v-259h-613v-293h613v-259h-892v1365zM875 1673l-239 -205h-233l188 205h284z" />
    <glyph glyph-name="Ecircumflex" unicode="&#xca;" horiz-adv-x="1106" 
d="M111 1365h892v-273h-613v-281h613v-259h-613v-293h613v-259h-892v1365zM406 1673h301l161 -205h-209l-102 103l-103 -103h-209z" />
    <glyph glyph-name="Edieresis" unicode="&#xcb;" horiz-adv-x="1106" 
d="M111 1365h892v-273h-613v-281h613v-259h-613v-293h613v-259h-892v1365zM747 1683q124 0 124 -110q0 -112 -126 -112q-54 0 -89 29q-38 31 -38 84q0 109 129 109zM371 1683q124 0 124 -110q0 -112 -126 -112q-54 0 -89 29q-38 31 -38 84q0 109 129 109z" />
    <glyph glyph-name="Igrave" unicode="&#xcc;" horiz-adv-x="512" 
d="M111 1365h291v-1365h-291v1365zM-68 1673h284l188 -205h-233z" />
    <glyph glyph-name="Iacute" unicode="&#xcd;" horiz-adv-x="512" 
d="M111 1365h291v-1365h-291v1365zM605 1673l-239 -205h-233l188 205h284z" />
    <glyph glyph-name="Icircumflex" unicode="&#xce;" horiz-adv-x="512" 
d="M111 1365h291v-1365h-291v1365zM106 1673h301l145 -205h-207l-89 103l-89 -103h-206z" />
    <glyph glyph-name="Idieresis" unicode="&#xcf;" horiz-adv-x="512" 
d="M111 1365h291v-1365h-291v1365zM426 1683q124 0 124 -110q0 -112 -126 -112q-54 0 -89 29q-38 31 -38 84q0 109 129 109zM92 1683q124 0 124 -110q0 -112 -126 -112q-54 0 -89 29q-38 31 -38 84q0 109 129 109z" />
    <glyph glyph-name="Eth" unicode="&#xd0;" horiz-adv-x="1275" 
d="M110 1365h468q150 0 223 -12q220 -36 327 -217q92 -155 92 -393q0 -287 -124 -487q-159 -256 -570 -256h-416v608h-102v191h102v566zM401 1092v-293h264v-191h-264v-349h129q190 0 276 74q127 109 127 384q0 214 -105 308q-75 67 -239 67h-188z" />
    <glyph glyph-name="Ntilde" unicode="&#xd1;" horiz-adv-x="1331" 
d="M1221 1365v-1365h-347l-362 723q-49 98 -142 361q17 -234 18 -391l3 -693h-280v1365h406l308 -639q70 -146 148 -431q-27 282 -28 461l-5 609h281zM793 1663h149q-14 -88 -34 -121q-43 -72 -135 -72q-44 0 -147 36q-26 9 -43 9q-33 0 -44 -39h-149q12 85 38 124
q46 69 134 69q53 0 142 -35q26 -10 47 -10q33 0 42 39z" />
    <glyph glyph-name="Ograve" unicode="&#xd2;" horiz-adv-x="1300" 
d="M652 1395q592 4 592 -673q0 -281 -95 -463q-151 -289 -505 -289q-308 0 -460 222q-129 189 -129 511q0 688 597 692zM653 1102q-310 2 -310 -419q0 -448 305 -448q169 0 248 157q61 121 61 308q0 400 -304 402zM346 1673h284l188 -205h-233z" />
    <glyph glyph-name="Oacute" unicode="&#xd3;" horiz-adv-x="1300" 
d="M652 1395q592 4 592 -673q0 -281 -95 -463q-151 -289 -505 -289q-308 0 -460 222q-129 189 -129 511q0 688 597 692zM653 1102q-310 2 -310 -419q0 -448 305 -448q169 0 248 157q61 121 61 308q0 400 -304 402zM968 1673l-239 -205h-233l188 205h284z" />
    <glyph glyph-name="Ocircumflex" unicode="&#xd4;" horiz-adv-x="1300" 
d="M652 1395q592 4 592 -673q0 -281 -95 -463q-151 -289 -505 -289q-308 0 -460 222q-129 189 -129 511q0 688 597 692zM653 1102q-310 2 -310 -419q0 -448 305 -448q169 0 248 157q61 121 61 308q0 400 -304 402zM499 1673h301l161 -205h-209l-102 103l-103 -103h-209z" />
    <glyph glyph-name="Otilde" unicode="&#xd5;" horiz-adv-x="1300" 
d="M652 1395q592 4 592 -673q0 -281 -95 -463q-151 -289 -505 -289q-308 0 -460 222q-129 189 -129 511q0 688 597 692zM653 1102q-310 2 -310 -419q0 -448 305 -448q169 0 248 157q61 121 61 308q0 400 -304 402zM785 1663h149q-14 -88 -34 -121q-43 -72 -135 -72
q-44 0 -147 36q-26 9 -43 9q-33 0 -44 -39h-149q12 85 38 124q46 69 134 69q53 0 142 -35q26 -10 47 -10q33 0 42 39z" />
    <glyph glyph-name="Odieresis" unicode="&#xd6;" horiz-adv-x="1300" 
d="M652 1395q592 4 592 -673q0 -281 -95 -463q-151 -289 -505 -289q-308 0 -460 222q-129 189 -129 511q0 688 597 692zM653 1102q-310 2 -310 -419q0 -448 305 -448q169 0 248 157q61 121 61 308q0 400 -304 402zM840 1683q124 0 124 -110q0 -112 -126 -112q-54 0 -89 29
q-38 31 -38 84q0 109 129 109zM464 1683q124 0 124 -110q0 -112 -126 -112q-54 0 -89 29q-38 31 -38 84q0 109 129 109z" />
    <glyph glyph-name="multiply" unicode="&#xd7;" horiz-adv-x="1177" 
d="M588 557l-275 -275l-139 139l275 275l-275 276l139 139l275 -276l275 276l139 -139l-275 -276l275 -275l-139 -139z" />
    <glyph glyph-name="Oslash" unicode="&#xd8;" horiz-adv-x="1300" 
d="M14 66l145 168q-104 194 -104 481q0 680 592 680q253 0 404 -118l127 148l120 -110l-141 -166q86 -166 86 -423q0 -562 -352 -709q-112 -47 -247 -47q-226 0 -383 134l-126 -146zM454 310q85 -75 193 -75q170 0 249 158q60 120 60 309q0 114 -23 192zM842 1041
q-81 61 -189 61q-311 0 -311 -412q0 -117 27 -223z" />
    <glyph glyph-name="Ugrave" unicode="&#xd9;" horiz-adv-x="1268" 
d="M111 1365h291v-781q0 -178 40 -244q57 -94 191 -94q162 0 211 125q23 58 23 220v774h291v-774q0 -225 -21 -296q-96 -325 -503 -325q-198 0 -329 86q-146 95 -181 281q-13 69 -13 234v794zM324 1673h284l188 -205h-233z" />
    <glyph glyph-name="Uacute" unicode="&#xda;" horiz-adv-x="1268" 
d="M111 1365h291v-781q0 -178 40 -244q57 -94 191 -94q162 0 211 125q23 58 23 220v774h291v-774q0 -225 -21 -296q-96 -325 -503 -325q-198 0 -329 86q-146 95 -181 281q-13 69 -13 234v794zM959 1673l-239 -205h-233l188 205h284z" />
    <glyph glyph-name="Ucircumflex" unicode="&#xdb;" horiz-adv-x="1268" 
d="M111 1365h291v-781q0 -178 40 -244q57 -94 191 -94q162 0 211 125q23 58 23 220v774h291v-774q0 -225 -21 -296q-96 -325 -503 -325q-198 0 -329 86q-146 95 -181 281q-13 69 -13 234v794zM484 1673h301l161 -205h-209l-102 103l-103 -103h-209z" />
    <glyph glyph-name="Udieresis" unicode="&#xdc;" horiz-adv-x="1268" 
d="M111 1365h291v-781q0 -178 40 -244q57 -94 191 -94q162 0 211 125q23 58 23 220v774h291v-774q0 -225 -21 -296q-96 -325 -503 -325q-198 0 -329 86q-146 95 -181 281q-13 69 -13 234v794zM825 1683q124 0 124 -110q0 -112 -126 -112q-54 0 -89 29q-38 31 -38 84
q0 109 129 109zM449 1683q124 0 124 -110q0 -112 -126 -112q-54 0 -89 29q-38 31 -38 84q0 109 129 109z" />
    <glyph glyph-name="Yacute" unicode="&#xdd;" horiz-adv-x="1238" 
d="M1212 1365l-446 -865v-500h-291v494l-450 871h331l177 -377q59 -126 86 -265q30 147 84 264l175 378h334zM950 1673l-239 -205h-233l188 205h284z" />
    <glyph glyph-name="Thorn" unicode="&#xde;" horiz-adv-x="1181" 
d="M111 1365h291v-191h236q115 0 161 -6q84 -11 152 -50q188 -108 188 -375q0 -155 -71 -282q-90 -160 -290 -202q-76 -16 -231 -16h-145v-243h-291v1365zM402 901v-411h155q134 0 196 35q99 56 99 184q0 109 -76 157q-56 35 -206 35h-168z" />
    <glyph glyph-name="germandbls" unicode="&#xdf;" horiz-adv-x="1271" 
d="M111 0v721q0 220 35 336q101 334 491 334q189 0 316 -82q149 -96 149 -275q0 -255 -306 -322q107 -9 173 -33q205 -75 205 -294q0 -124 -84 -226q-137 -167 -363 -167q-124 0 -224 58v220q98 -63 193 -63q86 0 142 51.5t56 137.5q0 105 -82 157q-70 45 -180 45
q-19 0 -49 -1v217q105 2 153 19q116 41 116 161q0 82 -59 129q-54 43 -138 43q-211 0 -234 -229q-3 -30 -3 -205v-732h-307z" />
    <glyph glyph-name="agrave" unicode="&#xe0;" horiz-adv-x="1107" 
d="M1004 0h-256v167q-98 -201 -340 -201q-146 0 -239 81q-99 85 -99 228q0 209 213 296q95 39 284 77q167 34 167 133q0 64 -69 100q-56 29 -126 29q-249 0 -420 -203v272q90 78 172 114q139 61 293 61q239 0 348 -134q72 -89 72 -306v-714zM739 537q-42 -39 -208 -86
q-181 -51 -181 -156q0 -60 41 -94.5t102 -34.5q157 0 216 149q28 71 30 222zM261 1454h284l188 -218h-233z" />
    <glyph glyph-name="aacute" unicode="&#xe1;" horiz-adv-x="1107" 
d="M1004 0h-256v167q-98 -201 -340 -201q-146 0 -239 81q-99 85 -99 228q0 209 213 296q95 39 284 77q167 34 167 133q0 64 -69 100q-56 29 -126 29q-249 0 -420 -203v272q90 78 172 114q139 61 293 61q239 0 348 -134q72 -89 72 -306v-714zM739 537q-42 -39 -208 -86
q-181 -51 -181 -156q0 -60 41 -94.5t102 -34.5q157 0 216 149q28 71 30 222zM883 1454l-239 -218h-233l188 218h284z" />
    <glyph glyph-name="acircumflex" unicode="&#xe2;" horiz-adv-x="1107" 
d="M1004 0h-256v167q-98 -201 -340 -201q-146 0 -239 81q-99 85 -99 228q0 209 213 296q95 39 284 77q167 34 167 133q0 64 -69 100q-56 29 -126 29q-249 0 -420 -203v272q90 78 172 114q139 61 293 61q239 0 348 -134q72 -89 72 -306v-714zM739 537q-42 -39 -208 -86
q-181 -51 -181 -156q0 -60 41 -94.5t102 -34.5q157 0 216 149q28 71 30 222zM421 1454h301l161 -218h-209l-102 116l-103 -116h-209z" />
    <glyph glyph-name="atilde" unicode="&#xe3;" horiz-adv-x="1107" 
d="M1004 0h-256v167q-98 -201 -340 -201q-146 0 -239 81q-99 85 -99 228q0 209 213 296q95 39 284 77q167 34 167 133q0 64 -69 100q-56 29 -126 29q-249 0 -420 -203v272q90 78 172 114q139 61 293 61q239 0 348 -134q72 -89 72 -306v-714zM739 537q-42 -39 -208 -86
q-181 -51 -181 -156q0 -60 41 -94.5t102 -34.5q157 0 216 149q28 71 30 222zM702 1435h149q-14 -88 -34 -121q-44 -72 -135 -72q-44 0 -147 36q-26 9 -43 9q-33 0 -44 -39h-149q12 85 38 124q46 69 134 69q53 0 142 -35q26 -10 47 -10q33 0 42 39z" />
    <glyph glyph-name="adieresis" unicode="&#xe4;" horiz-adv-x="1107" 
d="M1004 0h-256v167q-98 -201 -340 -201q-146 0 -239 81q-99 85 -99 228q0 209 213 296q95 39 284 77q167 34 167 133q0 64 -69 100q-56 29 -126 29q-249 0 -420 -203v272q90 78 172 114q139 61 293 61q239 0 348 -134q72 -89 72 -306v-714zM739 537q-42 -39 -208 -86
q-181 -51 -181 -156q0 -60 41 -94.5t102 -34.5q157 0 216 149q28 71 30 222zM753 1456q124 0 124 -110q0 -112 -126 -112q-127 0 -127 112q0 110 129 110zM391 1456q124 0 124 -110q0 -112 -126 -112q-127 0 -127 112q0 110 129 110z" />
    <glyph glyph-name="aring" unicode="&#xe5;" horiz-adv-x="1107" 
d="M1004 0h-256v167q-98 -201 -340 -201q-146 0 -239 81q-99 85 -99 228q0 209 213 296q95 39 284 77q167 34 167 133q0 64 -69 100q-56 29 -126 29q-249 0 -420 -203v272q90 78 172 114q139 61 293 61q239 0 348 -134q72 -89 72 -306v-714zM739 537q-42 -39 -208 -86
q-181 -51 -181 -156q0 -60 41 -94.5t102 -34.5q157 0 216 149q28 71 30 222zM580 1608q82 1 136.5 -55t54.5 -138q0 -79 -56 -134t-135 -55q-81 0 -136 55t-55 136t55 135.5t136 55.5zM580 1499q-34 0 -58 -24t-24 -58t24 -58t58 -24t58 23.5t24 57.5q0 35 -23.5 59
t-58.5 24z" />
    <glyph glyph-name="ae" unicode="&#xe6;" horiz-adv-x="1782" 
d="M1714 469h-718q18 -274 307 -274q211 0 357 168h7v-223q-85 -86 -162 -121q-116 -53 -244 -53q-193 0 -325 103q-65 50 -115 156q-64 -166 -223 -227q-84 -32 -173 -32q-154 0 -251 79q-104 86 -104 237q0 160 122 247q88 63 271 99q172 34 206 50q65 31 65 92
q0 67 -74 100q-56 25 -133 25q-230 0 -406 -189v271q80 80 151 117q120 62 270 62q165 0 265 -70q46 -33 85 -110q62 94 125 129q90 50 222 50q175 0 294 -84q185 -131 185 -484q0 -47 -4 -118zM1513 692q-11 82 -48 129q-70 89 -208 89q-146 0 -216 -90q-33 -42 -48 -128
h520zM744 533q-69 -38 -206 -75q-188 -51 -188 -158q0 -62 44 -96q41 -32 104 -32q166 0 221 167q19 58 25 194z" />
    <glyph glyph-name="ccedilla" unicode="&#xe7;" horiz-adv-x="1038" 
d="M956 993v-306h-11q-52 81 -112 119q-94 59 -202 59q-274 0 -274 -322q0 -150 66 -236q74 -97 220 -97q198 0 304 196h11q-4 -91 -4 -147q0 -34 4 -118q-135 -175 -381 -175q-231 0 -358 139q-156 171 -156 473q0 259 127 411q136 165 390 165q228 0 376 -161zM459 -95
h212l-134 -246h-160z" />
    <glyph glyph-name="egrave" unicode="&#xe8;" horiz-adv-x="1144" 
d="M1072 469h-724q17 -285 311 -285q228 0 354 184h10v-227q-74 -79 -144 -114q-121 -61 -279 -61q-238 0 -375 137q-162 162 -162 462q0 271 128 424q138 166 404 166q247 0 372 -157q115 -143 115 -396q0 -62 -10 -133zM869 681q-15 86 -47 132q-68 97 -217 97
q-245 0 -257 -229h521zM287 1454h284l188 -218h-233z" />
    <glyph glyph-name="eacute" unicode="&#xe9;" horiz-adv-x="1144" 
d="M1072 469h-724q17 -285 311 -285q228 0 354 184h10v-227q-74 -79 -144 -114q-121 -61 -279 -61q-238 0 -375 137q-162 162 -162 462q0 271 128 424q138 166 404 166q247 0 372 -157q115 -143 115 -396q0 -62 -10 -133zM869 681q-15 86 -47 132q-68 97 -217 97
q-245 0 -257 -229h521zM917 1454l-239 -218h-233l188 218h284z" />
    <glyph glyph-name="ecircumflex" unicode="&#xea;" horiz-adv-x="1144" 
d="M1072 469h-724q17 -285 311 -285q228 0 354 184h10v-227q-74 -79 -144 -114q-121 -61 -279 -61q-238 0 -375 137q-162 162 -162 462q0 271 128 424q138 166 404 166q247 0 372 -157q115 -143 115 -396q0 -62 -10 -133zM869 681q-15 86 -47 132q-68 97 -217 97
q-245 0 -257 -229h521zM442 1454h301l161 -218h-209l-102 116l-103 -116h-209z" />
    <glyph glyph-name="edieresis" unicode="&#xeb;" horiz-adv-x="1144" 
d="M1072 469h-724q17 -285 311 -285q228 0 354 184h10v-227q-74 -79 -144 -114q-121 -61 -279 -61q-238 0 -375 137q-162 162 -162 462q0 271 128 424q138 166 404 166q247 0 372 -157q115 -143 115 -396q0 -62 -10 -133zM869 681q-15 86 -47 132q-68 97 -217 97
q-245 0 -257 -229h521zM771 1456q124 0 124 -110q0 -112 -126 -112q-127 0 -127 112q0 110 129 110zM409 1456q124 0 124 -110q0 -112 -126 -112q-127 0 -127 112q0 110 129 110z" />
    <glyph glyph-name="igrave" unicode="&#xec;" horiz-adv-x="514" 
d="M104 0v1120q79 -18 146 -18q66 0 161 18v-1120h-307zM-65 1454h284l188 -218h-233z" />
    <glyph glyph-name="iacute" unicode="&#xed;" horiz-adv-x="514" 
d="M104 0v1120q79 -18 146 -18q66 0 161 18v-1120h-307zM602 1454l-239 -218h-233l188 218h284z" />
    <glyph glyph-name="icircumflex" unicode="&#xee;" horiz-adv-x="515" 
d="M104 0v1120q79 -18 146 -18q66 0 161 18v-1120h-307zM112 1454h293l149 -218h-207l-89 116l-89 -116h-206z" />
    <glyph glyph-name="idieresis" unicode="&#xef;" horiz-adv-x="514" 
d="M104 0v1120q79 -18 146 -18q66 0 161 18v-1120h-307zM424 1456q124 0 124 -110q0 -112 -126 -112q-127 0 -127 112q0 110 129 110zM97 1456q124 0 124 -110q0 -112 -126 -112q-127 0 -127 112q0 110 129 110z" />
    <glyph glyph-name="eth" unicode="&#xf0;" horiz-adv-x="1192" 
d="M256 1294l75 136q175 -24 304 -79l208 106l68 -111l-139 -70q118 -92 215 -250q142 -231 142 -521q0 -257 -138 -398t-394 -141q-257 0 -395.5 141.5t-138.5 398.5q0 232 118 376q127 154 355 154q70 0 136 -21q-49 99 -122 152l-205 -98l-55 106l133 68q-87 36 -167 51z
M595 768q-116 1 -185 -75q-67 -72 -67 -190q0 -126 62 -206q69 -87 191 -87q110 0 175 70q78 83 78 219q0 121 -67 194.5t-187 74.5z" />
    <glyph glyph-name="ntilde" unicode="&#xf1;" horiz-adv-x="1227" 
d="M104 0v1121h289v-266q44 127 98 187q101 113 282 113q138 0 229 -71q96 -74 116 -208q6 -40 6 -201v-675h-307v575q0 167 -26 215q-41 75 -148 75q-140 0 -202 -126q-30 -61 -30 -201v-538h-307zM738 1435h149q-14 -88 -34 -121q-44 -72 -135 -72q-44 0 -147 36
q-26 9 -43 9q-33 0 -44 -39h-149q12 85 38 124q46 69 134 69q53 0 142 -35q26 -10 47 -10q33 0 42 39z" />
    <glyph glyph-name="ograve" unicode="&#xf2;" horiz-adv-x="1191" 
d="M597 1154q531 2 531 -573q0 -194 -70 -345q-125 -270 -472 -270q-247 0 -373 137q-151 164 -151 475q0 573 535 576zM601 865q-258 2 -258 -316q0 -339 253 -339q252 0 252 352q0 301 -247 303zM282 1454h284l188 -218h-233z" />
    <glyph glyph-name="oacute" unicode="&#xf3;" horiz-adv-x="1191" 
d="M597 1154q531 2 531 -573q0 -194 -70 -345q-125 -270 -472 -270q-247 0 -373 137q-151 164 -151 475q0 573 535 576zM601 865q-258 2 -258 -316q0 -339 253 -339q252 0 252 352q0 301 -247 303zM922 1454l-239 -218h-233l188 218h284z" />
    <glyph glyph-name="ocircumflex" unicode="&#xf4;" horiz-adv-x="1191" 
d="M597 1154q531 2 531 -573q0 -194 -70 -345q-125 -270 -472 -270q-247 0 -373 137q-151 164 -151 475q0 573 535 576zM601 865q-258 2 -258 -316q0 -339 253 -339q252 0 252 352q0 301 -247 303zM445 1454h301l161 -218h-209l-102 116l-103 -116h-209z" />
    <glyph glyph-name="otilde" unicode="&#xf5;" horiz-adv-x="1191" 
d="M597 1154q531 2 531 -573q0 -194 -70 -345q-125 -270 -472 -270q-247 0 -373 137q-151 164 -151 475q0 573 535 576zM601 865q-258 2 -258 -316q0 -339 253 -339q252 0 252 352q0 301 -247 303zM731 1435h149q-14 -88 -34 -121q-44 -72 -135 -72q-44 0 -147 36
q-26 9 -43 9q-33 0 -44 -39h-149q12 85 38 124q46 69 134 69q53 0 142 -35q26 -10 47 -10q33 0 42 39z" />
    <glyph glyph-name="odieresis" unicode="&#xf6;" horiz-adv-x="1191" 
d="M597 1154q531 2 531 -573q0 -194 -70 -345q-125 -270 -472 -270q-247 0 -373 137q-151 164 -151 475q0 573 535 576zM601 865q-258 2 -258 -316q0 -339 253 -339q252 0 252 352q0 301 -247 303zM778 1456q124 0 124 -110q0 -112 -126 -112q-127 0 -127 112q0 110 129 110
zM416 1456q124 0 124 -110q0 -112 -126 -112q-127 0 -127 112q0 110 129 110z" />
    <glyph glyph-name="divide" unicode="&#xf7;" horiz-adv-x="1176" 
d="M101 605v183h975v-183h-975zM592 495q153 0 153 -117q0 -119 -158 -119q-156 0 -156 115q0 121 161 121zM592 1133q153 0 153 -117q0 -119 -158 -119q-156 0 -156 115q0 121 161 121z" />
    <glyph glyph-name="oslash" unicode="&#xf8;" horiz-adv-x="1191" 
d="M20 48l129 142q-87 161 -87 394q0 569 530 569q211 0 349 -94l120 129l114 -111l-127 -140q81 -151 81 -353q0 -209 -79 -365q-128 -253 -462 -253q-203 0 -338 101l-116 -131zM439 262q70 -52 158 -52q251 0 251 360q0 67 -19 137zM732 836q-64 39 -140 39
q-250 0 -250 -325q0 -69 17 -144z" />
    <glyph glyph-name="ugrave" unicode="&#xf9;" horiz-adv-x="1208" 
d="M1105 1121v-1121h-294v223q-44 -110 -102 -164q-100 -93 -252 -93q-306 0 -345 325q-8 66 -8 269v561h307v-554q0 -185 19 -237q34 -92 155 -92q137 0 185 119q28 70 28 253v511h307zM286 1454h284l188 -218h-233z" />
    <glyph glyph-name="uacute" unicode="&#xfa;" horiz-adv-x="1208" 
d="M1105 1121v-1121h-294v223q-44 -110 -102 -164q-100 -93 -252 -93q-306 0 -345 325q-8 66 -8 269v561h307v-554q0 -185 19 -237q34 -92 155 -92q137 0 185 119q28 70 28 253v511h307zM931 1454l-239 -218h-233l188 218h284z" />
    <glyph glyph-name="ucircumflex" unicode="&#xfb;" horiz-adv-x="1208" 
d="M1105 1121v-1121h-294v223q-44 -110 -102 -164q-100 -93 -252 -93q-306 0 -345 325q-8 66 -8 269v561h307v-554q0 -185 19 -237q34 -92 155 -92q137 0 185 119q28 70 28 253v511h307zM454 1454h301l161 -218h-209l-102 116l-103 -116h-209z" />
    <glyph glyph-name="udieresis" unicode="&#xfc;" horiz-adv-x="1208" 
d="M1105 1121v-1121h-294v223q-44 -110 -102 -164q-100 -93 -252 -93q-306 0 -345 325q-8 66 -8 269v561h307v-554q0 -185 19 -237q34 -92 155 -92q137 0 185 119q28 70 28 253v511h307zM787 1456q124 0 124 -110q0 -112 -126 -112q-127 0 -127 112q0 110 129 110zM425 1456
q124 0 124 -110q0 -112 -126 -112q-127 0 -127 112q0 110 129 110z" />
    <glyph glyph-name="yacute" unicode="&#xfd;" horiz-adv-x="1145" 
d="M1117 1121l-488 -1390h-300l122 342l-422 1048h316l156 -432q48 -132 96 -395q40 253 84 395l133 432h303zM904 1454l-239 -218h-233l188 218h284z" />
    <glyph glyph-name="thorn" unicode="&#xfe;" horiz-adv-x="1227" 
d="M104 -266v1689h284v-514q40 109 103 161q102 85 257 85q223 0 330 -177q87 -144 87 -381q0 -249 -88 -411q-119 -220 -350 -220q-221 0 -316 207v-439h-307zM631 866q-128 2 -192 -90q-56 -79 -56 -212q0 -337 242 -337q127 0 192 106q54 88 54 223q0 307 -240 310z" />
    <glyph glyph-name="ydieresis" unicode="&#xff;" horiz-adv-x="1145" 
d="M1117 1121l-488 -1390h-300l122 342l-422 1048h316l156 -432q48 -132 96 -395q40 253 84 395l133 432h303zM756 1456q124 0 124 -110q0 -112 -126 -112q-127 0 -127 112q0 110 129 110zM394 1456q124 0 124 -110q0 -112 -126 -112q-127 0 -127 112q0 110 129 110z" />
    <glyph glyph-name="Amacron" unicode="&#x100;" horiz-adv-x="1335" 
d="M429 343l-105 -343h-291l420 1365h433l418 -1365h-298l-103 343h-474zM837 602l-173 566l-171 -566h344zM947 1638v-150h-558v150h558z" />
    <glyph glyph-name="amacron" unicode="&#x101;" horiz-adv-x="1107" 
d="M1004 0h-256v167q-98 -201 -340 -201q-146 0 -239 81q-99 85 -99 228q0 209 213 296q95 39 284 77q167 34 167 133q0 64 -69 100q-56 29 -126 29q-249 0 -420 -203v272q90 78 172 114q139 61 293 61q239 0 348 -134q72 -89 72 -306v-714zM739 537q-42 -39 -208 -86
q-181 -51 -181 -156q0 -60 41 -94.5t102 -34.5q157 0 216 149q28 71 30 222zM850 1420v-150h-558v150h558z" />
    <glyph glyph-name="Abreve" unicode="&#x102;" horiz-adv-x="1335" 
d="M429 343l-105 -343h-291l420 1365h433l418 -1365h-298l-103 343h-474zM837 602l-173 566l-171 -566h344zM944 1679q-13 -76 -42 -119q-65 -97 -233 -97q-123 0 -187 47q-69 51 -89 169h161q25 -74 114 -74t114 74h162z" />
    <glyph glyph-name="abreve" unicode="&#x103;" horiz-adv-x="1107" 
d="M1004 0h-256v167q-98 -201 -340 -201q-146 0 -239 81q-99 85 -99 228q0 209 213 296q95 39 284 77q167 34 167 133q0 64 -69 100q-56 29 -126 29q-249 0 -420 -203v272q90 78 172 114q139 61 293 61q239 0 348 -134q72 -89 72 -306v-714zM739 537q-42 -39 -208 -86
q-181 -51 -181 -156q0 -60 41 -94.5t102 -34.5q157 0 216 149q28 71 30 222zM848 1461q-13 -81 -42 -127q-65 -103 -233 -103q-126 0 -190 53q-67 54 -86 177h161q25 -88 113 -88q89 0 115 88h162z" />
    <glyph glyph-name="Aogonek" unicode="&#x104;" horiz-adv-x="1335" 
d="M1304 0q-95 -65 -95 -131q0 -69 70 -69q23 0 62 11v-97q-69 -28 -134 -28q-161 0 -161 132q0 116 137 182h-176l-104 343h-473l-106 -343h-291l420 1365h433zM837 602l-172 566l-171 -566h343z" />
    <glyph glyph-name="aogonek" unicode="&#x105;" horiz-adv-x="1107" 
d="M883 0h-135v167q-98 -201 -340 -201q-146 0 -239 81q-99 85 -99 228q0 209 214 296q96 39 283 77q167 34 167 133q0 64 -69 100q-56 29 -126 29q-249 0 -420 -203v272q90 78 172 114q139 61 293 61q239 0 348 -134q72 -89 72 -306v-714q-95 -63 -95 -128q0 -68 70 -68
q21 0 62 11v-96q-70 -27 -134 -27q-161 0 -161 129q0 114 137 179zM739 537q-47 -42 -208 -87q-181 -50 -181 -155q0 -60 41 -94.5t102 -34.5q158 0 216 149q28 72 30 222z" />
    <glyph glyph-name="Cacute" unicode="&#x106;" horiz-adv-x="1129" 
d="M1064 1218v-341h-11q-128 225 -364 225q-175 0 -266 -127q-80 -111 -80 -292q0 -192 72 -308q88 -140 269 -140q233 0 369 229h11v-298q-81 -79 -138 -114q-134 -82 -302 -82q-140 0 -261 65q-308 166 -308 675q0 309 134 486q150 199 450 199q241 0 425 -177zM943 1673
l-239 -205h-233l188 205h284z" />
    <glyph glyph-name="cacute" unicode="&#x107;" horiz-adv-x="1038" 
d="M956 993v-306h-11q-52 81 -112 119q-94 59 -202 59q-274 0 -274 -322q0 -150 66 -236q74 -97 220 -97q198 0 304 196h11q-4 -91 -4 -147q0 -34 4 -118q-135 -175 -381 -175q-231 0 -358 139q-156 171 -156 473q0 259 127 411q136 165 390 165q228 0 376 -161zM888 1454
l-239 -218h-233l188 218h284z" />
    <glyph glyph-name="Ccaron" unicode="&#x10c;" horiz-adv-x="1129" 
d="M1064 1218v-341h-11q-128 225 -364 225q-175 0 -266 -127q-80 -111 -80 -292q0 -192 72 -308q88 -140 269 -140q233 0 369 229h11v-298q-81 -79 -138 -114q-134 -82 -302 -82q-140 0 -261 65q-308 166 -308 675q0 309 134 486q150 199 450 199q241 0 425 -177zM785 1468
h-301l-161 205h209l103 -103l102 103h209z" />
    <glyph glyph-name="ccaron" unicode="&#x10d;" horiz-adv-x="1038" 
d="M956 993v-306h-11q-52 81 -112 119q-94 59 -202 59q-274 0 -274 -322q0 -150 66 -236q74 -97 220 -97q198 0 304 196h11q-4 -91 -4 -147q0 -34 4 -118q-135 -175 -381 -175q-231 0 -358 139q-156 171 -156 473q0 259 127 411q136 165 390 165q228 0 376 -161zM729 1236
h-301l-161 218h209l103 -116l102 116h209z" />
    <glyph glyph-name="Dcaron" unicode="&#x10e;" horiz-adv-x="1275" 
d="M111 1365h470q148 0 223 -13q416 -72 416 -609q0 -286 -124 -485q-92 -147 -245 -208q-126 -50 -323 -50h-417v1365zM402 1092v-833h130q191 0 276 75q125 110 125 379q0 217 -103 310q-76 69 -238 69h-190zM752 1468h-301l-161 205h209l103 -103l102 103h209z" />
    <glyph glyph-name="dcaron" unicode="&#x10f;" horiz-adv-x="1497" 
d="M1121 1423v-1423h-278v193q-55 -111 -118 -157q-95 -70 -222 -70q-185 0 -305 137q-71 81 -108 231q-27 109 -27 226q0 198 76 366q56 124 178 185q86 43 186 43q208 0 311 -191v460h307zM603 865q-128 1 -192 -99q-54 -84 -54 -219q0 -320 235 -320q129 0 197 106
q58 90 58 226q0 304 -244 306zM1285 1423h212l-134 -314h-160z" />
    <glyph glyph-name="Dslash" unicode="&#x110;" horiz-adv-x="1275" 
d="M110 1365h468q150 0 223 -12q220 -36 327 -217q92 -155 92 -393q0 -287 -124 -487q-159 -256 -570 -256h-416v608h-102v191h102v566zM401 1092v-293h264v-191h-264v-349h129q190 0 276 74q127 109 127 384q0 214 -105 308q-75 67 -239 67h-188z" />
    <glyph glyph-name="dcroat" unicode="&#x111;" horiz-adv-x="1226" 
d="M1121 1423v-96h100v-150h-100v-1177h-278v193q-55 -111 -118 -157q-95 -70 -222 -70q-185 0 -304 137q-71 82 -109 223q-27 101 -27 214q0 186 76 345q109 228 364 228q208 0 311 -191v255h-212v150h212v96h307zM603 865q-246 2 -246 -325q0 -313 234 -313q130 0 198 106
q58 90 58 227q0 303 -244 305z" />
    <glyph glyph-name="Emacron" unicode="&#x112;" horiz-adv-x="1106" 
d="M111 1365h892v-273h-613v-281h613v-259h-613v-293h613v-259h-892v1365zM836 1638v-150h-558v150h558z" />
    <glyph glyph-name="emacron" unicode="&#x113;" horiz-adv-x="1144" 
d="M1072 469h-724q17 -285 311 -285q228 0 354 184h10v-227q-74 -79 -144 -114q-121 -61 -279 -61q-238 0 -375 137q-162 162 -162 462q0 271 128 424q138 166 404 166q247 0 372 -157q115 -143 115 -396q0 -62 -10 -133zM869 681q-15 86 -47 132q-68 97 -217 97
q-245 0 -257 -229h521zM869 1420v-150h-558v150h558z" />
    <glyph glyph-name="Eogonek" unicode="&#x118;" horiz-adv-x="1106" 
d="M1003 0q-95 -65 -95 -131q0 -69 70 -69q23 0 61 11v-97q-67 -28 -133 -28q-161 0 -161 132q0 116 136 182h-770v1365h892v-273h-613v-281h613v-259h-613v-293h613v-259z" />
    <glyph glyph-name="eogonek" unicode="&#x119;" horiz-adv-x="1144" 
d="M923 -185v-96q-70 -27 -134 -27q-161 0 -161 130q0 93 107 157q-67 -13 -136 -13q-237 0 -374 137q-162 161 -162 462q0 271 128 424q138 166 404 166q247 0 372 -157q115 -143 115 -396q0 -62 -10 -133h-724q17 -285 311 -285q229 0 354 184h10v-227q-51 -53 -113 -100
q-119 -90 -119 -169q0 -68 70 -68q21 0 62 11zM869 681q-15 86 -47 132q-68 97 -217 97q-245 0 -257 -229h521z" />
    <glyph glyph-name="Ecaron" unicode="&#x11a;" horiz-adv-x="1106" 
d="M111 1365h892v-273h-613v-281h613v-259h-613v-293h613v-259h-892v1365zM707 1468h-301l-161 205h209l103 -103l102 103h209z" />
    <glyph glyph-name="ecaron" unicode="&#x11b;" horiz-adv-x="1144" 
d="M1072 469h-724q17 -285 311 -285q228 0 354 184h10v-227q-74 -79 -144 -114q-121 -61 -279 -61q-238 0 -375 137q-162 162 -162 462q0 271 128 424q138 166 404 166q247 0 372 -157q115 -143 115 -396q0 -62 -10 -133zM869 681q-15 86 -47 132q-68 97 -217 97
q-245 0 -257 -229h521zM743 1236h-301l-161 218h209l103 -116l102 116h209z" />
    <glyph glyph-name="Gbreve" unicode="&#x11e;" horiz-adv-x="1200" 
d="M1130 689v-464q-6 -5 -18 -21q-59 -79 -114 -122q-141 -112 -356 -112q-241 0 -393 150q-205 203 -205 586q0 368 209 550q160 139 406 139q135 0 233 -40q94 -39 197 -132v-319h-12q-68 90 -139 132q-111 66 -243 66q-187 0 -281 -128q-83 -112 -83 -306q0 -190 70 -310
q87 -149 262 -149q109 0 188 64v416h279zM925 1679q-13 -76 -42 -119q-65 -97 -233 -97q-123 0 -187 47q-69 51 -89 169h161q25 -74 114 -74t114 74h162z" />
    <glyph glyph-name="gbreve" unicode="&#x11f;" horiz-adv-x="1221" 
d="M1117 1121v-839q0 -131 -6 -185q-41 -370 -529 -370q-252 0 -421 117v234q168 -135 387 -135q184 0 252 111q42 69 42 209v47q-44 -103 -99 -146q-91 -71 -237 -71q-200 0 -322 139t-122 397q0 366 239 483q88 43 201 43q252 0 327 -214v180h288zM596 879
q-121 2 -184 -82q-56 -75 -56 -200q0 -122 53 -197q60 -86 177 -86q123 0 187 90q56 78 56 206q0 264 -233 269zM920 1461q-13 -81 -42 -127q-65 -103 -233 -103q-126 0 -190 53q-67 54 -86 177h161q25 -88 113 -88q89 0 115 88h162z" />
    <glyph glyph-name="Imacron" unicode="&#x12a;" horiz-adv-x="512" 
d="M111 1365h291v-1365h-291v1365zM488 1638v-150h-463v150h463z" />
    <glyph glyph-name="imacron" unicode="&#x12b;" horiz-adv-x="514" 
d="M104 0v1120q79 -18 146 -18q66 0 161 18v-1120h-307zM489 1427v-150h-463v150h463z" />
    <glyph glyph-name="Iogonek" unicode="&#x12e;" horiz-adv-x="512" 
d="M402 0q-95 -65 -95 -131q0 -69 70 -69q23 0 62 11v-97q-68 -28 -134 -28q-161 0 -161 132q0 116 137 182h-170v1365h291v-1365z" />
    <glyph glyph-name="iogonek" unicode="&#x12f;" horiz-adv-x="515" 
d="M411 0q-95 -63 -95 -128q0 -68 70 -68q22 0 62 12v-96q-69 -28 -134 -28q-161 0 -161 130q0 114 136 178h-185v1120q79 -18 146 -18q66 0 161 18v-1120zM265 1439q169 0 169 -122q0 -113 -176 -113q-180 0 -180 114q0 121 187 121z" />
    <glyph glyph-name="Idotaccent" unicode="&#x130;" horiz-adv-x="512" 
d="M111 1365h291v-1365h-291v1365zM259 1689q127 0 127 -113q0 -115 -129 -115q-55 0 -91 30q-39 32 -39 86q0 112 132 112z" />
    <glyph glyph-name="dotlessi" unicode="&#x131;" horiz-adv-x="514" 
d="M104 0v1120q79 -18 146 -18q66 0 161 18v-1120h-307z" />
    <glyph glyph-name="Lacute" unicode="&#x139;" horiz-adv-x="946" 
d="M402 273h502v-273h-793v1365h291v-1092zM607 1673l-239 -205h-233l188 205h284z" />
    <glyph glyph-name="lacute" unicode="&#x13a;" horiz-adv-x="522" 
d="M107 0v1405h307v-1405h-307zM584 1685l-219 -205h-232l173 205h278z" />
    <glyph glyph-name="Lcaron" unicode="&#x13d;" horiz-adv-x="946" 
d="M402 273h502v-273h-793v1365h291v-1092zM611 1365h212l-134 -314h-160z" />
    <glyph glyph-name="lcaron" unicode="&#x13e;" horiz-adv-x="791" 
d="M107 0v1423h307v-1423h-307zM578 1423h212l-134 -314h-160z" />
    <glyph glyph-name="Lslash" unicode="&#x141;" horiz-adv-x="946" 
d="M401 273h503v-273h-794v505l-102 -83v219l102 82v642h291v-509l232 175v-219l-232 -174v-365z" />
    <glyph glyph-name="lslash" unicode="&#x142;" horiz-adv-x="539" 
d="M116 0v570l-109 -82v178l109 82v675h307v-535l110 82v-178l-110 -82v-710h-307z" />
    <glyph glyph-name="Nacute" unicode="&#x143;" horiz-adv-x="1331" 
d="M1221 1365v-1365h-347l-362 723q-49 98 -142 361q17 -234 18 -391l3 -693h-280v1365h406l308 -639q70 -146 148 -431q-27 282 -28 461l-5 609h281zM991 1673l-239 -205h-233l188 205h284z" />
    <glyph glyph-name="nacute" unicode="&#x144;" horiz-adv-x="1227" 
d="M104 0v1121h289v-266q44 127 98 187q101 113 282 113q138 0 229 -71q96 -74 116 -208q6 -40 6 -201v-675h-307v575q0 167 -26 215q-41 75 -148 75q-140 0 -202 -126q-30 -61 -30 -201v-538h-307zM932 1454l-239 -218h-233l188 218h284z" />
    <glyph glyph-name="Ncaron" unicode="&#x147;" horiz-adv-x="1331" 
d="M1221 1365v-1365h-347l-362 723q-49 98 -142 361q17 -234 18 -391l3 -693h-280v1365h406l308 -639q70 -146 148 -431q-27 282 -28 461l-5 609h281zM816 1468h-301l-161 205h209l103 -103l102 103h209z" />
    <glyph glyph-name="ncaron" unicode="&#x148;" horiz-adv-x="1227" 
d="M104 0v1121h289v-266q44 127 98 187q101 113 282 113q138 0 229 -71q96 -74 116 -208q6 -40 6 -201v-675h-307v575q0 167 -26 215q-41 75 -148 75q-140 0 -202 -126q-30 -61 -30 -201v-538h-307zM761 1236h-301l-161 218h209l103 -116l102 116h209z" />
    <glyph glyph-name="Omacron" unicode="&#x14c;" horiz-adv-x="1300" 
d="M652 1395q592 4 592 -673q0 -281 -95 -463q-151 -289 -505 -289q-308 0 -460 222q-129 189 -129 511q0 688 597 692zM653 1102q-310 2 -310 -419q0 -448 305 -448q169 0 248 157q61 121 61 308q0 400 -304 402zM929 1638v-150h-558v150h558z" />
    <glyph glyph-name="omacron" unicode="&#x14d;" horiz-adv-x="1191" 
d="M597 1154q531 2 531 -573q0 -194 -70 -345q-125 -270 -472 -270q-247 0 -373 137q-151 164 -151 475q0 573 535 576zM601 865q-258 2 -258 -316q0 -339 253 -339q252 0 252 352q0 301 -247 303zM874 1420v-150h-558v150h558z" />
    <glyph glyph-name="OE" unicode="&#x152;" horiz-adv-x="1980" 
d="M986 1365h890v-273h-616v-281h616v-259h-616v-293h616v-259h-890v195q-54 -102 -120 -148q-110 -77 -267 -77q-213 0 -343 135q-92 95 -139 235q-62 184 -62 384q0 297 122 471q140 200 426 200q139 0 227 -46q95 -51 156 -169v185zM679 1101q-336 3 -336 -414
q0 -452 322 -452q180 0 266 141q70 116 70 309q0 413 -322 416z" />
    <glyph glyph-name="oe" unicode="&#x153;" horiz-adv-x="1907" 
d="M1841 471h-711q8 -279 295 -279q226 0 358 166h10v-218q-73 -71 -136 -106q-123 -68 -276 -68q-283 0 -408 211q-51 -90 -115 -135q-110 -76 -273 -76q-228 0 -363 133q-73 72 -109 175q-50 143 -50 303q0 577 535 577q287 0 393 -192q67 107 138 144q93 48 231 48
q484 0 484 -554q0 -46 -3 -129zM1642 691q-30 218 -261 218q-227 0 -258 -218h519zM597 878q-262 4 -262 -325q0 -144 55 -234q66 -109 201 -109t204 109q57 92 57 235q0 320 -255 324z" />
    <glyph glyph-name="Racute" unicode="&#x154;" horiz-adv-x="1188" 
d="M111 1365h525q201 0 297 -45q178 -84 178 -326q0 -145 -70 -244q-89 -126 -330 -151l456 -599h-358l-407 578v-578h-291v1365zM402 1106v-348h182q240 0 240 184q0 103 -67 140q-44 24 -166 24h-189zM875 1673l-239 -205h-233l188 205h284z" />
    <glyph glyph-name="racute" unicode="&#x155;" horiz-adv-x="866" 
d="M100 0v1121h292v-269q59 303 282 303q98 0 177 -67l-14 -323h-10q-75 77 -165 77q-120 0 -182 -92q-76 -112 -76 -451q0 -94 3 -299h-307zM783 1454l-239 -218h-233l188 218h284z" />
    <glyph glyph-name="Rcaron" unicode="&#x158;" horiz-adv-x="1188" 
d="M111 1365h525q201 0 297 -45q178 -84 178 -326q0 -145 -70 -244q-89 -126 -330 -151l456 -599h-358l-407 578v-578h-291v1365zM402 1106v-348h182q240 0 240 184q0 103 -67 140q-44 24 -166 24h-189zM713 1468h-301l-161 205h209l103 -103l102 103h209z" />
    <glyph glyph-name="rcaron" unicode="&#x159;" horiz-adv-x="866" 
d="M100 0v1121h292v-269q59 303 282 303q98 0 177 -67l-14 -323h-10q-75 77 -165 77q-120 0 -182 -92q-76 -112 -76 -451q0 -94 3 -299h-307zM616 1236h-301l-161 218h209l103 -116l102 116h209z" />
    <glyph glyph-name="Sacute" unicode="&#x15a;" horiz-adv-x="1058" 
d="M949 1266v-324q-85 93 -166 130q-106 48 -212 48q-81 0 -138 -34q-69 -41 -69 -116q0 -81 84 -120q17 -8 156 -45q200 -53 282 -130q110 -103 110 -271q0 -125 -63.5 -228t-175.5 -156q-106 -50 -232 -50q-219 0 -409 140v299q92 -97 168 -135q110 -55 227 -55
q85 0 142 35q68 42 68 122q0 81 -79 126q-41 23 -152 51q-201 50 -295 127q-125 102 -125 284q0 206 157 329q131 102 326 102q212 0 396 -129zM871 1673l-239 -205h-233l188 205h284z" />
    <glyph glyph-name="sacute" unicode="&#x15b;" horiz-adv-x="939" 
d="M841 1043v-284q-67 63 -125 90q-94 44 -195 44q-68 0 -118 -25q-63 -31 -63 -93q0 -68 170 -113q218 -58 259 -88q112 -81 112 -236q0 -179 -127 -279q-116 -93 -299 -93q-198 0 -358 113v259q69 -64 127 -93q97 -48 201 -48q184 0 184 118q0 55 -45 83q-32 20 -205 54
q-299 59 -299 331q0 182 131 281q118 90 305 90q191 0 345 -111zM800 1454l-239 -218h-233l188 218h284z" />
    <glyph glyph-name="Scedilla" unicode="&#x15e;" horiz-adv-x="1058" 
d="M949 1266v-324q-85 93 -166 130q-106 48 -212 48q-81 0 -138 -34q-69 -41 -69 -116q0 -81 84 -120q17 -8 156 -45q200 -53 282 -130q110 -103 110 -271q0 -125 -63.5 -228t-175.5 -156q-106 -50 -232 -50q-219 0 -409 140v299q92 -97 168 -135q110 -55 227 -55
q85 0 142 35q68 42 68 122q0 81 -79 126q-41 23 -152 51q-201 50 -295 127q-125 102 -125 284q0 206 157 329q131 102 326 102q212 0 396 -129zM427 -95h212l-134 -246h-160z" />
    <glyph glyph-name="scedilla" unicode="&#x15f;" horiz-adv-x="939" 
d="M841 1043v-284q-67 63 -125 90q-94 44 -195 44q-68 0 -118 -25q-63 -31 -63 -93q0 -68 170 -113q218 -58 259 -88q112 -81 112 -236q0 -179 -127 -279q-116 -93 -299 -93q-198 0 -358 113v259q69 -64 127 -93q97 -48 201 -48q184 0 184 118q0 55 -45 83q-32 20 -205 54
q-299 59 -299 331q0 182 131 281q118 90 305 90q191 0 345 -111zM357 -95h212l-134 -246h-160z" />
    <glyph glyph-name="Scaron" unicode="&#x160;" horiz-adv-x="1058" 
d="M949 1266v-324q-85 93 -166 130q-106 48 -212 48q-81 0 -138 -34q-69 -41 -69 -116q0 -81 84 -120q17 -8 156 -45q200 -53 282 -130q110 -103 110 -271q0 -125 -63.5 -228t-175.5 -156q-106 -50 -232 -50q-219 0 -409 140v299q92 -97 168 -135q110 -55 227 -55
q85 0 142 35q68 42 68 122q0 81 -79 126q-41 23 -152 51q-201 50 -295 127q-125 102 -125 284q0 206 157 329q131 102 326 102q212 0 396 -129zM702 1468h-301l-161 205h209l103 -103l102 103h209z" />
    <glyph glyph-name="scaron" unicode="&#x161;" horiz-adv-x="939" 
d="M841 1043v-284q-67 63 -125 90q-94 44 -195 44q-68 0 -118 -25q-63 -31 -63 -93q0 -68 170 -113q218 -58 259 -88q112 -81 112 -236q0 -179 -127 -279q-116 -93 -299 -93q-198 0 -358 113v259q69 -64 127 -93q97 -48 201 -48q184 0 184 118q0 55 -45 83q-32 20 -205 54
q-299 59 -299 331q0 182 131 281q118 90 305 90q191 0 345 -111zM634 1236h-301l-161 218h209l103 -116l102 116h209z" />
    <glyph glyph-name="Tcaron" unicode="&#x164;" horiz-adv-x="1181" 
d="M56 1365h1069v-287h-388v-1078h-291v1078h-390v287zM741 1468h-301l-161 205h209l103 -103l102 103h209z" />
    <glyph glyph-name="tcaron" unicode="&#x165;" horiz-adv-x="933" 
d="M500 1110h383v-273h-388l-1 -374q0 -117 20 -168q33 -85 129 -85q116 0 212 113v-227q-128 -130 -311 -130q-258 0 -316 204q-27 94 -27 314q0 178 8 347h-183v195q242 51 322 379h158zM684 1547h212l-134 -314h-160z" />
    <glyph glyph-name="Umacron" unicode="&#x16a;" horiz-adv-x="1268" 
d="M111 1365h291v-781q0 -178 40 -244q57 -94 191 -94q162 0 211 125q23 58 23 220v774h291v-774q0 -225 -21 -296q-96 -325 -503 -325q-198 0 -329 86q-146 95 -181 281q-13 69 -13 234v794zM913 1638v-150h-558v150h558z" />
    <glyph glyph-name="umacron" unicode="&#x16b;" horiz-adv-x="1208" 
d="M1105 1121v-1121h-294v223q-44 -110 -102 -164q-100 -93 -252 -93q-306 0 -345 325q-8 66 -8 269v561h307v-554q0 -185 19 -237q34 -92 155 -92q137 0 185 119q28 70 28 253v511h307zM883 1420v-150h-558v150h558z" />
    <glyph glyph-name="Uring" unicode="&#x16e;" horiz-adv-x="1268" 
d="M111 1365h291v-781q0 -178 40 -244q57 -94 191 -94q162 0 211 125q23 58 23 220v774h291v-774q0 -225 -21 -296q-96 -325 -503 -325q-198 0 -329 86q-146 95 -181 281q-13 69 -13 234v794zM635 1830q82 1 136.5 -55.5t54.5 -138.5q0 -78 -56 -133.5t-135 -55.5
q-80 0 -135.5 55.5t-55.5 136.5t55 135.5t136 55.5zM635 1721q-34 0 -58 -24t-24 -58t24 -58.5t58 -24.5t58 24t24 58q0 35 -23.5 59t-58.5 24z" />
    <glyph glyph-name="uring" unicode="&#x16f;" horiz-adv-x="1208" 
d="M1105 1121v-1121h-294v223q-44 -110 -102 -164q-100 -93 -252 -93q-306 0 -345 325q-8 66 -8 269v561h307v-554q0 -185 19 -237q34 -92 155 -92q137 0 185 119q28 70 28 253v511h307zM603 1608q82 1 137 -55t55 -138q0 -79 -56 -134t-136 -55q-81 0 -136 55t-55 136
t55 135.5t136 55.5zM603 1499q-34 0 -58 -24t-24 -58t24 -58t58 -24t58.5 23.5t24.5 57.5q0 83 -83 83z" />
    <glyph glyph-name="Uogonek" unicode="&#x172;" horiz-adv-x="1268" 
d="M1013 -175v-97q-70 -28 -134 -28q-161 0 -161 132q0 94 97 161q-95 -23 -183 -23q-196 0 -328 87q-145 95 -180 280q-13 69 -13 234v794h291v-781q0 -178 40 -244q57 -94 191 -94q162 0 211 125q23 58 23 220v774h291v-774q0 -149 -4 -195q-17 -196 -172 -332
q-101 -89 -101 -174q0 -76 70 -76q22 0 62 11z" />
    <glyph glyph-name="uogonek" unicode="&#x173;" horiz-adv-x="1208" 
d="M1105 0q-96 -63 -96 -128q0 -68 71 -68q20 0 62 11v-96q-70 -27 -134 -27q-162 0 -162 129q0 114 137 179h-172v223q-44 -110 -102 -164q-100 -93 -252 -93q-306 0 -345 325q-8 66 -8 269v561h307v-554q0 -185 19 -237q34 -92 155 -92q137 0 185 119q28 70 28 253v511
h307v-1121z" />
    <glyph glyph-name="Ydieresis" unicode="&#x178;" horiz-adv-x="1238" 
d="M1212 1365l-446 -865v-500h-291v494l-450 871h331l177 -377q59 -126 86 -265q30 147 84 264l175 378h334zM809 1683q124 0 124 -110q0 -112 -126 -112q-54 0 -89 29q-38 31 -38 84q0 109 129 109zM433 1683q124 0 124 -110q0 -112 -126 -112q-54 0 -89 29q-38 31 -38 84
q0 109 129 109z" />
    <glyph glyph-name="Zacute" unicode="&#x179;" horiz-adv-x="1054" 
d="M82 1365h903v-323l-565 -783h565v-259h-915v271l595 821h-583v273zM859 1673l-239 -205h-233l188 205h284z" />
    <glyph glyph-name="zacute" unicode="&#x17a;" horiz-adv-x="982" 
d="M75 1121h841v-229l-486 -641h486v-251h-849v236l462 612h-454v273zM819 1454l-239 -218h-233l188 218h284z" />
    <glyph glyph-name="Zcaron" unicode="&#x17d;" horiz-adv-x="1054" 
d="M82 1365h903v-323l-565 -783h565v-259h-915v271l595 821h-583v273zM686 1468h-301l-161 205h209l103 -103l102 103h209z" />
    <glyph glyph-name="zcaron" unicode="&#x17e;" horiz-adv-x="982" 
d="M75 1121h841v-229l-486 -641h486v-251h-849v236l462 612h-454v273zM650 1236h-301l-161 218h209l103 -116l102 116h209z" />
    <glyph glyph-name="florin" unicode="&#x192;" horiz-adv-x="1174" 
d="M945 1005l-4 -173h-243l-172 -969h-258l172 969h-179l4 173h207l28 153q68 374 386 374q105 0 207 -47v-236q-93 46 -156 46q-89 0 -137 -52q-33 -36 -51 -134l-19 -104h215z" />
    <glyph glyph-name="circumflex" unicode="&#x2c6;" 
d="M361 1454h301l161 -218h-209l-102 116l-103 -116h-209z" />
    <glyph glyph-name="caron" unicode="&#x2c7;" 
d="M662 1236h-301l-161 218h209l103 -116l102 116h209z" />
    <glyph glyph-name="macron" unicode="&#x2c9;" 
d="M791 1420v-150h-558v150h558z" />
    <glyph glyph-name="breve" unicode="&#x2d8;" 
d="M788 1461q-13 -81 -42 -127q-65 -103 -233 -103q-126 0 -190 53q-67 54 -86 177h161q25 -88 113 -88q89 0 115 88h162z" />
    <glyph glyph-name="dotaccent" unicode="&#x2d9;" 
d="M516 1463q126 0 126 -114q0 -115 -129 -115q-55 0 -91 30q-39 32 -39 86q0 113 133 113z" />
    <glyph glyph-name="ring" unicode="&#x2da;" 
d="M512 1608q82 1 136.5 -55t54.5 -138q0 -79 -56 -134t-135 -55q-81 0 -136 55t-55 136t55 135.5t136 55.5zM512 1499q-34 0 -58 -24t-24 -58t24 -58t58 -24t58 23.5t24 57.5q0 35 -23.5 59t-58.5 24z" />
    <glyph glyph-name="ogonek" unicode="&#x2db;" 
d="M822 0h121q-95 -63 -95 -128q0 -68 70 -68q21 0 62 11v-96q-70 -27 -134 -27q-161 0 -161 129q0 114 137 179z" />
    <glyph glyph-name="tilde" unicode="&#x2dc;" 
d="M639 1435h149q-14 -88 -34 -121q-44 -72 -135 -72q-44 0 -147 36q-26 9 -43 9q-33 0 -44 -39h-149q12 85 38 124q46 69 134 69q53 0 142 -35q26 -10 47 -10q33 0 42 39z" />
    <glyph glyph-name="hungarumlaut" unicode="&#x2dd;" 
d="M995 1454l-210 -218h-199l172 218h237zM634 1454l-209 -218h-199l172 218h236z" />
    <glyph glyph-name="Delta" unicode="&#x394;" horiz-adv-x="1365" 
d="M33 0l500 1365h289l509 -1365h-1298zM414 241h531l-266 800z" />
    <glyph glyph-name="Delta" unicode="&#x2206;" horiz-adv-x="1365" 
d="M33 0l500 1365h289l509 -1365h-1298zM414 241h531l-266 800z" />
    <glyph glyph-name="Omega" unicode="&#x3a9;" horiz-adv-x="1365" 
d="M58 0v239h279q-118 74 -175 152q-104 141 -104 359q0 268 165 450q180 198 460 198q279 0 460 -199q164 -181 164 -449q0 -177 -64.5 -297t-213.5 -214h278v-239h-552v212q115 66 173 146q101 139 101 363q0 282 -194 396q-72 42 -152 42q-165 0 -262 -142
q-85 -124 -85 -297q0 -354 276 -508v-212h-554z" />
    <glyph glyph-name="Omega" unicode="&#x2126;" horiz-adv-x="1365" 
d="M58 0v239h279q-118 74 -175 152q-104 141 -104 359q0 268 165 450q180 198 460 198q279 0 460 -199q164 -181 164 -449q0 -177 -64.5 -297t-213.5 -214h278v-239h-552v212q115 66 173 146q101 139 101 363q0 282 -194 396q-72 42 -152 42q-165 0 -262 -142
q-85 -124 -85 -297q0 -354 276 -508v-212h-554z" />
    <glyph glyph-name="mu" unicode="&#xb5;" 
d="M55 -354v1337h265v-519q0 -275 200 -275q190 0 190 281v513h264v-983h-264v114q-31 -60 -62 -87q-56 -48 -134 -48q-121 0 -194 125v-458h-265z" />
    <glyph glyph-name="mu" unicode="&#x3bc;" 
d="M55 -354v1337h265v-519q0 -275 200 -275q190 0 190 281v513h264v-983h-264v114q-31 -60 -62 -87q-56 -48 -134 -48q-121 0 -194 125v-458h-265z" />
    <glyph glyph-name="pi" unicode="&#x3c0;" horiz-adv-x="1365" 
d="M235 0v744h-157v239h1210v-239h-154v-744h-266v744h-367v-744h-266z" />
    <glyph glyph-name="endash" unicode="&#x2013;" horiz-adv-x="1179" 
d="M64 696h1050v-217h-1050v217z" />
    <glyph glyph-name="emdash" unicode="&#x2014;" horiz-adv-x="1627" 
d="M0 696h1627v-217h-1627v217z" />
    <glyph glyph-name="quoteleft" unicode="&#x2018;" horiz-adv-x="393" 
d="M283 953h-203v29q0 213 68 383h159q-32 -101 -32 -275q0 -63 8 -137z" />
    <glyph glyph-name="quoteright" unicode="&#x2019;" horiz-adv-x="393" 
d="M110 1365h203v-28q0 -212 -68 -384h-159q32 100 32 275q0 61 -8 137z" />
    <glyph glyph-name="quotesinglbase" unicode="&#x201a;" horiz-adv-x="393" 
d="M110 200h203v-29q0 -211 -68 -383h-159q32 100 32 275q0 61 -8 137z" />
    <glyph glyph-name="quotedblleft" unicode="&#x201c;" horiz-adv-x="666" 
d="M556 953h-203v29q0 213 68 383h159q-32 -99 -32 -275q0 -63 8 -137zM283 953h-203v29q0 213 68 383h159q-32 -101 -32 -275q0 -63 8 -137z" />
    <glyph glyph-name="quotedblright" unicode="&#x201d;" horiz-adv-x="666" 
d="M110 1365h203v-28q0 -212 -68 -384h-159q32 100 32 275q0 61 -8 137zM383 1365h203v-28q0 -212 -68 -384h-159q32 100 32 275q0 61 -8 137z" />
    <glyph glyph-name="quotedblbase" unicode="&#x201e;" horiz-adv-x="666" 
d="M110 200h203v-29q0 -211 -68 -383h-159q32 100 32 275q0 61 -8 137zM383 200h203v-29q0 -211 -68 -383h-159q32 100 32 275q0 61 -8 137z" />
    <glyph glyph-name="dagger" unicode="&#x2020;" horiz-adv-x="1176" 
d="M722 1423l-16 -437l394 17v-274l-395 23l39 -1018h-315l40 1018l-393 -23v274l393 -17l-21 437h274z" />
    <glyph glyph-name="daggerdbl" unicode="&#x2021;" horiz-adv-x="1176" 
d="M731 1423l-25 -404l385 19v-247l-384 23v-260l384 20v-246l-385 20l36 -614h-316l46 614l-386 -20v246l385 -20v260l-385 -23v247l386 -19l-15 404h274z" />
    <glyph glyph-name="bullet" unicode="&#x2022;" horiz-adv-x="1365" 
d="M689 978q117 0 198.5 -83.5t81.5 -200.5q0 -119 -82.5 -201.5t-201.5 -82.5q-118 0 -201 82.5t-83 200.5q0 121 83.5 203t204.5 82z" />
    <glyph glyph-name="ellipsis" unicode="&#x2026;" horiz-adv-x="1433" 
d="M243 206q153 0 153 -117q0 -119 -158 -119q-156 0 -156 115q0 121 161 121zM721 206q153 0 153 -117q0 -119 -158 -119q-156 0 -156 115q0 121 161 121zM1199 206q153 0 153 -117q0 -119 -158 -119q-156 0 -156 115q0 121 161 121z" />
    <glyph glyph-name="perthousand" unicode="&#x2030;" horiz-adv-x="2519" 
d="M1246 1365l113 -81l-882 -1284l-114 73zM370 1375q314 2 314 -371q0 -206 -107 -313q-80 -80 -220 -80q-302 0 -302 397q0 365 315 367zM368 1206q-148 1 -148 -204q0 -238 147 -238q148 0 148 235q0 206 -147 207zM1367 747q318 2 318 -378q0 -173 -71 -273
q-81 -114 -245 -114q-313 0 -313 400q0 363 311 365zM1369 576q-146 1 -146 -196q0 -244 146 -244q147 0 147 225q0 214 -147 215zM2145 747q318 2 318 -378q0 -173 -71 -273q-81 -114 -245 -114q-314 0 -314 400q0 363 312 365zM2147 576q-146 1 -146 -196q0 -244 146 -244
q147 0 147 225q0 214 -147 215z" />
    <glyph glyph-name="guilsinglleft" unicode="&#x2039;" horiz-adv-x="540" 
d="M246 926h211l-144 -339l144 -340h-211l-163 340z" />
    <glyph glyph-name="guilsinglright" unicode="&#x203a;" horiz-adv-x="540" 
d="M293 248h-210l144 339l-144 341h210l164 -341z" />
    <glyph glyph-name="fraction" unicode="&#x2044;" horiz-adv-x="412" 
d="M584 1392l115 -83l-885 -1336l-114 83z" />
    <glyph glyph-name="franc" unicode="&#x20a3;" horiz-adv-x="1676" 
d="M111 1365h890v-273h-599v-304h599v-259h-599v-529h-291v1365zM1140 0v785h205v-188q43 212 198 212q68 0 123 -47l-13 -227q-2 2 -14 11q-56 44 -105 44q-139 0 -169 -177q-12 -72 -12 -202q0 -64 3 -211h-216z" />
    <glyph glyph-name="trademark" unicode="&#x2122;" horiz-adv-x="1725" 
d="M28 1365h671v-174h-238v-604h-193v604h-240v174zM1664 1365v-778h-186l4 541q-23 -102 -42 -161l-124 -380h-186l-122 378q-20 63 -38 160l4 -538h-186v778h283l125 -420q16 -54 31 -158q14 106 30 161l121 417h286z" />
    <glyph glyph-name="partialdiff" unicode="&#x2202;" 
d="M113 1130l34 230q457 -50 670 -297q180 -209 180 -512q0 -314 -193 -466q-130 -103 -311 -103q-251 0 -390 201q-85 123 -85 269q0 184 120.5 308.5t303.5 124.5q151 0 248 -93q-133 294 -577 338zM500 662q-92 0 -149.5 -62.5t-57.5 -154.5q0 -94 56 -157
q58 -67 151 -67q92 0 151 66q57 63 57 156t-57.5 156t-150.5 63z" />
    <glyph glyph-name="product" unicode="&#x220f;" horiz-adv-x="1502" 
d="M82 1536h1338v-239h-168v-1570h168v-239h-601v239h163v1570h-463v-1570h162v-239h-599v239h170v1570h-170v239z" />
    <glyph glyph-name="summation" unicode="&#x2211;" horiz-adv-x="1365" 
d="M1269 1536v-506h-238l-28 267h-661l511 -751l-511 -819h680l16 273h251v-512h-1247v266l499 792l-499 724v266h1227z" />
    <glyph glyph-name="minus" unicode="&#x2212;" horiz-adv-x="1176" 
d="M101 598v197h975v-197h-975z" />
    <glyph glyph-name="periodcentered" unicode="&#x2219;" horiz-adv-x="478" 
d="M243 699q153 0 153 -117q0 -119 -158 -119q-156 0 -156 115q0 121 161 121z" />
    <glyph glyph-name="radical" unicode="&#x221a;" horiz-adv-x="1365" 
d="M1365 1693v-239h-365l-338 -1454h-353l-116 554h-193v239h413l37 -173q26 -122 27 -298h22q15 279 88 593l181 778h597z" />
    <glyph glyph-name="infinity" unicode="&#x221e;" horiz-adv-x="1365" 
d="M689 522q-150 -161 -321 -161q-156 0 -254 108q-80 89 -80 226q0 164 114 257q94 77 218 77q158 0 311 -160q142 159 318 159q172 0 268 -121q68 -85 68 -211q0 -147 -92.5 -241t-239.5 -94q-169 0 -310 161zM814 695q71 -95 141 -95q42 0 72 27t30 68q0 40 -30.5 67
t-71.5 27q-56 0 -107 -52q-18 -18 -34 -42zM551 695q-70 95 -141 95q-42 0 -72 -27t-30 -68t30 -68t72 -27q78 0 141 95z" />
    <glyph glyph-name="integral" unicode="&#x222b;" 
d="M95 -491l48 237q71 -20 115 -20q117 0 117 146v37l1 90v975q0 260 22 341q30 111 131 170q89 52 212 52q73 0 188 -22l-48 -237q-71 21 -115 21q-117 0 -117 -146v-1102q0 -175 -2 -206q-8 -133 -46 -198q-92 -159 -314 -159q-83 0 -192 21z" />
    <glyph glyph-name="approxequal" unicode="&#x2248;" 
d="M160 696l-146 96q57 139 111 198q79 87 200 87q68 0 212 -53q131 -48 176 -48q55 0 89 28q25 21 58 77l151 -88q-61 -129 -123 -190q-85 -84 -203 -84q-54 0 -210 56q-128 46 -165 46q-57 0 -94 -37q-23 -23 -56 -88zM160 280l-146 96q57 139 111 198q79 87 200 87
q68 0 212 -53q131 -48 177 -48q86 0 146 105l151 -88q-61 -129 -123 -190q-85 -84 -203 -84q-54 0 -210 56q-128 46 -165 46q-57 0 -94 -37q-23 -23 -56 -88z" />
    <glyph glyph-name="approxequal" unicode="&#x22f2;" 
d="M160 696l-146 96q57 139 111 198q79 87 200 87q68 0 212 -53q131 -48 176 -48q55 0 89 28q25 21 58 77l151 -88q-61 -129 -123 -190q-85 -84 -203 -84q-54 0 -210 56q-128 46 -165 46q-57 0 -94 -37q-23 -23 -56 -88zM160 280l-146 96q57 139 111 198q79 87 200 87
q68 0 212 -53q131 -48 177 -48q86 0 146 105l151 -88q-61 -129 -123 -190q-85 -84 -203 -84q-54 0 -210 56q-128 46 -165 46q-57 0 -94 -37q-23 -23 -56 -88z" />
    <glyph glyph-name="notequal" unicode="&#x2260;" 
d="M536 963l111 220l168 -86l-69 -134h209v-239h-317l-69 -137h386v-239h-494l-100 -196l-167 86l55 110h-181v239h289l71 137h-360v239h468z" />
    <glyph glyph-name="lessequal" unicode="&#x2264;" 
d="M955 1371v-249l-606 -289l606 -288v-248l-887 425v224zM955 239v-239h-887v239h887z" />
    <glyph glyph-name="greaterequal" unicode="&#x2265;" 
d="M68 297v248l606 289l-605 288v249l886 -426v-223zM68 0v239h887v-239h-887z" />
    <glyph glyph-name="lozenge" unicode="&#x25ca;" horiz-adv-x="1365" 
d="M683 1419l532 -736l-532 -736l-532 736zM683 1237l-404 -554l404 -555l403 555z" />
    <glyph glyph-name="fi" unicode="&#xf001;" horiz-adv-x="1384" 
d="M469 885h260v-235h-219v-650h-307v650h-168v235h168q-15 118 -15 175q0 170 115 267q108 92 282 92q155 0 296 -74v-239q-104 75 -218 75q-124 0 -167 -74q-27 -47 -27 -154v-68zM1134 1439q169 0 169 -122q0 -113 -176 -113q-180 0 -180 114q0 121 187 121zM973 0v1120
q79 -18 146 -18q65 0 161 18v-1120h-307z" />
    <glyph glyph-name="fl" unicode="&#xf002;" horiz-adv-x="1391" 
d="M469 885h260v-235h-219v-650h-307v650h-168v235h168q-15 119 -15 175q0 172 115 268q107 91 282 91q155 0 296 -74v-238q-104 74 -218 74q-124 0 -167 -74q-27 -46 -27 -154v-68zM980 0v1423h307v-1423h-307z" />
    <glyph glyph-name="glyph233" horiz-adv-x="512" 
 />
    <glyph glyph-name="glyph234" horiz-adv-x="512" 
 />
    <glyph glyph-name="glyph226" horiz-adv-x="512" 
 />
    <glyph glyph-name="glyph227" horiz-adv-x="512" 
 />
    <glyph glyph-name="glyph228" horiz-adv-x="512" 
 />
    <glyph glyph-name="glyph229" horiz-adv-x="512" 
 />
    <glyph glyph-name="glyph235" horiz-adv-x="512" 
 />
    <glyph glyph-name="glyph310" horiz-adv-x="512" 
 />
    <glyph glyph-name="glyph236" horiz-adv-x="512" 
 />
    <glyph glyph-name="glyph237" horiz-adv-x="512" 
 />
    <glyph glyph-name="glyph313" horiz-adv-x="512" 
 />
    <glyph glyph-name="glyph230" horiz-adv-x="512" 
 />
    <glyph glyph-name="glyph231" horiz-adv-x="512" 
 />
    <glyph glyph-name="glyph242" horiz-adv-x="512" 
 />
    <glyph glyph-name="glyph243" horiz-adv-x="512" 
 />
    <glyph glyph-name="glyph239" horiz-adv-x="512" 
 />
    <glyph glyph-name="glyph244" horiz-adv-x="512" 
 />
    <glyph glyph-name="glyph241" horiz-adv-x="512" 
 />
    <glyph glyph-name="glyph240" horiz-adv-x="512" 
 />
    <glyph glyph-name="glyph232" horiz-adv-x="512" 
 />
    <glyph glyph-name="glyph238" horiz-adv-x="512" 
 />
    <glyph glyph-name="glyph172" horiz-adv-x="1174" 
 />
    <glyph glyph-name="apple" unicode="&#xf000;" horiz-adv-x="1365" 
d="M983 1416q-2 -144 -80 -242q-84 -106 -224 -113q5 146 82 239q80 98 222 116zM1276 936q-165 -127 -165 -286q0 -216 204 -305q-64 -158 -140 -257q-110 -143 -204 -143q-49 0 -132 38q-50 23 -106 23q-80 0 -147 -28q-84 -35 -125 -35q-111 0 -223 167
q-172 256 -172 524q0 202 122 335q99 108 259 108q64 0 173 -41q56 -21 86 -21q36 0 129.5 33t144.5 33q190 0 296 -145z" />
    <glyph glyph-name="glyph245" horiz-adv-x="512" 
 />
    <glyph glyph-name="glyph246" horiz-adv-x="512" 
 />
    <glyph glyph-name="glyph247" horiz-adv-x="512" 
 />
    <glyph glyph-name="glyph248" horiz-adv-x="512" 
 />
    <glyph glyph-name="glyph249" horiz-adv-x="512" 
 />
    <glyph glyph-name="glyph250" horiz-adv-x="512" 
 />
    <glyph glyph-name="glyph251" horiz-adv-x="512" 
 />
    <glyph glyph-name="glyph252" horiz-adv-x="512" 
 />
    <glyph glyph-name="glyph253" horiz-adv-x="512" 
 />
    <glyph glyph-name="glyph254" horiz-adv-x="512" 
 />
    <glyph glyph-name="glyph255" horiz-adv-x="512" 
 />
    <glyph glyph-name="glyph256" horiz-adv-x="512" 
 />
    <glyph glyph-name="glyph257" horiz-adv-x="512" 
 />
    <glyph glyph-name="nonbreakingspace" unicode="&#xa0;" horiz-adv-x="512" 
 />
    <glyph glyph-name="sfthyphen" unicode="&#xad;" horiz-adv-x="501" 
d="M0 696h501v-217h-501v217z" />
    <glyph glyph-name="Edotaccent" unicode="&#x116;" horiz-adv-x="1106" 
d="M111 1365h892v-273h-613v-281h613v-259h-613v-293h613v-259h-892v1365zM561 1689q127 0 127 -113q0 -115 -129 -115q-55 0 -91 30q-39 32 -39 86q0 112 132 112z" />
    <glyph glyph-name="edotaccent" unicode="&#x117;" horiz-adv-x="1144" 
d="M1072 469h-724q17 -285 311 -285q228 0 354 184h10v-227q-74 -79 -144 -114q-121 -61 -279 -61q-238 0 -375 137q-162 162 -162 462q0 271 128 424q138 166 404 166q247 0 372 -157q115 -143 115 -396q0 -62 -10 -133zM869 681q-15 86 -47 132q-68 97 -217 97
q-245 0 -257 -229h521zM596 1463q126 0 126 -114q0 -115 -129 -115q-55 0 -91 30q-39 32 -39 86q0 113 133 113z" />
    <glyph glyph-name="Gcommaaccent" unicode="&#x122;" horiz-adv-x="1200" 
d="M1130 689v-464q-6 -5 -18 -21q-59 -79 -114 -122q-141 -112 -356 -112q-241 0 -393 150q-205 203 -205 586q0 368 209 550q160 139 406 139q135 0 233 -40q94 -39 197 -132v-319h-12q-68 90 -139 132q-111 66 -243 66q-187 0 -281 -128q-83 -112 -83 -306q0 -190 70 -310
q87 -149 262 -149q109 0 188 64v416h279zM536 -95h212l-134 -246h-160z" />
    <glyph glyph-name="gcommaaccent" unicode="&#x123;" horiz-adv-x="1221" 
d="M1117 1121v-839q0 -131 -6 -185q-41 -370 -529 -370q-252 0 -421 117v234q168 -135 387 -135q184 0 252 111q42 69 42 209v47q-44 -103 -99 -146q-91 -71 -237 -71q-200 0 -322 139t-122 397q0 366 239 483q88 43 201 43q252 0 327 -214v180h288zM596 879
q-121 2 -184 -82q-56 -75 -56 -200q0 -122 53 -197q60 -86 177 -86q123 0 187 90q56 78 56 206q0 264 -233 269zM716 1235h-212l134 246h160z" />
    <glyph glyph-name="Kcommaaccent" unicode="&#x136;" horiz-adv-x="1220" 
d="M111 1365h296v-595l412 595h357l-502 -679l518 -686h-358l-427 614v-614h-296v1365zM536 -95h212l-134 -246h-160z" />
    <glyph glyph-name="kcommaaccent" unicode="&#x137;" horiz-adv-x="1178" 
d="M104 0v1423h313v-822l356 509h367l-445 -547l468 -563h-385l-367 512v-512h-307zM503 -95h212l-134 -246h-160z" />
    <glyph glyph-name="Lcommaaccent" unicode="&#x13b;" horiz-adv-x="946" 
d="M402 273h502v-273h-793v1365h291v-1092zM436 -95h212l-134 -246h-160z" />
    <glyph glyph-name="lcommaaccent" unicode="&#x13c;" horiz-adv-x="522" 
d="M107 0v1423h307v-1423h-307zM161 -95h212l-134 -246h-160z" />
    <glyph glyph-name="Ncommaaccent" unicode="&#x145;" horiz-adv-x="1331" 
d="M1221 1365v-1365h-347l-362 723q-49 98 -142 361q17 -234 18 -391l3 -693h-280v1365h406l308 -639q70 -146 148 -431q-27 282 -28 461l-5 609h281zM594 -95h212l-134 -246h-160z" />
    <glyph glyph-name="ncommaaccent" unicode="&#x146;" horiz-adv-x="1227" 
d="M104 0v1121h289v-266q44 127 98 187q101 113 282 113q138 0 229 -71q96 -74 116 -208q6 -40 6 -201v-675h-307v575q0 167 -26 215q-41 75 -148 75q-140 0 -202 -126q-30 -61 -30 -201v-538h-307zM527 -95h212l-134 -246h-160z" />
    <glyph glyph-name="Ohungarumlaut" unicode="&#x150;" horiz-adv-x="1300" 
d="M652 1395q592 4 592 -673q0 -281 -95 -463q-151 -289 -505 -289q-308 0 -460 222q-129 189 -129 511q0 688 597 692zM653 1102q-310 2 -310 -419q0 -448 305 -448q169 0 248 157q61 121 61 308q0 400 -304 402zM1141 1673l-210 -205h-206l172 205h244zM765 1673
l-210 -205h-205l172 205h243z" />
    <glyph glyph-name="ohungarumlaut" unicode="&#x151;" horiz-adv-x="1191" 
d="M597 1154q531 2 531 -573q0 -194 -70 -345q-125 -270 -472 -270q-247 0 -373 137q-151 164 -151 475q0 573 535 576zM601 865q-258 2 -258 -316q0 -339 253 -339q252 0 252 352q0 301 -247 303zM1076 1454l-210 -218h-199l172 218h237zM715 1454l-209 -218h-199l172 218
h236z" />
    <glyph glyph-name="Rcommaaccent" unicode="&#x156;" horiz-adv-x="1188" 
d="M111 1365h525q201 0 297 -45q178 -84 178 -326q0 -145 -70 -244q-89 -126 -330 -151l456 -599h-358l-407 578v-578h-291v1365zM402 1106v-348h182q240 0 240 184q0 103 -67 140q-44 24 -166 24h-189zM526 -95h212l-134 -246h-160z" />
    <glyph glyph-name="rcommaaccent" unicode="&#x157;" horiz-adv-x="866" 
d="M100 0v1121h292v-269q59 303 282 303q98 0 177 -67l-14 -323h-10q-75 77 -165 77q-120 0 -182 -92q-76 -112 -76 -451q0 -94 3 -299h-307zM154 -95h212l-134 -246h-160z" />
    <glyph glyph-name="Tcommaaccent" unicode="&#x162;" horiz-adv-x="1181" 
d="M56 1365h1069v-287h-388v-1078h-291v1078h-390v287zM493 -95h212l-134 -246h-160z" />
    <glyph glyph-name="tcommaaccent" unicode="&#x163;" horiz-adv-x="933" 
d="M500 1110h383v-273h-388l-1 -374q0 -117 20 -168q33 -85 129 -85q116 0 212 113v-227q-128 -130 -311 -130q-258 0 -316 204q-27 94 -27 314q0 178 8 347h-183v195q242 51 322 379h158zM430 -95h212l-134 -246h-160z" />
    <glyph glyph-name="Uhungarumlaut" unicode="&#x170;" horiz-adv-x="1268" 
d="M111 1365h291v-781q0 -178 40 -244q57 -94 191 -94q162 0 211 125q23 58 23 220v774h291v-774q0 -225 -21 -296q-96 -325 -503 -325q-198 0 -329 86q-146 95 -181 281q-13 69 -13 234v794zM1119 1673l-210 -205h-206l172 205h244zM743 1673l-210 -205h-205l172 205h243z
" />
    <glyph glyph-name="uhungarumlaut" unicode="&#x171;" horiz-adv-x="1208" 
d="M1105 1121v-1121h-294v223q-44 -110 -102 -164q-100 -93 -252 -93q-306 0 -345 325q-8 66 -8 269v561h307v-554q0 -185 19 -237q34 -92 155 -92q137 0 185 119q28 70 28 253v511h307zM1078 1454l-210 -218h-199l172 218h237zM717 1454l-209 -218h-199l172 218h236z" />
    <glyph glyph-name="Zdotaccent" unicode="&#x17b;" horiz-adv-x="1054" 
d="M82 1365h903v-323l-565 -783h565v-259h-915v271l595 821h-583v273zM538 1689q127 0 127 -113q0 -115 -129 -115q-55 0 -91 30q-39 32 -39 86q0 112 132 112z" />
    <glyph glyph-name="zdotaccent" unicode="&#x17c;" horiz-adv-x="982" 
d="M75 1121h841v-229l-486 -641h486v-251h-849v236l462 612h-454v273zM501 1463q126 0 126 -114q0 -115 -129 -115q-55 0 -91 30q-39 32 -39 86q0 113 133 113z" />
    <glyph glyph-name="glyph359" 
d="M788 1679q-13 -76 -42 -119q-65 -97 -233 -97q-123 0 -187 47q-69 51 -89 169h161q25 -74 114 -74t114 74h162z" />
    <glyph glyph-name="glyph360" 
d="M639 1663h149q-14 -88 -34 -121q-43 -72 -135 -72q-44 0 -147 36q-26 9 -43 9q-33 0 -44 -39h-149q12 85 38 124q46 69 134 69q53 0 142 -35q26 -10 47 -10q33 0 42 39z" />
    <glyph glyph-name="glyph361" 
d="M689 1365h212l-134 -314h-160z" />
    <glyph glyph-name="glyph362" 
d="M512 1830q82 1 136.5 -55.5t54.5 -138.5q0 -78 -56 -133.5t-135 -55.5q-80 0 -135.5 55.5t-55.5 136.5t55 135.5t136 55.5zM512 1721q-34 0 -58 -24t-24 -58t24 -58.5t58 -24.5t58 24t24 58q0 35 -23.5 59t-58.5 24z" />
    <glyph glyph-name="glyph363" 
d="M418 -95h212l-134 -246h-160z" />
    <glyph glyph-name="glyph364" 
d="M847 1673l-239 -205h-233l188 205h284z" />
    <glyph glyph-name="glyph365" 
d="M702 1683q124 0 124 -110q0 -112 -126 -112q-54 0 -89 29q-38 31 -38 84q0 109 129 109zM326 1683q124 0 124 -110q0 -112 -126 -112q-54 0 -89 29q-38 31 -38 84q0 109 129 109z" />
    <glyph glyph-name="glyph366" 
d="M418 -95h212l-134 -246h-160z" />
    <glyph glyph-name="glyph367" 
d="M689 1423h212l-134 -314h-160z" />
    <glyph glyph-name="glyph368" 
d="M515 1689q127 0 127 -113q0 -115 -129 -115q-55 0 -91 30q-39 32 -39 86q0 112 132 112z" />
    <glyph glyph-name="glyph369" 
d="M678 1456q124 0 124 -110q0 -112 -126 -112q-127 0 -127 112q0 110 129 110zM351 1456q124 0 124 -110q0 -112 -126 -112q-127 0 -127 112q0 110 129 110z" />
    <glyph glyph-name="glyph370" 
d="M361 1673h301l161 -205h-209l-102 103l-103 -103h-209z" />
    <glyph glyph-name="glyph371" 
d="M791 1638v-150h-558v150h558z" />
    <glyph glyph-name="glyph372" 
d="M1006 1673l-210 -205h-206l172 205h244zM630 1673l-210 -205h-205l172 205h243z" />
    <glyph glyph-name="glyph373" 
d="M418 -95h212l-134 -246h-160z" />
    <glyph glyph-name="glyph374" 
d="M662 1468h-301l-161 205h209l103 -103l102 103h209z" />
    <glyph glyph-name="glyph375" 
d="M177 1673h284l188 -205h-233z" />
    <glyph glyph-name="glyph376" 
d="M666 1235h-212l134 246h160z" />
    <glyph glyph-name="glyph377" 
d="M682 1683q124 0 124 -110q0 -112 -126 -112q-54 0 -89 29q-38 31 -38 84q0 109 129 109zM348 1683q124 0 124 -110q0 -112 -126 -112q-54 0 -89 29q-38 31 -38 84q0 109 129 109z" />
    <glyph glyph-name="glyph378" horiz-adv-x="512" 
 />
    </font>
</defs>
</svg>
