<?xml version="1.0" standalone="no"?>
<!DOCTYPE svg PUBLIC "-//W3C//DTD SVG 1.1//EN" "http://www.w3.org/Graphics/SVG/1.1/DTD/svg11.dtd" >
<svg>
<metadata>
Created by FontForge 20090914 at Thu Feb 23 16:49:17 2012
 By ffonts
Copyright 1997 by MGI Software
</metadata>
<defs>
<font id="AntigoniLight" horiz-adv-x="1024" >
  <font-face 
    font-family="Antigoni Light"
    font-weight="400"
    font-stretch="normal"
    units-per-em="2048"
    panose-1="2 11 4 6 2 2 4 2 2 4"
    ascent="1757"
    descent="-291"
    x-height="1058"
    cap-height="1365"
    bbox="-316 -512 1938 2048"
    underline-thickness="116"
    underline-position="-145"
    unicode-range="U+0020-U+F002"
  />
<missing-glyph 
d="M128 0v2048h768v-2048h-768zM256 128h512v1792h-512v-1792z" />
    <glyph glyph-name=".notdef" 
d="M128 0v2048h768v-2048h-768zM256 128h512v1792h-512v-1792z" />
    <glyph glyph-name=".null" horiz-adv-x="0" 
 />
    <glyph glyph-name="nonmarkingreturn" horiz-adv-x="512" 
 />
    <glyph glyph-name="space" unicode=" " horiz-adv-x="512" 
 />
    <glyph glyph-name="glyph4" horiz-adv-x="512" 
 />
    <glyph glyph-name="glyph5" horiz-adv-x="512" 
 />
    <glyph glyph-name="exclam" unicode="!" horiz-adv-x="369" 
d="M247 0h-138v180h138v-180zM106 1365h157l-31 -1014h-102z" />
    <glyph glyph-name="quotedbl" unicode="&#x22;" horiz-adv-x="589" 
d="M204 816h-96l-23 549h142zM480 816h-96l-23 549h142z" />
    <glyph glyph-name="numbersign" unicode="#" horiz-adv-x="1120" 
d="M1047 551l-18 -119h-228l-66 -432h-133l66 432h-293l-66 -432h-132l66 432h-232l18 119h233l43 290h-231l18 119h232l62 405h132l-62 -405h292l63 405h133l-62 -405h226l-19 -119h-225l-44 -290h227zM730 841h-293l-43 -290h293z" />
    <glyph glyph-name="dollar" unicode="$" horiz-adv-x="1092" 
d="M494 1591h100v-209q103 -11 172 -43q58 -27 149 -98v-171q-119 161 -321 186v-503q153 -43 226 -90q131 -84 131 -278q0 -169 -94.5 -275.5t-262.5 -128.5v-238h-100v238q-157 14 -308 151v166q131 -177 308 -200v546q-125 36 -179 65q-169 90 -169 292q0 179 135 292
q80 67 213 89v209zM494 1256q-94 -26 -145 -73q-80 -74 -80 -181q0 -120 97 -175q46 -26 128 -49v478zM594 98q91 17 146 62q94 77 94 207q0 119 -73 181q-47 40 -167 74v-524z" />
    <glyph glyph-name="percent" unicode="%" horiz-adv-x="1355" 
d="M309 1376q248 2 248 -333q0 -149 -51 -246q-65 -124 -201 -124q-251 0 -251 365q0 336 255 338zM307 1304q-178 0 -178 -267q0 -296 173 -296q176 0 176 294q0 269 -171 269zM992 1377l81 -45l-727 -1344l-79 41zM1053 694q248 2 248 -333q0 -188 -80 -291
q-62 -80 -172 -80q-251 0 -251 365q0 337 255 339zM1052 622q-178 0 -178 -267q0 -297 173 -297q176 0 176 294q0 270 -171 270z" />
    <glyph glyph-name="ampersand" unicode="&#x26;" horiz-adv-x="1229" 
d="M579 735l339 -408q125 172 233 495v-251q-63 -146 -175 -327l210 -244h-150l-129 164q-162 -184 -383 -184q-165 0 -284 105q-123 109 -123 272q0 132 84 235q64 78 199 159q-50 64 -77 107q-72 115 -72 233q0 135 92 216q88 79 224 79q151 0 235 -101q61 -74 61 -176
q0 -161 -142 -282q-45 -39 -142 -92zM472 675q-113 -69 -160 -127q-71 -87 -71 -187q0 -120 89 -194q83 -71 205 -71q165 0 298 144zM512 804q81 53 109 74q125 94 125 216q0 77 -51 123t-129 46q-85 0 -140 -52t-55 -137q0 -80 69 -182q17 -25 72 -88z" />
    <glyph glyph-name="quotesingle" unicode="'" horiz-adv-x="313" 
d="M204 816h-96l-23 549h142z" />
    <glyph glyph-name="parenleft" unicode="(" horiz-adv-x="547" 
d="M318 1413h109q-55 -99 -88 -175q-113 -261 -113 -646q0 -521 219 -838h-112q-230 340 -230 846q0 498 215 813z" />
    <glyph glyph-name="parenright" unicode=")" horiz-adv-x="548" 
d="M229 -246h-109q59 106 88 174q113 260 113 646q0 520 -219 839h112q231 -340 231 -846q0 -498 -216 -813z" />
    <glyph glyph-name="asterisk" unicode="*" horiz-adv-x="811" 
d="M348 1365h125l-33 -269l247 102l38 -117l-265 -53l172 -206l-102 -70l-129 237l-146 -225l-95 79l188 185l-263 68l42 117l244 -117z" />
    <glyph glyph-name="plus" unicode="+" horiz-adv-x="1092" 
d="M482 632h-389v128h389v376h128v-376h390v-128h-390v-375h-128v375z" />
    <glyph glyph-name="comma" unicode="," horiz-adv-x="492" 
d="M223 176h146l-146 -384h-114z" />
    <glyph glyph-name="hyphen" unicode="-" horiz-adv-x="651" 
d="M109 613h433v-134h-433v134z" />
    <glyph glyph-name="hyphen" unicode="&#x2010;" horiz-adv-x="651" 
d="M109 613h433v-134h-433v134z" />
    <glyph glyph-name="period" unicode="." horiz-adv-x="382" 
d="M260 0h-137v180h137v-180z" />
    <glyph glyph-name="slash" unicode="/" horiz-adv-x="1065" 
d="M856 1418l81 -43l-879 -1646l-80 43z" />
    <glyph glyph-name="zero" unicode="0" horiz-adv-x="1092" 
d="M553 1385q201 1 306 -116q148 -165 148 -548q0 -377 -147 -582q-114 -159 -315 -159q-260 0 -375 249q-85 184 -85 479q0 283 67 432q109 243 401 245zM553 1262q-345 2 -345 -552q0 -614 335 -614q100 0 179 69q162 141 162 539q0 240 -52 367q-78 190 -279 191z" />
    <glyph glyph-name="one" unicode="1" horiz-adv-x="1092" 
d="M764 1356v-1356h-130v1207l-50 -50l-413 -416v152l449 463h144z" />
    <glyph glyph-name="two" unicode="2" horiz-adv-x="1092" 
d="M264 123h679v-123h-806v129q219 204 332 323q207 217 287 361q49 88 49 180q0 118 -71.5 194t-188.5 76q-225 0 -408 -302v203q83 100 142 142q112 80 256 80q176 0 290 -102q117 -105 117 -280q0 -217 -210 -450q-156 -172 -468 -431z" />
    <glyph glyph-name="three" unicode="3" horiz-adv-x="1092" 
d="M160 1365h739v-151l-475 -410q74 12 126 12q180 0 286 -102t106 -282q0 -148 -79 -269q-119 -183 -362 -183q-178 0 -341 136v147q184 -167 350 -167q141 0 230 108q75 91 75 223q0 143 -93 220q-86 72 -232 72q-98 0 -232 -41v139l497 425h-595v123z" />
    <glyph glyph-name="four" unicode="4" horiz-adv-x="1092" 
d="M852 1365v-950h174v-116h-174v-299h-130v299h-644v182l538 884h236zM722 415v897l-551 -897h551z" />
    <glyph glyph-name="five" unicode="5" horiz-adv-x="1092" 
d="M194 1365h718v-123h-601v-432q120 50 223 50q191 0 308 -114t117 -305q0 -157 -87 -283q-123 -178 -358 -178q-111 0 -186 33q-68 31 -153 112v155q134 -184 329 -184q172 0 267 128q65 87 65 207q0 152 -101 235q-94 78 -249 78q-128 0 -292 -70v691z" />
    <glyph glyph-name="six" unicode="6" horiz-adv-x="1092" 
d="M229 604q57 121 118 170q98 78 243 78q179 0 283 -113q102 -109 102 -289q0 -130 -55 -240q-59 -120 -166 -180q-89 -50 -198 -50q-196 0 -313 153q-67 88 -93 192q-35 141 -35 313q0 393 162 597q119 150 320 150q164 0 309 -143v-157q-63 89 -123 125q-87 52 -183 52
q-223 0 -314 -249q-50 -137 -57 -409zM571 736q-139 2 -227 -85.5t-88 -226.5q0 -162 113 -257q84 -71 192 -71q138 0 225 109q73 92 73 231q0 138 -75.5 218t-212.5 82z" />
    <glyph glyph-name="seven" unicode="7" horiz-adv-x="1092" 
d="M127 1365h838v-140l-582 -1225h-141l581 1242h-696v123z" />
    <glyph glyph-name="eight" unicode="8" horiz-adv-x="1092" 
d="M717 712q116 -28 178 -81q102 -88 102 -253q0 -274 -267 -367q-89 -31 -184 -31q-230 0 -352 138q-99 112 -99 262q0 173 119 262q56 42 169 70q-93 24 -151 73q-119 101 -119 252q0 169 136 273q107 82 290 82q184 0 304 -87q136 -98 136 -275q0 -238 -262 -318z
M551 1262q-132 1 -216 -54q-99 -64 -99 -189q0 -122 97 -191q86 -62 212 -62q169 0 255 108q56 70 56 146q0 120 -96 185q-83 56 -209 57zM555 639q-141 1 -234 -58q-110 -69 -110 -203q0 -133 104 -208q92 -67 230 -67q167 0 257 93q72 75 72 177q0 134 -96 204
q-84 61 -223 62z" />
    <glyph glyph-name="nine" unicode="9" horiz-adv-x="1092" 
d="M865 777q-32 -97 -71 -149q-94 -125 -282 -125q-184 0 -291 128q-100 120 -100 307q0 304 229 407q89 40 194 40q137 0 239 -69q195 -132 195 -541q0 -418 -150 -643q-107 -161 -318 -161q-180 0 -344 156v166q73 -97 136 -138q94 -61 192 -61q149 0 244 120
q49 62 86 211q30 121 38 228q2 27 3 124zM536 1254q-142 2 -220 -93q-73 -88 -73 -232q0 -141 70 -223q74 -87 213 -87q157 0 241 109q68 88 68 208q0 142 -78 227q-81 89 -221 91z" />
    <glyph glyph-name="colon" unicode=":" horiz-adv-x="382" 
d="M260 0h-137v180h137v-180zM260 717h-137v180h137v-180z" />
    <glyph glyph-name="semicolon" unicode=";" horiz-adv-x="451" 
d="M182 176h146l-146 -384h-114zM307 717h-137v180h137v-180z" />
    <glyph glyph-name="less" unicode="&#x3c;" 
d="M955 1141v-130l-748 -336l748 -337v-130l-887 410v114z" />
    <glyph glyph-name="equal" unicode="=" horiz-adv-x="1092" 
d="M93 769v128h907v-128h-907zM93 496v128h907v-128h-907z" />
    <glyph glyph-name="greater" unicode="&#x3e;" 
d="M68 208v130l748 337l-748 337v129l887 -409v-114z" />
    <glyph glyph-name="question" unicode="?" horiz-adv-x="937" 
d="M508 3h-137v182h137v-182zM109 1016v185q62 76 115 112q107 73 250 73q188 0 287 -113q73 -83 73 -204q0 -135 -109 -254l-122 -133q-78 -85 -96 -115q-34 -56 -34 -141q0 -22 2 -64h-105l-1 93q-1 69 28 124q21 40 76 105l138 163q101 119 101 218q0 95 -71 149
q-64 49 -162 49q-152 0 -263 -112q-44 -45 -107 -135z" />
    <glyph glyph-name="at" unicode="@" horiz-adv-x="1502" 
d="M1015 1006h96l-85 -437q-13 -67 -13 -97q0 -98 83 -98q73 0 135 78q105 131 105 323q0 238 -161 381q-155 138 -396 138q-265 0 -441 -176t-176 -442q0 -279 180 -448q176 -166 457 -166q227 0 437 100l28 -86q-216 -102 -465 -102q-318 0 -523 192q-209 197 -209 513
q0 203 102.5 372t283.5 257q154 75 324 75q184 0 334 -80q160 -85 243 -240q70 -131 70 -285q0 -241 -148 -398q-83 -88 -186 -88q-137 0 -148 141q-96 -148 -255 -148q-136 0 -215 100q-72 92 -72 231q0 173 109 300q100 116 249 116q170 0 230 -165zM766 934
q-118 1 -194 -107q-65 -92 -65 -208q0 -101 48 -165q53 -72 151 -72q120 0 191 123q53 92 53 217q0 92 -45 149q-49 62 -139 63z" />
    <glyph glyph-name="A" unicode="A" horiz-adv-x="1233" 
d="M340 452l-155 -452h-134l476 1365h180l474 -1365h-130l-155 452h-556zM852 575l-236 688l-235 -688h471z" />
    <glyph glyph-name="B" unicode="B" horiz-adv-x="1106" 
d="M130 1365h423q201 0 293 -50q162 -88 162 -294q0 -151 -106 -239q-60 -50 -185 -82q128 -14 191 -56q117 -78 117 -262q0 -244 -182 -332q-103 -50 -290 -50h-423v1365zM253 1242v-492h303q146 0 222 50q107 70 107 209q0 147 -117 199q-76 34 -215 34h-300zM253 641
v-525h298q166 0 247 46q104 59 104 219q0 167 -121 225q-73 35 -228 35h-300z" />
    <glyph glyph-name="C" unicode="C" horiz-adv-x="1109" 
d="M1024 1195v-195q-80 117 -159 177q-113 86 -246 86q-178 0 -285 -119q-56 -62 -86 -150q-46 -134 -46 -285q0 -277 109 -452q45 -72 125 -116.5t165 -44.5q233 0 423 281v-172q-172 -225 -429 -225q-126 0 -238 64q-156 89 -228 301q-54 159 -54 362q0 296 119 472
q139 207 422 207q132 0 226 -47q82 -41 182 -144z" />
    <glyph glyph-name="D" unicode="D" horiz-adv-x="1191" 
d="M130 1365h354q171 0 265 -23q199 -49 297 -260q70 -151 70 -359q0 -296 -132 -488q-93 -136 -232 -190q-115 -45 -300 -45h-322v1365zM253 1242v-1126h205q140 0 209 19q172 47 257 233q69 151 69 352q0 310 -166 438q-71 55 -157 72q-60 12 -175 12h-242z" />
    <glyph glyph-name="E" unicode="E" horiz-adv-x="1058" 
d="M130 1365h806v-123h-683v-480h683v-123h-683v-523h683v-116h-806v1365z" />
    <glyph glyph-name="F" unicode="F" horiz-adv-x="1021" 
d="M130 1365h803v-123h-680v-501h680v-123h-680v-618h-123v1365z" />
    <glyph glyph-name="G" unicode="G" horiz-adv-x="1125" 
d="M1036 683v-517q-61 -61 -128 -107q-125 -86 -297 -86q-231 0 -365 157q-171 201 -171 570q0 498 321 642q96 43 211 43q230 0 406 -178v-149q-90 101 -169 143q-115 61 -240 61q-134 0 -235 -80q-171 -135 -171 -489q0 -246 91 -406q113 -198 339 -198q144 0 285 103v491
h123z" />
    <glyph glyph-name="H" unicode="H" horiz-adv-x="1181" 
d="M253 754h676v611h123v-1365h-123v638h-676v-638h-123v1365h123v-611z" />
    <glyph glyph-name="I" unicode="I" horiz-adv-x="382" 
d="M130 1365h123v-1365h-123v1365z" />
    <glyph glyph-name="J" unicode="J" horiz-adv-x="834" 
d="M581 1365h123v-928q0 -210 -53 -302q-89 -155 -309 -155q-90 0 -156 29q-53 23 -133 88v145q131 -146 291 -146q145 0 204 110q27 50 32 112q1 13 1 119v928z" />
    <glyph glyph-name="K" unicode="K" horiz-adv-x="1078" 
d="M130 1365h132l-9 -654q24 29 70 80l516 574h169l-616 -670l639 -695h-175l-547 609l-56 60v-669h-123v1365z" />
    <glyph glyph-name="L" unicode="L" horiz-adv-x="901" 
d="M253 116h587v-116h-710v1365h123v-1249z" />
    <glyph glyph-name="M" unicode="M" horiz-adv-x="1480" 
d="M1351 1365v-1365h-124l11 1218l-15 -49l-13 -39l-389 -1130h-157l-393 1142q-4 11 -28 93v-141l12 -1094h-125v1365h195l396 -1173l26 -76q2 14 14 49l400 1200h190z" />
    <glyph glyph-name="N" unicode="N" horiz-adv-x="1222" 
d="M1093 1365v-1365h-152l-698 1262v-92l9 -1170h-122v1365h187l625 -1132q32 -58 43 -84v84l-17 1132h125z" />
    <glyph glyph-name="O" unicode="O" horiz-adv-x="1223" 
d="M607 1385q286 2 425 -214q116 -180 116 -482q0 -272 -102 -449q-150 -260 -439 -260q-207 0 -344 142q-189 196 -189 574q0 294 116 473q138 214 417 216zM613 1262q-134 1 -239 -77q-177 -132 -177 -485q0 -290 125 -458q108 -146 288 -146q122 0 224 78
q191 146 191 516q0 569 -412 572z" />
    <glyph glyph-name="P" unicode="P" horiz-adv-x="1069" 
d="M130 1365h388q191 0 284 -49q213 -112 213 -373q0 -184 -116 -308q-130 -138 -416 -138h-230v-497h-123v1365zM253 1234v-621h231q270 0 364 167q41 73 41 157q0 155 -117 240q-79 57 -255 57h-264z" />
    <glyph glyph-name="Q" unicode="Q" horiz-adv-x="1226" 
d="M921 99l219 -190h-166l-135 133q-122 -62 -241 -62q-122 0 -235 59q-288 151 -288 651q0 306 115 483q137 212 428 212q223 0 361 -146q172 -182 172 -518q0 -266 -101 -459q-39 -74 -129 -163zM840 171q188 176 188 542q0 237 -85 377q-105 172 -328 172
q-127 0 -230 -68q-187 -123 -187 -511q0 -239 82 -395q105 -199 322 -199q74 0 159 36l-310 257h160z" />
    <glyph glyph-name="R" unicode="R" horiz-adv-x="1044" 
d="M130 1365h417q205 0 295 -55q157 -96 157 -311q0 -331 -372 -368q-60 -6 -186 -6l563 -625h-161l-548 618q-19 22 -42 52v-670h-123v1365zM253 1242v-518h290q333 0 333 268q0 140 -90 204q-64 46 -231 46h-302z" />
    <glyph glyph-name="S" unicode="S" horiz-adv-x="973" 
d="M856 1242v-172q-72 87 -140 127q-111 65 -223 65q-124 0 -210 -87q-71 -71 -71 -172q0 -119 101 -178q57 -33 209 -68q180 -41 264 -114q106 -92 106 -257q0 -192 -133 -308q-112 -98 -284 -98q-180 0 -349 154v167q73 -94 133 -135q102 -70 224 -70q142 0 223 91
q68 76 68 182q0 111 -74 180q-55 52 -204 83q-193 41 -284 107q-123 90 -123 262q0 179 130 288q115 96 279 96q183 0 358 -143z" />
    <glyph glyph-name="T" unicode="T" horiz-adv-x="1136" 
d="M75 1365h986v-130h-430v-1235h-123v1235h-433v130z" />
    <glyph glyph-name="U" unicode="U" horiz-adv-x="1184" 
d="M130 1365h123v-848q0 -197 49 -280q84 -142 291 -142q140 0 228 70q94 74 108 210q2 19 2 165v825h123v-825q0 -178 -18 -251q-77 -310 -449 -310q-264 0 -377 168q-54 80 -70 177q-10 60 -10 193v848z" />
    <glyph glyph-name="V" unicode="V" horiz-adv-x="1136" 
d="M1091 1365l-432 -1365h-169l-446 1365h139l357 -1116q13 -39 38 -121l38 129l340 1108h135z" />
    <glyph glyph-name="W" unicode="W" horiz-adv-x="1686" 
d="M1642 1365l-375 -1365h-179l-237 1178q-2 11 -11 64q-5 -24 -7 -36l-12 -60l-237 -1146h-172l-368 1365h135l296 -1147q9 -33 22 -93q6 42 17 93l244 1147h175l229 -1135q14 -69 21 -114q14 66 26 114l294 1135h139z" />
    <glyph glyph-name="X" unicode="X" horiz-adv-x="1111" 
d="M1051 1365l-416 -685l432 -680h-156l-326 544q-12 20 -27 53l-32 -53l-329 -544h-153l434 689l-424 676h151l333 -546q16 -27 20 -35q13 19 36 59l301 522h156z" />
    <glyph glyph-name="Y" unicode="Y" horiz-adv-x="1106" 
d="M1062 1365l-449 -880v-485h-127v485l-442 880h143l337 -692q11 -22 26 -56q4 14 25 56l341 692h146z" />
    <glyph glyph-name="Z" unicode="Z" horiz-adv-x="998" 
d="M97 1365h813v-164l-695 -1085h695v-116h-821v156l690 1086h-682v123z" />
    <glyph glyph-name="bracketleft" unicode="[" horiz-adv-x="490" 
d="M113 1413h272v-89h-156v-1488h156v-94h-272v1671z" />
    <glyph glyph-name="backslash" unicode="\" horiz-adv-x="1065" 
d="M209 1418l877 -1646l-79 -43l-880 1646z" />
    <glyph glyph-name="bracketright" unicode="]" horiz-adv-x="491" 
d="M378 1413v-1671h-273v94h157v1488h-157v89h273z" />
    <glyph glyph-name="asciicircum" unicode="^" 
d="M201 758h-142l368 610h171l368 -610h-144l-311 507z" />
    <glyph glyph-name="underscore" unicode="_" 
d="M0 -145h1024v-116h-1024v116z" />
    <glyph glyph-name="grave" unicode="`" 
d="M318 1391h153l117 -199h-112z" />
    <glyph glyph-name="a" unicode="a" horiz-adv-x="949" 
d="M826 0h-116v31l6 142q-129 -191 -333 -191q-117 0 -200 75q-94 84 -94 213q0 226 311 295q201 45 248 85q54 46 54 123q0 88 -65 136q-58 44 -149 44q-215 0 -362 -205v151q73 74 129 108q113 69 242 69q135 0 220 -69q89 -72 104 -204q5 -44 5 -169v-634zM716 589
q-45 -55 -126 -85q-36 -13 -151 -40q-223 -52 -223 -195q0 -80 58 -127q53 -44 135 -44q156 0 241 120q47 66 60 179q6 52 6 192z" />
    <glyph glyph-name="b" unicode="b" horiz-adv-x="1059" 
d="M123 0v1413h140l-15 -566q128 229 341 229q265 0 355 -282q34 -107 34 -242q0 -274 -138 -439q-109 -131 -283 -131q-130 0 -219 80q-48 43 -108 145q1 -20 3 -76l7 -131h-117zM566 946q-139 2 -236 -104q-54 -59 -76 -166q-18 -87 -18 -164q0 -177 66 -284
q80 -130 246 -130q310 0 310 441q0 402 -292 407z" />
    <glyph glyph-name="c" unicode="c" horiz-adv-x="929" 
d="M825 940v-185q-51 92 -111 134q-90 64 -194 64q-167 0 -249 -131q-69 -109 -69 -285q0 -183 69 -298q84 -141 256 -141q106 0 181 57q60 46 122 149v-162q-130 -160 -326 -160q-177 0 -284 124q-138 159 -138 435q0 231 96 371q111 164 332 164q186 0 315 -136z" />
    <glyph glyph-name="d" unicode="d" horiz-adv-x="1072" 
d="M949 1413v-1413h-116v48q0 11 3 55q2 29 4 101q-73 -121 -141 -165q-88 -57 -205 -57q-307 0 -390 353q-22 93 -22 189q0 179 72 332q104 220 350 220q187 0 320 -181q-2 50 -5 143l-11 375h141zM520 953q-172 3 -253 -138q-65 -112 -65 -297q0 -178 67 -287
q82 -133 250 -133q169 0 250 136q66 110 66 291q0 423 -315 428z" />
    <glyph glyph-name="e" unicode="e" horiz-adv-x="1016" 
d="M932 494h-725q4 -130 37 -217q68 -179 304 -179q117 0 197 52q67 44 143 150v-163q-64 -72 -120 -102q-99 -53 -237 -53q-449 0 -449 536q0 242 96 386q113 170 343 170q212 0 319 -151q94 -131 94 -351q0 -32 -2 -78zM824 603q-9 104 -30 162q-31 86 -111 134
q-74 45 -169 45q-287 0 -306 -341h616z" />
    <glyph glyph-name="f" unicode="f" horiz-adv-x="818" 
d="M348 923h422v-128h-422v-795h-131v795h-162v128h162q0 97 2 134q19 350 324 350q106 0 227 -74v-153q-91 97 -212 97q-141 0 -186 -101q-24 -54 -24 -204v-49z" />
    <glyph glyph-name="g" unicode="g" horiz-adv-x="1073" 
d="M950 1058v-811q0 -174 -17 -232q-39 -134 -161 -203q-107 -61 -257 -61q-209 0 -359 126v140q71 -75 143 -107q97 -43 221 -43q223 0 286 157q23 58 26 143q1 41 3 146q-45 -91 -102 -137q-95 -76 -244 -76q-310 0 -386 296q-21 82 -21 176q0 330 202 448q96 56 224 56
q220 0 327 -182l-10 164h125zM522 960q-164 3 -247 -111q-73 -100 -73 -270q0 -363 304 -363q163 0 246 115q74 101 74 270q0 353 -304 359z" />
    <glyph glyph-name="h" unicode="h" horiz-adv-x="1058" 
d="M123 0v1413h130v-449q0 -12 -2 -70l-1 -29q61 95 115 138q101 80 233 80q183 0 274 -149q43 -71 56 -158q7 -47 7 -170v-606h-131v606q0 121 -1 132q-19 215 -244 215q-153 0 -240 -112q-65 -84 -65 -242v-599h-131z" />
    <glyph glyph-name="i" unicode="i" horiz-adv-x="378" 
d="M255 1238h-131v183h131v-183zM123 0v1058h132v-1058h-132z" />
    <glyph glyph-name="j" unicode="j" horiz-adv-x="543" 
d="M421 1233h-131v183h131v-183zM421 1058v-932q0 -173 -42 -253q-61 -116 -236 -116q-75 0 -163 34v120q84 -47 160 -47q101 0 131 73q18 44 18 189v932h132z" />
    <glyph glyph-name="k" unicode="k" horiz-adv-x="905" 
d="M123 0v1413h143l-21 -870l441 515h162l-471 -515l494 -543h-170l-456 526v-526h-122z" />
    <glyph glyph-name="l" unicode="l" horiz-adv-x="377" 
d="M123 0v1413h131v-1413h-131z" />
    <glyph glyph-name="m" unicode="m" horiz-adv-x="1622" 
d="M123 0v1058h128l-9 -116q-5 -69 -11 -118q46 110 106 167q90 85 218 85q149 0 233 -103q41 -50 67 -149q27 88 86 148q103 104 239 104q153 0 242 -108q52 -63 68 -155q9 -51 9 -172v-641h-131v669q0 107 -33 180q-44 97 -173 97q-169 0 -242 -152q-42 -88 -42 -330v-464
h-131l1 661q0 120 -36 193q-45 92 -181 92q-181 0 -247 -182q-30 -82 -30 -321v-443h-131z" />
    <glyph glyph-name="n" unicode="n" horiz-adv-x="1055" 
d="M123 0v1058h128v-133q0 -19 -2 -55.5t-2 -55.5q23 103 83 161q104 101 265 101q187 0 275 -135q63 -97 63 -326v-615h-131v615q0 176 -35 239q-55 99 -198 99q-95 0 -173 -51q-81 -52 -114 -139q-31 -81 -31 -225v-538h-128z" />
    <glyph glyph-name="o" unicode="o" horiz-adv-x="1078" 
d="M530 1076q468 3 468 -516q0 -291 -145 -454q-110 -124 -309 -124q-202 0 -316 118q-146 151 -146 443q0 289 144 428q107 104 304 105zM543 953q-341 0 -341 -422q0 -433 338 -433t338 456q0 399 -335 399z" />
    <glyph glyph-name="p" unicode="p" horiz-adv-x="1076" 
d="M123 -258v1316h132l-8 -94q-1 -14 -3 -54l-2 -31q59 90 96 121q89 76 230 76q173 0 281 -113q145 -152 145 -439q0 -296 -151 -442q-103 -100 -257 -100q-212 0 -336 222l2 -41l-2 -44l1 -51l4 -326h-132zM554 953q-166 2 -245 -123q-66 -103 -66 -278q0 -272 132 -384
q83 -70 193 -70q306 0 306 416q0 436 -320 439z" />
    <glyph glyph-name="q" unicode="q" horiz-adv-x="1072" 
d="M949 1058v-1319h-132l11 459q-42 -91 -107 -139q-105 -77 -228 -77q-162 0 -268 122q-143 164 -143 441q0 222 88 363q105 168 313 168q142 0 239 -87q60 -53 113 -172l-4 45q-2 24 -6 80l-8 116h132zM495 953q-293 4 -293 -422q0 -241 105 -347q86 -86 210 -86
q149 0 240 115q75 95 75 282q0 252 -111 364q-92 92 -226 94z" />
    <glyph glyph-name="r" unicode="r" horiz-adv-x="748" 
d="M123 0v1058h139l-17 -255q38 137 94 196q73 77 191 77q109 0 184 -84v-128q-87 89 -190 89q-183 0 -244 -205q-27 -91 -28 -299q1 133 2 140q1 -63 1 -438v-151h-132z" />
    <glyph glyph-name="s" unicode="s" horiz-adv-x="826" 
d="M714 955v-159q-55 66 -101 97q-89 60 -193 60q-120 0 -179 -74q-42 -52 -42 -115q0 -122 161 -154q117 -23 148 -32q241 -67 241 -277q0 -152 -103 -238q-96 -81 -251 -81q-188 0 -290 134v138q65 -76 116 -107q81 -49 179 -49q123 0 183 68q46 52 46 119q0 120 -119 162
q-37 13 -139 33q-292 57 -292 285q0 150 101 233q93 78 246 78q158 0 288 -121z" />
    <glyph glyph-name="t" unicode="t" horiz-adv-x="801" 
d="M355 1047h377v-128h-394q0 -309 -3 -464l-2 -103q-5 -254 159 -254q111 0 218 127v-138q-107 -105 -227 -105q-90 0 -159 44q-74 47 -98 130q-21 72 -21 239q0 65 3 194t3 194q0 35 -3 136h-164v87q106 15 154 72q65 77 107 276h70z" />
    <glyph glyph-name="u" unicode="u" horiz-adv-x="1064" 
d="M941 1058v-1058h-126l17 235q-41 -109 -109 -166q-104 -87 -247 -87q-111 0 -201 55q-112 69 -140 217q-12 63 -12 242v562h131v-562q0 -214 28 -283q47 -115 209 -115q188 0 266 152q40 78 50 190q3 34 3 199v419h131z" />
    <glyph glyph-name="v" unicode="v" horiz-adv-x="1003" 
d="M956 1058l-354 -1058h-177l-377 1058h151l302 -924q3 -10 13 -41q8 31 20 69l281 896h141z" />
    <glyph glyph-name="w" unicode="w" horiz-adv-x="1417" 
d="M1370 1058l-285 -1058h-169l-181 810q0 -8 -29 121l-8 -38q-4 -21 -17 -83l-174 -810h-165l-294 1058h138l214 -858q3 -12 21 -91q1 4 19 94l12 59l173 796h172l185 -853l19 -89l11 52q10 49 22 94l206 796h130z" />
    <glyph glyph-name="x" unicode="x" horiz-adv-x="972" 
d="M908 1058l-342 -527l358 -531h-164l-259 416q-4 6 -18 35q-12 -32 -28 -57l-253 -394h-154l362 531l-338 527h164l221 -373q24 -41 37 -71l36 69l223 375h155z" />
    <glyph glyph-name="y" unicode="y" horiz-adv-x="997" 
d="M950 1058l-466 -1322h-139l111 316l-408 1006h150l301 -818q16 -45 24 -75q1 4 35 111l250 782h142z" />
    <glyph glyph-name="z" unicode="z" horiz-adv-x="872" 
d="M115 1064h672v-128l-575 -808h575v-128h-702v150l561 786h-531v128z" />
    <glyph glyph-name="braceleft" unicode="{" horiz-adv-x="627" 
d="M208 576q126 -61 126 -225v-325q0 -131 56 -161q49 -26 139 -26v-97h-33q-148 0 -211.5 68t-63.5 218v321q0 151 -117 183v96q117 32 117 175v347q0 263 276 263q14 0 32 -1v-96q-108 -2 -149 -36q-46 -39 -46 -144v-339q0 -87 -24 -133q-28 -53 -102 -88z" />
    <glyph glyph-name="bar" unicode="|" 
d="M447 1365h130v-1706h-130v1706z" />
    <glyph glyph-name="braceright" unicode="}" horiz-adv-x="627" 
d="M418 579q-126 61 -126 225v325q0 131 -56 161q-49 26 -139 26v97h33q149 0 212 -68t63 -218v-321q0 -151 117 -183v-96q-117 -32 -117 -175v-347q0 -263 -276 -263q-8 0 -32 1v96q108 3 149 37q46 39 46 144v339q0 87 24 133q28 52 102 87z" />
    <glyph glyph-name="asciitilde" unicode="~" horiz-adv-x="1365" 
d="M270 1200l-79 51q40 79 75 124q80 103 201 103q78 0 232 -72q143 -67 202 -67q105 0 192 143l80 -47q-51 -103 -105 -151q-81 -72 -183 -72q-67 0 -284 99q-88 40 -143 40q-104 0 -188 -151z" />
    <glyph glyph-name="exclamdown" unicode="&#xa1;" horiz-adv-x="367" 
d="M123 896v180h137v-180h-137zM262 -258h-156l31 1014h101z" />
    <glyph glyph-name="cent" unicode="&#xa2;" horiz-adv-x="1092" 
d="M634 1432v-209q162 -9 275 -127v-190q-90 170 -275 190v-840q173 24 275 197v-161q-105 -141 -275 -155v-238h-96v238q-115 14 -191 78q-183 153 -183 474q0 486 374 534v209h96zM538 1096q-192 -54 -237 -239q-21 -86 -21 -162q0 -262 122 -372q48 -43 136 -67v840z" />
    <glyph glyph-name="sterling" unicode="&#xa3;" horiz-adv-x="1092" 
d="M407 744h438v-97h-402q23 -92 23 -155q0 -118 -85 -297q17 1 26 1q57 0 195 -53q78 -30 132 -30q106 0 221 82v-126q-124 -72 -218 -72q-64 0 -188.5 42t-187.5 42q-85 0 -215 -91v122q62 46 124 70q80 186 80 282q0 67 -40 183h-176v97h136q-70 153 -70 258
q0 147 101 258q126 139 332 139q128 0 322 -88v-141q-157 114 -302 114q-131 0 -220 -72q-96 -77 -96 -205q0 -107 70 -263z" />
    <glyph glyph-name="currency" unicode="&#xa4;" horiz-adv-x="1365" 
d="M125 247l190 190q-107 134 -107 295q0 151 104 289l-192 192l74 74l192 -191q143 108 298 108t294 -106l191 189l74 -74l-190 -190q105 -142 105 -293q0 -150 -105 -290l193 -193l-74 -74l-193 192q-134 -107 -294 -107q-150 0 -296 104l-190 -189zM688 1088
q-151 2 -255.5 -101.5t-104.5 -255.5q0 -150 102.5 -253t252.5 -103t252.5 102.5t102.5 252.5t-100 253t-250 105z" />
    <glyph glyph-name="yen" unicode="&#xa5;" horiz-adv-x="1092" 
d="M607 326v-326h-127v326h-289v97h289v62l-33 73h-256v97h211l-323 710h143l322 -749l325 749h145l-328 -710h216v-97h-261l-34 -73v-62h295v-97h-295z" />
    <glyph glyph-name="brokenbar" unicode="&#xa6;" 
d="M447 1365h130v-677h-130v677zM447 314h130v-655h-130v655z" />
    <glyph glyph-name="section" unicode="&#xa7;" horiz-adv-x="1090" 
d="M858 1258v-170q-71 95 -130 139q-89 66 -200 66q-84 0 -137 -45q-57 -48 -57 -130q0 -83 102 -140q40 -22 175 -67q293 -97 293 -313q0 -105 -55 -177q-41 -54 -145 -123q170 -104 170 -252q0 -142 -112 -234q-93 -77 -230 -77q-159 0 -343 150v177q139 -208 340 -208
q86 0 147 52q66 55 66 139q0 81 -89 136q-42 26 -184 77q-102 37 -152 66q-131 77 -131 225q0 142 93 223q8 7 111 84q-68 35 -101 62q-85 69 -85 190q0 141 109 233q93 79 220 79q177 0 325 -162zM486 824q-181 -105 -181 -251q0 -133 196 -203l101 -36q189 93 189 246
q0 105 -90 160q-31 19 -136 56z" />
    <glyph glyph-name="dieresis" unicode="&#xa8;" 
d="M313 1371h134v-169h-134v169zM578 1371h134v-169h-134v169z" />
    <glyph glyph-name="copyright" unicode="&#xa9;" horiz-adv-x="1598" 
d="M809 1390q195 0 364 -106q166 -104 255 -280q77 -152 77 -322q0 -201 -102.5 -369.5t-281.5 -259.5q-152 -78 -321 -78q-200 0 -368.5 103.5t-260.5 282.5q-78 152 -78 320q0 204 103 372t284 260q151 77 329 77zM808 1317q-269 3 -452 -182t-183 -454q0 -180 91.5 -331
t251.5 -233q135 -69 283 -69q179 0 328.5 93t229.5 254q68 136 68 287q0 181 -90.5 331.5t-250.5 234.5q-129 68 -276 69zM1064 988v-139q-124 169 -262 169q-256 0 -256 -321q0 -141 51 -235q64 -119 193 -119q120 0 222 114q18 21 52 66v-125q-111 -137 -277 -137
q-140 0 -226 94q-109 119 -109 341q0 183 81 289q90 119 267 119q146 0 264 -116z" />
    <glyph glyph-name="ordfeminine" unicode="&#xaa;" horiz-adv-x="482" 
d="M428 806h-73v23q0 -9 2 49q-73 -80 -161 -80q-68 0 -112.5 43t-44.5 110q0 119 164 155q76 17 96 26q52 24 52 73q0 84 -101 84q-108 0 -192 -118v101q91 93 195 93q106 0 149 -71q26 -43 26 -159v-329zM358 1094q-38 -30 -132 -52q-108 -25 -108 -92q0 -80 91 -80
q104 0 136 96q12 36 13 128zM468 692v-82h-470v82h470z" />
    <glyph glyph-name="guillemotleft" unicode="&#xab;" horiz-adv-x="839" 
d="M321 887h123l-205 -343l205 -339h-123l-219 339zM613 887h123l-208 -343l208 -339h-123l-222 339z" />
    <glyph glyph-name="logicalnot" unicode="&#xac;" 
d="M825 0v429h-757v117h887v-546h-130z" />
    <glyph glyph-name="registered" unicode="&#xae;" horiz-adv-x="1598" 
d="M809 1390q195 0 364 -106q166 -104 255 -280q77 -152 77 -322q0 -201 -102.5 -369.5t-281.5 -259.5q-152 -78 -321 -78q-200 0 -368.5 103.5t-260.5 282.5q-78 152 -78 320q0 204 103 372t284 260q151 77 329 77zM808 1317q-269 3 -452 -182t-183 -454q0 -180 91.5 -331
t251.5 -233q135 -69 283 -69q179 0 328.5 93t229.5 254q68 136 68 287q0 181 -90.5 331.5t-250.5 234.5q-129 68 -276 69zM539 1092h270q157 0 218 -54q73 -65 73 -168q0 -121 -95 -183q-68 -44 -248 -45l355 -369h-120l-362 383v-383h-91v819zM630 1006v-292h176
q203 0 203 151q0 79 -54 115q-39 26 -141 26h-184z" />
    <glyph glyph-name="overscore" unicode="&#xaf;" 
d="M0 1756h1024v-117h-1024v117z" />
    <glyph glyph-name="degree" unicode="&#xb0;" horiz-adv-x="1092" 
d="M551 1385q140 0 238 -108q84 -93 84 -219q0 -147 -108 -244q-93 -84 -219 -84q-147 0 -244 108q-84 93 -84 222q0 141 109 241q91 84 224 84zM549 1289q-98 1 -166.5 -65.5t-68.5 -164.5t67 -165.5t165 -67.5q102 0 172 77q59 65 59 155q0 101 -77 171q-65 59 -151 60z
" />
    <glyph glyph-name="plusminus" unicode="&#xb1;" horiz-adv-x="1092" 
d="M482 632h-389v128h389v376h128v-376h390v-128h-390v-375h-128v375zM93 18v128h907v-128h-907z" />
    <glyph glyph-name="twosuperior" unicode="&#xb2;" horiz-adv-x="732" 
d="M205 632h421v-86h-528v86q322 279 397 403q30 50 30 103q0 70 -44.5 111.5t-115.5 41.5q-143 0 -267 -194v145q121 135 260 135q112 0 186 -59q81 -64 81 -173q0 -134 -156 -293q-72 -73 -264 -220z" />
    <glyph glyph-name="threesuperior" unicode="&#xb3;" horiz-adv-x="733" 
d="M113 1365h486v-99l-287 -228q31 4 57 4q115 0 184 -59q74 -62 74 -175q0 -145 -115 -225q-71 -49 -173 -49q-117 0 -226 84v105q127 -107 231 -107q80 0 133.5 54t53.5 135q0 83 -60 127q-53 39 -139 39q-63 0 -156 -27v94l304 241h-367v86z" />
    <glyph glyph-name="acute" unicode="&#xb4;" 
d="M706 1391l-158 -199h-112l117 199h153z" />
    <glyph glyph-name="paragraph" unicode="&#xb6;" horiz-adv-x="1092" 
d="M466 -204v846q-21 -1 -32 -1q-233 0 -331 178q-45 82 -45 180q0 215 172 311q98 55 276 55h528v-103h-119v-1466h-113v1466h-222v-1466h-114z" />
    <glyph glyph-name="middot" unicode="&#xb7;" horiz-adv-x="382" 
d="M260 454h-137v182h137v-182z" />
    <glyph glyph-name="cedilla" unicode="&#xb8;" 
d="M483 -95h138l-97 -228h-108z" />
    <glyph glyph-name="onesuperior" unicode="&#xb9;" horiz-adv-x="733" 
d="M514 1360v-814h-98v704q-4 -3 -21 -19l-276 -256v107l292 278h103z" />
    <glyph glyph-name="ordmasculine" unicode="&#xba;" horiz-adv-x="549" 
d="M270 1365q245 2 245 -268q0 -129 -53 -208q-62 -92 -185 -92q-124 0 -187 87q-55 75 -55 204q0 276 235 277zM277 1288q-167 1 -167 -207q0 -212 165 -212q166 0 166 224q0 194 -164 195zM510 692v-82h-471v82h471z" />
    <glyph glyph-name="guillemotright" unicode="&#xbb;" horiz-adv-x="839" 
d="M517 205h-123l205 343l-205 339h123l219 -339zM225 205h-123l208 343l-208 339h123l222 -339z" />
    <glyph glyph-name="onequarter" unicode="&#xbc;" horiz-adv-x="1614" 
d="M513 1360v-814h-98v704q-6 -5 -21 -19l-275 -256v107l291 278h103zM1118 1343l79 -44l-703 -1299l-76 40zM1450 819v-560h111v-83h-111v-176h-97v176h-412v117l347 526h162zM1353 259v500l-333 -500h333z" />
    <glyph glyph-name="onehalf" unicode="&#xbd;" horiz-adv-x="1613" 
d="M513 1360v-814h-98v704q-6 -5 -21 -19l-275 -256v107l291 278h103zM1118 1343l79 -44l-703 -1299l-76 40zM1086 86h421v-86h-528v86q319 277 396 403q31 51 31 104q0 70 -44.5 111.5t-115.5 41.5q-142 0 -267 -195v145q122 136 260 136q112 0 186 -59q81 -64 81 -173
q0 -136 -155 -294q-71 -72 -265 -220z" />
    <glyph glyph-name="threequarters" unicode="&#xbe;" horiz-adv-x="1614" 
d="M113 1365h486v-99l-287 -228q27 4 57 4q115 0 184 -59q74 -62 74 -175q0 -145 -115 -225q-71 -49 -173 -49q-117 0 -226 84v105q127 -107 231 -107q80 0 133.5 54t53.5 135q0 83 -60 127q-53 39 -139 39q-65 0 -156 -27v94l304 241h-367v86zM1118 1343l79 -44l-703 -1299
l-76 40zM1450 819v-560h111v-83h-111v-176h-97v176h-412v117l347 526h162zM1353 259v500l-333 -500h333z" />
    <glyph glyph-name="questiondown" unicode="&#xbf;" horiz-adv-x="936" 
d="M428 1076h137v-180h-137v180zM827 95v-186q-64 -77 -115 -112q-106 -73 -250 -73q-187 0 -287 114q-73 83 -73 204q0 136 109 255l122 133q78 85 96 115q34 56 34 141q0 22 -2 64h105l1 -93q1 -69 -28 -125q-20 -39 -76 -105l-138 -163q-101 -119 -101 -219
q0 -95 71 -149q64 -49 162 -49q155 0 263 112q45 47 107 136z" />
    <glyph glyph-name="Agrave" unicode="&#xc0;" horiz-adv-x="1233" 
d="M340 452l-155 -452h-134l476 1365h180l474 -1365h-130l-155 452h-556zM852 575l-236 688l-235 -688h471zM392 1644h173l119 -169h-119z" />
    <glyph glyph-name="Aacute" unicode="&#xc1;" horiz-adv-x="1233" 
d="M340 452l-155 -452h-134l476 1365h180l474 -1365h-130l-155 452h-556zM852 575l-236 688l-235 -688h471zM841 1644l-173 -169h-119l119 169h173z" />
    <glyph glyph-name="Acircumflex" unicode="&#xc2;" horiz-adv-x="1233" 
d="M340 452l-155 -452h-134l476 1365h180l474 -1365h-130l-155 452h-556zM852 575l-236 688l-235 -688h471zM529 1644h175l162 -169h-132l-118 117l-117 -117h-132z" />
    <glyph glyph-name="Atilde" unicode="&#xc3;" horiz-adv-x="1233" 
d="M340 452l-155 -452h-134l476 1365h180l474 -1365h-130l-155 452h-556zM852 575l-236 688l-235 -688h471zM776 1628h98q-19 -101 -88 -132q-31 -14 -60 -14q-31 0 -147 45q-31 12 -55 12q-43 0 -55 -51h-98q36 145 151 145q42 0 131 -36q44 -18 71 -18q39 0 52 49z" />
    <glyph glyph-name="Adieresis" unicode="&#xc4;" horiz-adv-x="1233" 
d="M340 452l-155 -452h-134l476 1365h180l474 -1365h-130l-155 452h-556zM852 575l-236 688l-235 -688h471zM413 1644h134v-169h-134v169zM685 1644h134v-169h-134v169z" />
    <glyph glyph-name="Aring" unicode="&#xc5;" horiz-adv-x="1233" 
d="M340 452l-155 -452h-134l476 1365h180l474 -1365h-130l-155 452h-556zM852 575l-236 688l-235 -688h471zM619 1748q61 0 104 -44t43 -106q0 -63 -43.5 -107t-106.5 -44t-106.5 44.5t-43.5 107.5q0 64 44 106.5t109 42.5zM617 1680q-34 0 -58.5 -24t-24.5 -58t24 -58.5
t58 -24.5t58 24t24 58t-23.5 58.5t-57.5 24.5z" />
    <glyph glyph-name="AE" unicode="&#xc6;" horiz-adv-x="1892" 
d="M862 1365h907v-123h-673v-482h673v-116h-673v-528h673v-116h-804v519h-468l-314 -519h-142zM965 635v663l-402 -663h402z" />
    <glyph glyph-name="Ccedilla" unicode="&#xc7;" horiz-adv-x="1109" 
d="M1024 1195v-195q-80 117 -159 177q-113 86 -246 86q-178 0 -285 -119q-56 -62 -86 -150q-46 -134 -46 -285q0 -277 109 -452q45 -72 125 -116.5t165 -44.5q233 0 423 281v-172q-172 -225 -429 -225q-126 0 -238 64q-156 89 -228 301q-54 159 -54 362q0 296 119 472
q139 207 422 207q132 0 226 -47q82 -41 182 -144zM541 -102h138l-97 -228h-108z" />
    <glyph glyph-name="Egrave" unicode="&#xc8;" horiz-adv-x="1058" 
d="M130 1365h806v-123h-683v-480h683v-123h-683v-523h683v-116h-806v1365zM332 1644h173l119 -169h-119z" />
    <glyph glyph-name="Eacute" unicode="&#xc9;" horiz-adv-x="1058" 
d="M130 1365h806v-123h-683v-480h683v-123h-683v-523h683v-116h-806v1365zM741 1644l-173 -169h-119l119 169h173z" />
    <glyph glyph-name="Ecircumflex" unicode="&#xca;" horiz-adv-x="1058" 
d="M130 1365h806v-123h-683v-480h683v-123h-683v-523h683v-116h-806v1365zM445 1644h175l162 -169h-132l-118 117l-117 -117h-132z" />
    <glyph glyph-name="Edieresis" unicode="&#xcb;" horiz-adv-x="1058" 
d="M130 1365h806v-123h-683v-480h683v-123h-683v-523h683v-116h-806v1365zM330 1644h134v-169h-134v169zM602 1644h134v-169h-134v169z" />
    <glyph glyph-name="Igrave" unicode="&#xcc;" horiz-adv-x="382" 
d="M129 1365h123v-1365h-123v1365zM-14 1644h167l105 -169h-119z" />
    <glyph glyph-name="Iacute" unicode="&#xcd;" horiz-adv-x="382" 
d="M130 1365h123v-1365h-123v1365zM396 1644l-153 -169h-119l105 169h167z" />
    <glyph glyph-name="Icircumflex" unicode="&#xce;" horiz-adv-x="382" 
d="M130 1365h123v-1365h-123v1365zM103 1644h176l134 -169h-125l-97 117l-97 -117h-125z" />
    <glyph glyph-name="Idieresis" unicode="&#xcf;" horiz-adv-x="382" 
d="M130 1365h123v-1365h-123v1365zM19 1641h131v-164h-131v164zM232 1641h131v-164h-131v164z" />
    <glyph glyph-name="Eth" unicode="&#xd0;" horiz-adv-x="1191" 
d="M129 1365h354q170 0 264 -23q200 -49 298 -260q70 -150 70 -358q0 -297 -132 -489q-93 -136 -232 -190q-115 -45 -300 -45h-322v638h-109v116h109v611zM252 1242v-488h341v-116h-341v-522h205q140 0 209 19q171 47 257 234q69 150 69 352q0 309 -166 437q-71 55 -157 72
q-60 12 -175 12h-242z" />
    <glyph glyph-name="Ntilde" unicode="&#xd1;" horiz-adv-x="1222" 
d="M1093 1365v-1365h-152l-698 1262v-92l9 -1170h-122v1365h187l625 -1132q32 -58 43 -84v84l-17 1132h125zM785 1628h98q-19 -101 -88 -132q-31 -14 -60 -14q-31 0 -147 45q-31 12 -55 12q-43 0 -55 -51h-98q36 145 151 145q42 0 131 -36q44 -18 71 -18q39 0 52 49z" />
    <glyph glyph-name="Ograve" unicode="&#xd2;" horiz-adv-x="1223" 
d="M607 1385q286 2 425 -214q116 -180 116 -482q0 -272 -102 -449q-150 -260 -439 -260q-207 0 -344 142q-189 196 -189 574q0 294 116 473q138 214 417 216zM613 1262q-134 1 -239 -77q-177 -132 -177 -485q0 -290 125 -458q108 -146 288 -146q122 0 224 78
q191 146 191 516q0 569 -412 572zM405 1644h173l119 -169h-119z" />
    <glyph glyph-name="Oacute" unicode="&#xd3;" horiz-adv-x="1223" 
d="M607 1385q286 2 425 -214q116 -180 116 -482q0 -272 -102 -449q-150 -260 -439 -260q-207 0 -344 142q-189 196 -189 574q0 294 116 473q138 214 417 216zM613 1262q-134 1 -239 -77q-177 -132 -177 -485q0 -290 125 -458q108 -146 288 -146q122 0 224 78
q191 146 191 516q0 569 -412 572zM817 1644l-173 -169h-119l119 169h173z" />
    <glyph glyph-name="Ocircumflex" unicode="&#xd4;" horiz-adv-x="1223" 
d="M607 1385q286 2 425 -214q116 -180 116 -482q0 -272 -102 -449q-150 -260 -439 -260q-207 0 -344 142q-189 196 -189 574q0 294 116 473q138 214 417 216zM613 1262q-134 1 -239 -77q-177 -132 -177 -485q0 -290 125 -458q108 -146 288 -146q122 0 224 78
q191 146 191 516q0 569 -412 572zM524 1644h175l162 -169h-132l-118 117l-117 -117h-132z" />
    <glyph glyph-name="Otilde" unicode="&#xd5;" horiz-adv-x="1223" 
d="M607 1385q286 2 425 -214q116 -180 116 -482q0 -272 -102 -449q-150 -260 -439 -260q-207 0 -344 142q-189 196 -189 574q0 294 116 473q138 214 417 216zM613 1262q-134 1 -239 -77q-177 -132 -177 -485q0 -290 125 -458q108 -146 288 -146q122 0 224 78
q191 146 191 516q0 569 -412 572zM785 1628h98q-19 -101 -88 -132q-31 -14 -60 -14q-31 0 -147 45q-31 12 -55 12q-43 0 -55 -51h-98q36 145 151 145q42 0 131 -36q44 -18 71 -18q39 0 52 49z" />
    <glyph glyph-name="Odieresis" unicode="&#xd6;" horiz-adv-x="1223" 
d="M607 1385q286 2 425 -214q116 -180 116 -482q0 -272 -102 -449q-150 -260 -439 -260q-207 0 -344 142q-189 196 -189 574q0 294 116 473q138 214 417 216zM613 1262q-134 1 -239 -77q-177 -132 -177 -485q0 -290 125 -458q108 -146 288 -146q122 0 224 78
q191 146 191 516q0 569 -412 572zM409 1644h134v-169h-134v169zM680 1644h134v-169h-134v169z" />
    <glyph glyph-name="multiply" unicode="&#xd7;" horiz-adv-x="1093" 
d="M546 605l-275 -275l-91 91l275 275l-265 266l90 90l266 -265l275 275l91 -91l-275 -275l265 -265l-91 -91z" />
    <glyph glyph-name="Oslash" unicode="&#xd8;" horiz-adv-x="1223" 
d="M1160 1328l-123 -167q111 -181 111 -458q0 -379 -182 -574q-140 -150 -361 -150q-190 0 -344 143l-111 -142l-85 56l130 173q-54 84 -79 166q-42 139 -42 318q0 296 118 478q139 215 419 215q215 0 361 -139l109 139zM957 1055l-621 -831q120 -129 274 -129
q273 0 371 299q44 134 44 302q0 202 -68 359zM276 317l617 829q-113 117 -280 117q-138 0 -241 -78q-175 -132 -175 -487q0 -223 79 -381z" />
    <glyph glyph-name="Ugrave" unicode="&#xd9;" horiz-adv-x="1184" 
d="M130 1365h123v-848q0 -197 49 -280q84 -142 291 -142q140 0 228 70q94 74 108 210q2 19 2 165v825h123v-825q0 -178 -18 -251q-77 -310 -449 -310q-264 0 -377 168q-54 80 -70 177q-10 60 -10 193v848zM389 1644h173l119 -169h-119z" />
    <glyph glyph-name="Uacute" unicode="&#xda;" horiz-adv-x="1184" 
d="M130 1365h123v-848q0 -197 49 -280q84 -142 291 -142q140 0 228 70q94 74 108 210q2 19 2 165v825h123v-825q0 -178 -18 -251q-77 -310 -449 -310q-264 0 -377 168q-54 80 -70 177q-10 60 -10 193v848zM797 1644l-173 -169h-119l119 169h173z" />
    <glyph glyph-name="Ucircumflex" unicode="&#xdb;" horiz-adv-x="1184" 
d="M130 1365h123v-848q0 -197 49 -280q84 -142 291 -142q140 0 228 70q94 74 108 210q2 19 2 165v825h123v-825q0 -178 -18 -251q-77 -310 -449 -310q-264 0 -377 168q-54 80 -70 177q-10 60 -10 193v848zM505 1644h175l162 -169h-132l-118 117l-117 -117h-132z" />
    <glyph glyph-name="Udieresis" unicode="&#xdc;" horiz-adv-x="1184" 
d="M130 1365h123v-848q0 -197 49 -280q84 -142 291 -142q140 0 228 70q94 74 108 210q2 19 2 165v825h123v-825q0 -178 -18 -251q-77 -310 -449 -310q-264 0 -377 168q-54 80 -70 177q-10 60 -10 193v848zM389 1644h134v-169h-134v169zM661 1644h134v-169h-134v169z" />
    <glyph glyph-name="Yacute" unicode="&#xdd;" horiz-adv-x="1106" 
d="M1062 1365l-449 -880v-485h-127v485l-442 880h143l337 -692q11 -22 26 -56q4 14 25 56l341 692h146zM758 1644l-173 -169h-119l119 169h173z" />
    <glyph glyph-name="Thorn" unicode="&#xde;" horiz-adv-x="1069" 
d="M130 1365h123v-191h265q191 0 284 -49q213 -113 213 -374q0 -228 -158 -343q-139 -102 -374 -102h-230v-306h-123v1365zM253 1043v-621h231q269 0 364 167q41 72 41 156q0 156 -117 241q-79 57 -255 57h-264z" />
    <glyph glyph-name="germandbls" unicode="&#xdf;" horiz-adv-x="1038" 
d="M123 0v726q0 234 12 292q29 140 136 217q102 74 248 74q197 0 296 -129q72 -94 72 -203q0 -239 -293 -307q95 -14 154 -40q174 -77 174 -284q0 -179 -132 -286q-97 -78 -219 -78q-107 0 -221 69v121q88 -74 198 -74q116 0 181 66.5t65 182.5q0 255 -361 253v126
q132 6 185 26q149 56 149 221q0 103 -70 163q-66 57 -171 57q-251 0 -271 -275q-1 -14 -1 -181v-737h-131z" />
    <glyph glyph-name="agrave" unicode="&#xe0;" horiz-adv-x="949" 
d="M826 0h-116v31l6 142q-129 -191 -333 -191q-117 0 -200 75q-94 84 -94 213q0 226 311 295q201 45 248 85q54 46 54 123q0 88 -65 136q-58 44 -149 44q-215 0 -362 -205v151q73 74 129 108q113 69 242 69q135 0 220 -69q89 -72 104 -204q5 -44 5 -169v-634zM716 589
q-45 -55 -126 -85q-36 -13 -151 -40q-223 -52 -223 -195q0 -80 58 -127q53 -44 135 -44q156 0 241 120q47 66 60 179q6 52 6 192zM302 1391h153l117 -199h-112z" />
    <glyph glyph-name="aacute" unicode="&#xe1;" horiz-adv-x="949" 
d="M826 0h-116v31l6 142q-129 -191 -333 -191q-117 0 -200 75q-94 84 -94 213q0 226 311 295q201 45 248 85q54 46 54 123q0 88 -65 136q-58 44 -149 44q-215 0 -362 -205v151q73 74 129 108q113 69 242 69q135 0 220 -69q89 -72 104 -204q5 -44 5 -169v-634zM716 589
q-45 -55 -126 -85q-36 -13 -151 -40q-223 -52 -223 -195q0 -80 58 -127q53 -44 135 -44q156 0 241 120q47 66 60 179q6 52 6 192zM668 1391l-158 -199h-112l117 199h153z" />
    <glyph glyph-name="acircumflex" unicode="&#xe2;" horiz-adv-x="949" 
d="M826 0h-116v31l6 142q-129 -191 -333 -191q-117 0 -200 75q-94 84 -94 213q0 226 311 295q201 45 248 85q54 46 54 123q0 88 -65 136q-58 44 -149 44q-215 0 -362 -205v151q73 74 129 108q113 69 242 69q135 0 220 -69q89 -72 104 -204q5 -44 5 -169v-634zM716 589
q-45 -55 -126 -85q-36 -13 -151 -40q-223 -52 -223 -195q0 -80 58 -127q53 -44 135 -44q156 0 241 120q47 66 60 179q6 52 6 192zM402 1391h171l146 -199h-119l-114 144l-121 -144h-118z" />
    <glyph glyph-name="atilde" unicode="&#xe3;" horiz-adv-x="949" 
d="M826 0h-116v31l6 142q-129 -191 -333 -191q-117 0 -200 75q-94 84 -94 213q0 226 311 295q201 45 248 85q54 46 54 123q0 88 -65 136q-58 44 -149 44q-215 0 -362 -205v151q73 74 129 108q113 69 242 69q135 0 220 -69q89 -72 104 -204q5 -44 5 -169v-634zM716 589
q-45 -55 -126 -85q-36 -13 -151 -40q-223 -52 -223 -195q0 -80 58 -127q53 -44 135 -44q156 0 241 120q47 66 60 179q6 52 6 192zM637 1361h92q-23 -146 -131 -146q-38 0 -148 44q-30 12 -52 12q-41 0 -53 -50h-91q17 145 142 145q40 0 125 -36q43 -18 67 -18q42 0 49 49z
" />
    <glyph glyph-name="adieresis" unicode="&#xe4;" horiz-adv-x="949" 
d="M826 0h-116v31l6 142q-129 -191 -333 -191q-117 0 -200 75q-94 84 -94 213q0 226 311 295q201 45 248 85q54 46 54 123q0 88 -65 136q-58 44 -149 44q-215 0 -362 -205v151q73 74 129 108q113 69 242 69q135 0 220 -69q89 -72 104 -204q5 -44 5 -169v-634zM716 589
q-45 -55 -126 -85q-36 -13 -151 -40q-223 -52 -223 -195q0 -80 58 -127q53 -44 135 -44q156 0 241 120q47 66 60 179q6 52 6 192zM286 1371h134v-169h-134v169zM551 1371h134v-169h-134v169z" />
    <glyph glyph-name="aring" unicode="&#xe5;" horiz-adv-x="949" 
d="M826 0h-116v31l6 142q-129 -191 -333 -191q-117 0 -200 75q-94 84 -94 213q0 226 311 295q201 45 248 85q54 46 54 123q0 88 -65 136q-58 44 -149 44q-215 0 -362 -205v151q73 74 129 108q113 69 242 69q135 0 220 -69q89 -72 104 -204q5 -44 5 -169v-634zM716 589
q-45 -55 -126 -85q-36 -13 -151 -40q-223 -52 -223 -195q0 -80 58 -127q53 -44 135 -44q156 0 241 120q47 66 60 179q6 52 6 192zM488 1461q61 0 104 -44t43 -106q0 -63 -43.5 -107t-106.5 -44t-106.5 44.5t-43.5 107.5q0 64 44 106.5t109 42.5zM486 1393q-34 0 -58.5 -24
t-24.5 -58t24 -58.5t58 -24.5t58 24t24 58t-23.5 58.5t-57.5 24.5z" />
    <glyph glyph-name="ae" unicode="&#xe6;" horiz-adv-x="1652" 
d="M1571 514h-721q6 -151 48 -246q73 -164 279 -164q111 0 197 53q72 44 149 142v-159q-74 -73 -128 -105q-102 -61 -224 -61q-170 0 -284 113q-59 58 -102 168q-39 -88 -77 -135q-112 -138 -295 -138q-135 0 -227 79q-97 84 -97 217q0 244 359 300q176 27 227 66
q63 48 63 125q0 94 -82 146q-70 45 -169 45q-114 0 -199 -54q-69 -44 -150 -147v152q59 64 107 95q108 70 246 70q170 0 267 -98q39 -39 70 -120q62 114 129 158q92 60 206 60q133 0 238 -76q170 -123 170 -443v-43zM1467 623q-14 213 -143 293q-71 44 -165 44
q-273 0 -311 -337h619zM740 563q-75 -49 -266 -88q-150 -31 -198 -68q-67 -52 -67 -136q0 -82 65 -133q59 -47 144 -47q140 0 228 99q82 94 89 237q1 25 5 136z" />
    <glyph glyph-name="ccedilla" unicode="&#xe7;" horiz-adv-x="929" 
d="M825 940v-185q-51 92 -111 134q-90 64 -194 64q-167 0 -249 -131q-69 -109 -69 -285q0 -183 69 -298q84 -141 256 -141q106 0 181 57q60 46 122 149v-162q-130 -160 -326 -160q-177 0 -284 124q-138 159 -138 435q0 231 96 371q111 164 332 164q186 0 315 -136zM448 -95
h138l-97 -228h-108z" />
    <glyph glyph-name="egrave" unicode="&#xe8;" horiz-adv-x="1016" 
d="M932 494h-725q4 -130 37 -217q68 -179 304 -179q117 0 197 52q67 44 143 150v-163q-64 -72 -120 -102q-99 -53 -237 -53q-449 0 -449 536q0 242 96 386q113 170 343 170q212 0 319 -151q94 -131 94 -351q0 -32 -2 -78zM824 603q-9 104 -30 162q-31 86 -111 134
q-74 45 -169 45q-287 0 -306 -341h616zM338 1391h153l117 -199h-112z" />
    <glyph glyph-name="eacute" unicode="&#xe9;" horiz-adv-x="1016" 
d="M932 494h-725q4 -130 37 -217q68 -179 304 -179q117 0 197 52q67 44 143 150v-163q-64 -72 -120 -102q-99 -53 -237 -53q-449 0 -449 536q0 242 96 386q113 170 343 170q212 0 319 -151q94 -131 94 -351q0 -32 -2 -78zM824 603q-9 104 -30 162q-31 86 -111 134
q-74 45 -169 45q-287 0 -306 -341h616zM707 1391l-158 -199h-112l117 199h153z" />
    <glyph glyph-name="ecircumflex" unicode="&#xea;" horiz-adv-x="1016" 
d="M932 494h-725q4 -130 37 -217q68 -179 304 -179q117 0 197 52q67 44 143 150v-163q-64 -72 -120 -102q-99 -53 -237 -53q-449 0 -449 536q0 242 96 386q113 170 343 170q212 0 319 -151q94 -131 94 -351q0 -32 -2 -78zM824 603q-9 104 -30 162q-31 86 -111 134
q-74 45 -169 45q-287 0 -306 -341h616zM444 1391h171l146 -199h-119l-114 144l-121 -144h-118z" />
    <glyph glyph-name="edieresis" unicode="&#xeb;" horiz-adv-x="1016" 
d="M932 494h-725q4 -130 37 -217q68 -179 304 -179q117 0 197 52q67 44 143 150v-163q-64 -72 -120 -102q-99 -53 -237 -53q-449 0 -449 536q0 242 96 386q113 170 343 170q212 0 319 -151q94 -131 94 -351q0 -32 -2 -78zM824 603q-9 104 -30 162q-31 86 -111 134
q-74 45 -169 45q-287 0 -306 -341h616zM328 1371h134v-169h-134v169zM593 1371h134v-169h-134v169z" />
    <glyph glyph-name="igrave" unicode="&#xec;" horiz-adv-x="378" 
d="M123 0v1058h132v-1058h-132zM-7 1391h153l104 -199h-112z" />
    <glyph glyph-name="iacute" unicode="&#xed;" horiz-adv-x="378" 
d="M123 0v1058h132v-1058h-132zM385 1391l-145 -199h-112l104 199h153z" />
    <glyph glyph-name="icircumflex" unicode="&#xee;" horiz-adv-x="378" 
d="M123 0v1058h132v-1058h-132zM108 1391h171l126 -199h-112l-101 144l-107 -144h-111z" />
    <glyph glyph-name="idieresis" unicode="&#xef;" horiz-adv-x="378" 
d="M123 0v1058h132v-1058h-132zM17 1368h131v-164h-131v164zM230 1368h131v-164h-131v164z" />
    <glyph glyph-name="eth" unicode="&#xf0;" horiz-adv-x="1073" 
d="M229 1334l30 86q148 -6 293 -63l174 112l68 -72l-144 -93q150 -113 234 -276q114 -221 114 -462q0 -242 -95 -393q-120 -191 -362 -191q-200 0 -312 115q-147 150 -147 449q0 227 91 364q107 162 323 162q157 0 276 -95q-73 163 -221 264l-177 -109l-64 69l135 86
q-81 39 -216 47zM537 956q-335 3 -335 -413q0 -445 336 -445q180 0 267 140q71 116 71 307q0 196 -69 294q-82 115 -270 117z" />
    <glyph glyph-name="ntilde" unicode="&#xf1;" horiz-adv-x="1055" 
d="M123 0v1058h128v-133q0 -19 -2 -55.5t-2 -55.5q23 103 83 161q104 101 265 101q187 0 275 -135q63 -97 63 -326v-615h-131v615q0 176 -35 239q-55 99 -198 99q-95 0 -173 -51q-81 -52 -114 -139q-31 -81 -31 -225v-538h-128zM660 1361h92q-23 -146 -131 -146
q-38 0 -148 44q-30 12 -52 12q-41 0 -53 -50h-91q17 145 142 145q40 0 125 -36q43 -18 67 -18q42 0 49 49z" />
    <glyph glyph-name="ograve" unicode="&#xf2;" horiz-adv-x="1078" 
d="M530 1076q468 3 468 -516q0 -291 -145 -454q-110 -124 -309 -124q-202 0 -316 118q-146 151 -146 443q0 289 144 428q107 104 304 105zM543 953q-341 0 -341 -422q0 -433 338 -433t338 456q0 399 -335 399zM350 1391h153l117 -199h-112z" />
    <glyph glyph-name="oacute" unicode="&#xf3;" horiz-adv-x="1078" 
d="M530 1076q468 3 468 -516q0 -291 -145 -454q-110 -124 -309 -124q-202 0 -316 118q-146 151 -146 443q0 289 144 428q107 104 304 105zM543 953q-341 0 -341 -422q0 -433 338 -433t338 456q0 399 -335 399zM726 1391l-158 -199h-112l117 199h153z" />
    <glyph glyph-name="ocircumflex" unicode="&#xf4;" horiz-adv-x="1078" 
d="M530 1076q468 3 468 -516q0 -291 -145 -454q-110 -124 -309 -124q-202 0 -316 118q-146 151 -146 443q0 289 144 428q107 104 304 105zM543 953q-341 0 -341 -422q0 -433 338 -433t338 456q0 399 -335 399zM459 1391h171l146 -199h-119l-114 144l-121 -144h-118z" />
    <glyph glyph-name="otilde" unicode="&#xf5;" horiz-adv-x="1078" 
d="M530 1076q468 3 468 -516q0 -291 -145 -454q-110 -124 -309 -124q-202 0 -316 118q-146 151 -146 443q0 289 144 428q107 104 304 105zM543 953q-341 0 -341 -422q0 -433 338 -433t338 456q0 399 -335 399zM699 1361h92q-23 -146 -131 -146q-38 0 -148 44q-30 12 -52 12
q-41 0 -53 -50h-91q17 145 142 145q40 0 125 -36q43 -18 67 -18q42 0 49 49z" />
    <glyph glyph-name="odieresis" unicode="&#xf6;" horiz-adv-x="1078" 
d="M530 1076q468 3 468 -516q0 -291 -145 -454q-110 -124 -309 -124q-202 0 -316 118q-146 151 -146 443q0 289 144 428q107 104 304 105zM543 953q-341 0 -341 -422q0 -433 338 -433t338 456q0 399 -335 399zM340 1371h134v-169h-134v169zM605 1371h134v-169h-134v169z" />
    <glyph glyph-name="divide" unicode="&#xf7;" horiz-adv-x="1092" 
d="M549 482q113 0 113 -97q0 -98 -116 -98t-116 95q0 99 119 100zM549 1106q113 0 113 -97q0 -98 -116 -98t-116 95q0 99 119 100zM93 632v128h907v-128h-907z" />
    <glyph glyph-name="oslash" unicode="&#xf8;" horiz-adv-x="1078" 
d="M1022 1022l-102 -127q77 -139 77 -332q0 -225 -86 -375q-118 -206 -368 -206q-192 0 -310 111l-98 -115l-75 69l109 127q-89 155 -89 367q0 535 456 535q183 0 312 -100l99 115zM766 880q-82 73 -223 73q-342 0 -342 -421q0 -126 50 -266zM310 179q85 -81 228 -81
q338 0 338 466q0 131 -44 230z" />
    <glyph glyph-name="ugrave" unicode="&#xf9;" horiz-adv-x="1064" 
d="M941 1058v-1058h-126l17 235q-41 -109 -109 -166q-104 -87 -247 -87q-111 0 -201 55q-112 69 -140 217q-12 63 -12 242v562h131v-562q0 -214 28 -283q47 -115 209 -115q188 0 266 152q40 78 50 190q3 34 3 199v419h131zM342 1391h153l117 -199h-112z" />
    <glyph glyph-name="uacute" unicode="&#xfa;" horiz-adv-x="1064" 
d="M941 1058v-1058h-126l17 235q-41 -109 -109 -166q-104 -87 -247 -87q-111 0 -201 55q-112 69 -140 217q-12 63 -12 242v562h131v-562q0 -214 28 -283q47 -115 209 -115q188 0 266 152q40 78 50 190q3 34 3 199v419h131zM712 1391l-158 -199h-112l117 199h153z" />
    <glyph glyph-name="ucircumflex" unicode="&#xfb;" horiz-adv-x="1064" 
d="M941 1058v-1058h-126l17 235q-41 -109 -109 -166q-104 -87 -247 -87q-111 0 -201 55q-112 69 -140 217q-12 63 -12 242v562h131v-562q0 -214 28 -283q47 -115 209 -115q188 0 266 152q40 78 50 190q3 34 3 199v419h131zM451 1391h171l146 -199h-119l-114 144l-121 -144
h-118z" />
    <glyph glyph-name="udieresis" unicode="&#xfc;" horiz-adv-x="1064" 
d="M941 1058v-1058h-126l17 235q-41 -109 -109 -166q-104 -87 -247 -87q-111 0 -201 55q-112 69 -140 217q-12 63 -12 242v562h131v-562q0 -214 28 -283q47 -115 209 -115q188 0 266 152q40 78 50 190q3 34 3 199v419h131zM333 1371h134v-169h-134v169zM598 1371h134v-169
h-134v169z" />
    <glyph glyph-name="yacute" unicode="&#xfd;" horiz-adv-x="997" 
d="M950 1058l-466 -1322h-139l111 316l-408 1006h150l301 -818q16 -45 24 -75q1 4 35 111l250 782h142zM696 1391l-158 -199h-112l117 199h153z" />
    <glyph glyph-name="thorn" unicode="&#xfe;" horiz-adv-x="1076" 
d="M123 -258v1671h131v-517q42 70 83 104q91 76 230 76q174 0 282 -113q145 -151 145 -439q0 -296 -151 -442q-104 -100 -258 -100q-222 0 -333 222l1 -41l-1 -44l2 -51v-326h-131zM554 953q-308 3 -308 -398q0 -279 129 -387q84 -70 193 -70q306 0 306 416q0 436 -320 439z
" />
    <glyph glyph-name="ydieresis" unicode="&#xff;" horiz-adv-x="997" 
d="M950 1058l-466 -1322h-139l111 316l-408 1006h150l301 -818q16 -45 24 -75q1 4 35 111l250 782h142zM313 1371h134v-169h-134v169zM578 1371h134v-169h-134v169z" />
    <glyph glyph-name="Amacron" unicode="&#x100;" horiz-adv-x="1233" 
d="M340 452l-155 -452h-134l476 1365h180l474 -1365h-130l-155 452h-556zM852 575l-236 688l-235 -688h471zM852 1602v-100h-470v100h470z" />
    <glyph glyph-name="amacron" unicode="&#x101;" horiz-adv-x="949" 
d="M826 0h-116v31l6 142q-129 -191 -333 -191q-117 0 -200 75q-94 84 -94 213q0 226 311 295q201 45 248 85q54 46 54 123q0 88 -65 136q-58 44 -149 44q-215 0 -362 -205v151q73 74 129 108q113 69 242 69q135 0 220 -69q89 -72 104 -204q5 -44 5 -169v-634zM716 589
q-45 -55 -126 -85q-36 -13 -151 -40q-223 -52 -223 -195q0 -80 58 -127q53 -44 135 -44q156 0 241 120q47 66 60 179q6 52 6 192zM709 1331v-100h-449v100h449z" />
    <glyph glyph-name="Abreve" unicode="&#x102;" horiz-adv-x="1233" 
d="M340 452l-155 -452h-134l476 1365h180l474 -1365h-130l-155 452h-556zM852 575l-236 688l-235 -688h471zM849 1641q-14 -109 -118 -156q-47 -21 -118 -21q-89 0 -151 44q-68 48 -78 133h90q41 -84 143 -84q101 0 142 84h90z" />
    <glyph glyph-name="abreve" unicode="&#x103;" horiz-adv-x="949" 
d="M826 0h-116v31l6 142q-129 -191 -333 -191q-117 0 -200 75q-94 84 -94 213q0 226 311 295q201 45 248 85q54 46 54 123q0 88 -65 136q-58 44 -149 44q-215 0 -362 -205v151q73 74 129 108q113 69 242 69q135 0 220 -69q89 -72 104 -204q5 -44 5 -169v-634zM716 589
q-45 -55 -126 -85q-36 -13 -151 -40q-223 -52 -223 -195q0 -80 58 -127q53 -44 135 -44q156 0 241 120q47 66 60 179q6 52 6 192zM707 1390q-3 -60 -23 -99q-56 -110 -195 -110q-206 0 -219 209h84q21 -111 135 -111q65 0 106 49q21 25 28 62h84z" />
    <glyph glyph-name="Aogonek" unicode="&#x104;" horiz-adv-x="1233" 
d="M1181 0q-90 -43 -90 -106q0 -60 75 -60q14 0 36 6v-72q-48 -11 -79 -11q-146 0 -146 110q0 91 112 133h-38l-155 452h-556l-155 -452h-134l476 1365h180zM852 575l-236 688l-234 -688h470z" />
    <glyph glyph-name="aogonek" unicode="&#x105;" horiz-adv-x="949" 
d="M126 748v151q73 74 129 108q113 69 242 69q135 0 220 -69q89 -72 104 -204q5 -44 5 -169v-634q-77 -44 -77 -106q0 -59 75 -59q14 0 36 5v-72q-48 -11 -79 -11q-146 0 -146 110q0 82 112 133h-37v31l6 142q-129 -191 -333 -191q-117 0 -200 75q-94 84 -94 213
q0 226 311 295q201 45 248 85q54 46 54 123q0 88 -65 136q-58 44 -149 44q-213 0 -362 -205zM716 589q-45 -55 -126 -85q-36 -13 -151 -40q-223 -52 -223 -195q0 -80 58 -127q53 -44 135 -44q156 0 241 120q47 66 60 179q6 52 6 192z" />
    <glyph glyph-name="Cacute" unicode="&#x106;" horiz-adv-x="1109" 
d="M1024 1195v-195q-80 117 -159 177q-113 86 -246 86q-178 0 -285 -119q-56 -62 -86 -150q-46 -134 -46 -285q0 -277 109 -452q45 -72 125 -116.5t165 -44.5q233 0 423 281v-172q-172 -225 -429 -225q-126 0 -238 64q-156 89 -228 301q-54 159 -54 362q0 296 119 472
q139 207 422 207q132 0 226 -47q82 -41 182 -144zM828 1644l-173 -169h-119l119 169h173z" />
    <glyph glyph-name="cacute" unicode="&#x107;" horiz-adv-x="929" 
d="M825 940v-185q-51 92 -111 134q-90 64 -194 64q-167 0 -249 -131q-69 -109 -69 -285q0 -183 69 -298q84 -141 256 -141q106 0 181 57q60 46 122 149v-162q-130 -160 -326 -160q-177 0 -284 124q-138 159 -138 435q0 231 96 371q111 164 332 164q186 0 315 -136zM706 1391
l-158 -199h-112l117 199h153z" />
    <glyph glyph-name="Ccaron" unicode="&#x10c;" horiz-adv-x="1109" 
d="M1024 1195v-195q-80 117 -159 177q-113 86 -246 86q-178 0 -285 -119q-56 -62 -86 -150q-46 -134 -46 -285q0 -277 109 -452q45 -72 125 -116.5t165 -44.5q233 0 423 281v-172q-172 -225 -429 -225q-126 0 -238 64q-156 89 -228 301q-54 159 -54 362q0 296 119 472
q139 207 422 207q132 0 226 -47q82 -41 182 -144zM712 1475h-175l-162 169h132l117 -117l118 117h132z" />
    <glyph glyph-name="ccaron" unicode="&#x10d;" horiz-adv-x="929" 
d="M825 940v-185q-51 92 -111 134q-90 64 -194 64q-167 0 -249 -131q-69 -109 -69 -285q0 -183 69 -298q84 -141 256 -141q106 0 181 57q60 46 122 149v-162q-130 -160 -326 -160q-177 0 -284 124q-138 159 -138 435q0 231 96 371q111 164 332 164q186 0 315 -136zM602 1192
h-171l-146 199h118l115 -144l120 144h119z" />
    <glyph glyph-name="Dcaron" unicode="&#x10e;" horiz-adv-x="1191" 
d="M130 1365h354q171 0 265 -23q199 -49 297 -260q70 -151 70 -359q0 -296 -132 -488q-93 -136 -232 -190q-115 -45 -300 -45h-322v1365zM253 1242v-1126h205q140 0 209 19q172 47 257 233q69 151 69 352q0 310 -166 438q-71 55 -157 72q-60 12 -175 12h-242zM629 1475h-175
l-162 169h132l117 -117l118 117h132z" />
    <glyph glyph-name="dcaron" unicode="&#x10f;" horiz-adv-x="1238" 
d="M949 1413v-1413h-116v48q0 11 3 55q2 29 4 101q-73 -121 -141 -165q-88 -57 -205 -57q-307 0 -390 353q-22 93 -22 189q0 179 72 332q104 220 350 220q187 0 320 -181q-2 50 -5 143l-11 375h141zM520 953q-172 3 -253 -138q-65 -112 -65 -297q0 -178 67 -287
q82 -133 250 -133q169 0 250 136q66 110 66 291q0 423 -315 428zM1100 1413h138l-97 -255h-108z" />
    <glyph glyph-name="Dslash" unicode="&#x110;" horiz-adv-x="1191" 
d="M129 1365h354q170 0 264 -23q200 -49 298 -260q70 -150 70 -358q0 -297 -132 -489q-93 -136 -232 -190q-115 -45 -300 -45h-322v638h-109v116h109v611zM252 1242v-488h341v-116h-341v-522h205q140 0 209 19q171 47 257 234q69 150 69 352q0 309 -166 437q-71 55 -157 72
q-60 12 -175 12h-242z" />
    <glyph glyph-name="dcroat" unicode="&#x111;" horiz-adv-x="1072" 
d="M949 1290h109v-115h-109v-1175h-116v48q0 11 3 55q2 29 4 101q-73 -121 -141 -165q-88 -57 -205 -57q-307 0 -390 353q-22 93 -22 189q0 180 72 332q104 220 350 220q185 0 320 -181q-1 32 -4 143l-4 137h-304v115h300l-4 123h141v-123zM520 953q-172 3 -253 -138
q-65 -112 -65 -297q0 -179 67 -288q82 -132 250 -132q169 0 250 136q66 110 66 291q0 423 -315 428z" />
    <glyph glyph-name="Emacron" unicode="&#x112;" horiz-adv-x="1058" 
d="M130 1365h806v-123h-683v-480h683v-123h-683v-523h683v-116h-806v1365zM768 1602v-100h-470v100h470z" />
    <glyph glyph-name="emacron" unicode="&#x113;" horiz-adv-x="1016" 
d="M932 494h-725q4 -130 37 -217q68 -179 304 -179q117 0 197 52q67 44 143 150v-163q-64 -72 -120 -102q-99 -53 -237 -53q-449 0 -449 536q0 242 96 386q113 170 343 170q212 0 319 -151q94 -131 94 -351q0 -32 -2 -78zM824 603q-9 104 -30 162q-31 86 -111 134
q-74 45 -169 45q-287 0 -306 -341h616zM752 1331v-100h-449v100h449z" />
    <glyph glyph-name="Eogonek" unicode="&#x118;" horiz-adv-x="1058" 
d="M936 0q-91 -44 -91 -108q0 -58 75 -58q14 0 36 6v-72q-47 -11 -78 -11q-147 0 -147 110q0 89 112 133h-713v1365h806v-123h-683v-480h683v-123h-683v-523h683v-116z" />
    <glyph glyph-name="eogonek" unicode="&#x119;" horiz-adv-x="1016" 
d="M784 -160v-72q-48 -11 -79 -11q-146 0 -146 110q0 80 105 130q-63 -15 -121 -15q-461 0 -461 537q0 241 96 385q113 170 343 170q212 0 319 -151q94 -131 94 -351q0 -32 -2 -78h-725q4 -130 37 -217q68 -179 304 -179q117 0 197 52q67 44 143 150v-163q-46 -52 -103 -93
q-112 -81 -112 -153q0 -57 75 -57q14 0 36 6zM824 603q-9 104 -30 162q-31 86 -111 134q-74 45 -169 45q-287 0 -306 -341h616z" />
    <glyph glyph-name="Ecaron" unicode="&#x11a;" horiz-adv-x="1058" 
d="M130 1365h806v-123h-683v-480h683v-123h-683v-523h683v-116h-806v1365zM620 1475h-175l-162 169h132l117 -117l118 117h132z" />
    <glyph glyph-name="ecaron" unicode="&#x11b;" horiz-adv-x="1016" 
d="M932 494h-725q4 -130 37 -217q68 -179 304 -179q117 0 197 52q67 44 143 150v-163q-64 -72 -120 -102q-99 -53 -237 -53q-449 0 -449 536q0 242 96 386q113 170 343 170q212 0 319 -151q94 -131 94 -351q0 -32 -2 -78zM824 603q-9 104 -30 162q-31 86 -111 134
q-74 45 -169 45q-287 0 -306 -341h616zM609 1192h-171l-146 199h118l115 -144l120 144h119z" />
    <glyph glyph-name="Gbreve" unicode="&#x11e;" horiz-adv-x="1125" 
d="M1036 683v-517q-61 -61 -128 -107q-125 -86 -297 -86q-231 0 -365 157q-171 201 -171 570q0 498 321 642q96 43 211 43q230 0 406 -178v-149q-90 101 -169 143q-115 61 -240 61q-134 0 -235 -80q-171 -135 -171 -489q0 -246 91 -406q113 -198 339 -198q144 0 285 103v491
h123zM849 1641q-14 -109 -118 -156q-47 -21 -118 -21q-89 0 -151 44q-68 48 -78 133h90q41 -84 143 -84q101 0 142 84h90z" />
    <glyph glyph-name="gbreve" unicode="&#x11f;" horiz-adv-x="1073" 
d="M950 1058v-811q0 -174 -17 -232q-39 -134 -161 -203q-107 -61 -257 -61q-209 0 -359 126v140q71 -75 143 -107q97 -43 221 -43q223 0 286 157q23 58 26 143q1 41 3 146q-45 -91 -102 -137q-95 -76 -244 -76q-310 0 -386 296q-21 82 -21 176q0 330 202 448q96 56 224 56
q220 0 327 -182l-10 164h125zM522 960q-164 3 -247 -111q-73 -100 -73 -270q0 -363 304 -363q163 0 246 115q74 101 74 270q0 353 -304 359zM776 1390q-3 -60 -23 -99q-56 -110 -195 -110q-206 0 -219 209h84q21 -111 135 -111q65 0 106 49q21 25 28 62h84z" />
    <glyph glyph-name="Imacron" unicode="&#x12a;" horiz-adv-x="382" 
d="M130 1365h123v-1365h-123v1365zM371 1602v-100h-360v100h360z" />
    <glyph glyph-name="imacron" unicode="&#x12b;" horiz-adv-x="378" 
d="M123 0v1058h132v-1058h-132zM359 1331v-100h-340v100h340z" />
    <glyph glyph-name="Iogonek" unicode="&#x12e;" horiz-adv-x="382" 
d="M253 0q-39 -58 -39 -105q0 -61 59 -61q11 0 31 6v-72q-35 -11 -64 -11q-138 0 -138 109q0 68 82 134h-54v1365h123v-1365z" />
    <glyph glyph-name="iogonek" unicode="&#x12f;" horiz-adv-x="378" 
d="M255 0q-39 -57 -39 -105q0 -61 59 -61q11 0 31 6v-72q-35 -11 -65 -11q-54 0 -93 26q-45 30 -45 81q0 68 83 136h-63v1058h132v-1058zM255 1238h-131v183h131v-183z" />
    <glyph glyph-name="Idotaccent" unicode="&#x130;" horiz-adv-x="382" 
d="M130 1365h123v-1365h-123v1365zM124 1644h134v-169h-134v169z" />
    <glyph glyph-name="dotlessi" unicode="&#x131;" horiz-adv-x="378" 
d="M123 0v1058h132v-1058h-132z" />
    <glyph glyph-name="Lacute" unicode="&#x139;" horiz-adv-x="901" 
d="M253 116h587v-116h-710v1365h123v-1249zM417 1644l-173 -169h-119l119 169h173z" />
    <glyph glyph-name="lacute" unicode="&#x13a;" horiz-adv-x="377" 
d="M135 0v1413h131v-1413h-131zM401 1671l-153 -169h-112l105 169h160z" />
    <glyph glyph-name="Lcaron" unicode="&#x13d;" horiz-adv-x="901" 
d="M253 116h587v-116h-710v1365h123v-1249zM513 1365h138l-97 -255h-108z" />
    <glyph glyph-name="lcaron" unicode="&#x13e;" horiz-adv-x="543" 
d="M123 0v1413h131v-1413h-131zM405 1413h138l-97 -255h-108z" />
    <glyph glyph-name="Lslash" unicode="&#x141;" horiz-adv-x="901" 
d="M129 568l-109 -86v134l109 86v663h123v-602l287 217v-134l-287 -217v-513h587v-116h-710v568z" />
    <glyph glyph-name="lslash" unicode="&#x142;" horiz-adv-x="390" 
d="M130 640l-123 -101v140l123 100v634h131v-566l123 98v-139l-123 -98v-708h-131v640z" />
    <glyph glyph-name="Nacute" unicode="&#x143;" horiz-adv-x="1222" 
d="M1093 1365v-1365h-152l-698 1262v-92l9 -1170h-122v1365h187l625 -1132q32 -58 43 -84v84l-17 1132h125zM825 1644l-173 -169h-119l119 169h173z" />
    <glyph glyph-name="nacute" unicode="&#x144;" horiz-adv-x="1055" 
d="M123 0v1058h128v-133q0 -19 -2 -55.5t-2 -55.5q23 103 83 161q104 101 265 101q187 0 275 -135q63 -97 63 -326v-615h-131v615q0 176 -35 239q-55 99 -198 99q-95 0 -173 -51q-81 -52 -114 -139q-31 -81 -31 -225v-538h-128zM697 1391l-158 -199h-112l117 199h153z" />
    <glyph glyph-name="Ncaron" unicode="&#x147;" horiz-adv-x="1222" 
d="M1093 1365v-1365h-152l-698 1262v-92l9 -1170h-122v1365h187l625 -1132q32 -58 43 -84v84l-17 1132h125zM706 1475h-175l-162 169h132l117 -117l118 117h132z" />
    <glyph glyph-name="ncaron" unicode="&#x148;" horiz-adv-x="1055" 
d="M123 0v1058h128v-133q0 -19 -2 -55.5t-2 -55.5q23 103 83 161q104 101 265 101q187 0 275 -135q63 -97 63 -326v-615h-131v615q0 176 -35 239q-55 99 -198 99q-95 0 -173 -51q-81 -52 -114 -139q-31 -81 -31 -225v-538h-128zM595 1192h-171l-146 199h118l115 -144
l120 144h119z" />
    <glyph glyph-name="Omacron" unicode="&#x14c;" horiz-adv-x="1223" 
d="M607 1385q286 2 425 -214q116 -180 116 -482q0 -272 -102 -449q-150 -260 -439 -260q-207 0 -344 142q-189 196 -189 574q0 294 116 473q138 214 417 216zM613 1262q-134 1 -239 -77q-177 -132 -177 -485q0 -290 125 -458q108 -146 288 -146q122 0 224 78
q191 146 191 516q0 569 -412 572zM847 1602v-100h-470v100h470z" />
    <glyph glyph-name="omacron" unicode="&#x14d;" horiz-adv-x="1078" 
d="M530 1076q468 3 468 -516q0 -291 -145 -454q-110 -124 -309 -124q-202 0 -316 118q-146 151 -146 443q0 289 144 428q107 104 304 105zM543 953q-341 0 -341 -422q0 -433 338 -433t338 456q0 399 -335 399zM764 1331v-100h-449v100h449z" />
    <glyph glyph-name="OE" unicode="&#x152;" horiz-adv-x="1916" 
d="M1032 1365h761v-131h-642v-491h642v-116h-642v-511h642v-116h-761v304q-55 -143 -135 -215q-122 -110 -303 -110q-214 0 -346 153q-173 200 -173 561q0 299 108 479q133 222 413 222q184 0 296 -103q70 -64 140 -209v283zM609 1263q-129 1 -237 -77q-174 -126 -174 -482
q0 -248 80 -405q104 -204 329 -204q149 0 254 100q94 89 136 241q33 119 33 264q0 237 -89 383q-109 178 -332 180z" />
    <glyph glyph-name="oe" unicode="&#x153;" horiz-adv-x="1787" 
d="M1705 512h-714q-1 -29 -1 -41q0 -167 80 -265q87 -108 250 -108q205 0 350 210v-166q-156 -160 -364 -160q-293 0 -390 299q-48 -125 -108 -187q-109 -112 -285 -112q-203 0 -313 142q-128 165 -128 433q0 237 106 370q116 147 347 147q313 0 403 -263q55 135 134 197
q87 67 226 67q403 0 407 -563zM1606 621q-28 324 -313 324q-287 0 -301 -324h614zM547 944q-345 4 -345 -415q0 -188 71 -298q85 -133 263 -133q179 0 265 134q72 111 72 300q0 408 -326 412z" />
    <glyph glyph-name="Racute" unicode="&#x154;" horiz-adv-x="1044" 
d="M130 1365h417q205 0 295 -55q157 -96 157 -311q0 -331 -372 -368q-60 -6 -186 -6l563 -625h-161l-548 618q-19 22 -42 52v-670h-123v1365zM253 1242v-518h290q333 0 333 268q0 140 -90 204q-64 46 -231 46h-302zM720 1644l-173 -169h-119l119 169h173z" />
    <glyph glyph-name="racute" unicode="&#x155;" horiz-adv-x="748" 
d="M123 0v1058h139l-17 -255q38 137 94 196q73 77 191 77q109 0 184 -84v-128q-87 89 -190 89q-183 0 -244 -205q-27 -91 -28 -299q1 133 2 140q1 -63 1 -438v-151h-132zM588 1391l-158 -199h-112l117 199h153z" />
    <glyph glyph-name="Rcaron" unicode="&#x158;" horiz-adv-x="1044" 
d="M130 1365h417q205 0 295 -55q157 -96 157 -311q0 -331 -372 -368q-60 -6 -186 -6l563 -625h-161l-548 618q-19 22 -42 52v-670h-123v1365zM253 1242v-518h290q333 0 333 268q0 140 -90 204q-64 46 -231 46h-302zM607 1475h-175l-162 169h132l117 -117l118 117h132z" />
    <glyph glyph-name="rcaron" unicode="&#x159;" horiz-adv-x="748" 
d="M123 0v1058h139l-17 -255q38 137 94 196q73 77 191 77q109 0 184 -84v-128q-87 89 -190 89q-183 0 -244 -205q-27 -91 -28 -299q1 133 2 140q1 -63 1 -438v-151h-132zM486 1192h-171l-146 199h118l115 -144l120 144h119z" />
    <glyph glyph-name="Sacute" unicode="&#x15a;" horiz-adv-x="973" 
d="M856 1242v-172q-72 87 -140 127q-111 65 -223 65q-124 0 -210 -87q-71 -71 -71 -172q0 -119 101 -178q57 -33 209 -68q180 -41 264 -114q106 -92 106 -257q0 -192 -133 -308q-112 -98 -284 -98q-180 0 -349 154v167q73 -94 133 -135q102 -70 224 -70q142 0 223 91
q68 76 68 182q0 111 -74 180q-55 52 -204 83q-193 41 -284 107q-123 90 -123 262q0 179 130 288q115 96 279 96q183 0 358 -143zM706 1644l-173 -169h-119l119 169h173z" />
    <glyph glyph-name="sacute" unicode="&#x15b;" horiz-adv-x="826" 
d="M714 955v-159q-55 66 -101 97q-89 60 -193 60q-120 0 -179 -74q-42 -52 -42 -115q0 -122 161 -154q117 -23 148 -32q241 -67 241 -277q0 -152 -103 -238q-96 -81 -251 -81q-188 0 -290 134v138q65 -76 116 -107q81 -49 179 -49q123 0 183 68q46 52 46 119q0 120 -119 162
q-37 13 -139 33q-292 57 -292 285q0 150 101 233q93 78 246 78q158 0 288 -121zM610 1391l-158 -199h-112l117 199h153z" />
    <glyph glyph-name="Scedilla" unicode="&#x15e;" horiz-adv-x="973" 
d="M856 1242v-172q-72 87 -140 127q-111 65 -223 65q-124 0 -210 -87q-71 -71 -71 -172q0 -119 101 -178q57 -33 209 -68q180 -41 264 -114q106 -92 106 -257q0 -192 -133 -308q-112 -98 -284 -98q-180 0 -349 154v167q73 -94 133 -135q102 -70 224 -70q142 0 223 91
q68 76 68 182q0 111 -74 180q-55 52 -204 83q-193 41 -284 107q-123 90 -123 262q0 179 130 288q115 96 279 96q183 0 358 -143zM414 -102h138l-97 -228h-108z" />
    <glyph glyph-name="scedilla" unicode="&#x15f;" horiz-adv-x="826" 
d="M714 955v-159q-55 66 -101 97q-89 60 -193 60q-120 0 -179 -74q-42 -52 -42 -115q0 -122 161 -154q117 -23 148 -32q241 -67 241 -277q0 -152 -103 -238q-96 -81 -251 -81q-188 0 -290 134v138q65 -76 116 -107q81 -49 179 -49q123 0 183 68q46 52 46 119q0 120 -119 162
q-37 13 -139 33q-292 57 -292 285q0 150 101 233q93 78 246 78q158 0 288 -121zM344 -95h138l-97 -228h-108z" />
    <glyph glyph-name="Scaron" unicode="&#x160;" horiz-adv-x="973" 
d="M856 1242v-172q-72 87 -140 127q-111 65 -223 65q-124 0 -210 -87q-71 -71 -71 -172q0 -119 101 -178q57 -33 209 -68q180 -41 264 -114q106 -92 106 -257q0 -192 -133 -308q-112 -98 -284 -98q-180 0 -349 154v167q73 -94 133 -135q102 -70 224 -70q142 0 223 91
q68 76 68 182q0 111 -74 180q-55 52 -204 83q-193 41 -284 107q-123 90 -123 262q0 179 130 288q115 96 279 96q183 0 358 -143zM589 1475h-175l-162 169h132l117 -117l118 117h132z" />
    <glyph glyph-name="scaron" unicode="&#x161;" horiz-adv-x="826" 
d="M714 955v-159q-55 66 -101 97q-89 60 -193 60q-120 0 -179 -74q-42 -52 -42 -115q0 -122 161 -154q117 -23 148 -32q241 -67 241 -277q0 -152 -103 -238q-96 -81 -251 -81q-188 0 -290 134v138q65 -76 116 -107q81 -49 179 -49q123 0 183 68q46 52 46 119q0 120 -119 162
q-37 13 -139 33q-292 57 -292 285q0 150 101 233q93 78 246 78q158 0 288 -121zM512 1192h-171l-146 199h118l115 -144l120 144h119z" />
    <glyph glyph-name="Tcaron" unicode="&#x164;" horiz-adv-x="1136" 
d="M75 1365h986v-130h-430v-1235h-123v1235h-433v130zM655 1475h-175l-162 169h132l117 -117l118 117h132z" />
    <glyph glyph-name="tcaron" unicode="&#x165;" horiz-adv-x="801" 
d="M355 1047h377v-128h-394q0 -309 -3 -464l-2 -103q-5 -254 159 -254q111 0 218 127v-138q-107 -105 -227 -105q-90 0 -159 44q-74 47 -98 130q-21 72 -21 239q0 65 3 194t3 194q0 35 -3 136h-164v87q106 15 154 72q65 77 107 276h70zM539 1413h138l-97 -255h-108z" />
    <glyph glyph-name="Umacron" unicode="&#x16a;" horiz-adv-x="1184" 
d="M130 1365h123v-848q0 -197 49 -280q84 -142 291 -142q140 0 228 70q94 74 108 210q2 19 2 165v825h123v-825q0 -178 -18 -251q-77 -310 -449 -310q-264 0 -377 168q-54 80 -70 177q-10 60 -10 193v848zM827 1602v-100h-470v100h470z" />
    <glyph glyph-name="umacron" unicode="&#x16b;" horiz-adv-x="1064" 
d="M941 1058v-1058h-126l17 235q-41 -109 -109 -166q-104 -87 -247 -87q-111 0 -201 55q-112 69 -140 217q-12 63 -12 242v562h131v-562q0 -214 28 -283q47 -115 209 -115q188 0 266 152q40 78 50 190q3 34 3 199v419h131zM756 1331v-100h-449v100h449z" />
    <glyph glyph-name="Uring" unicode="&#x16e;" horiz-adv-x="1184" 
d="M130 1365h123v-848q0 -197 49 -280q84 -142 291 -142q140 0 228 70q94 74 108 210q2 19 2 165v825h123v-825q0 -178 -18 -251q-77 -310 -449 -310q-264 0 -377 168q-54 80 -70 177q-10 60 -10 193v848zM595 1748q61 0 104 -44t43 -106q0 -63 -43.5 -107t-106.5 -44
t-106.5 44.5t-43.5 107.5q0 64 44 106.5t109 42.5zM593 1680q-34 0 -58.5 -24t-24.5 -58t24 -58.5t58 -24.5t58 24t24 58t-23.5 58.5t-57.5 24.5z" />
    <glyph glyph-name="uring" unicode="&#x16f;" horiz-adv-x="1064" 
d="M941 1058v-1058h-126l17 235q-41 -109 -109 -166q-104 -87 -247 -87q-111 0 -201 55q-112 69 -140 217q-12 63 -12 242v562h131v-562q0 -214 28 -283q47 -115 209 -115q188 0 266 152q40 78 50 190q3 34 3 199v419h131zM535 1461q61 0 104 -44t43 -106q0 -63 -43.5 -107
t-106.5 -44t-106.5 44.5t-43.5 107.5q0 64 44 106.5t109 42.5zM533 1393q-34 0 -58.5 -24t-24.5 -58t24 -58.5t58 -24.5t58 24t24 58t-23.5 58.5t-57.5 24.5z" />
    <glyph glyph-name="Uogonek" unicode="&#x172;" horiz-adv-x="1184" 
d="M882 -160v-72q-48 -11 -79 -11q-146 0 -146 110q0 69 104 135q-97 -23 -178 -23q-260 0 -373 168q-54 80 -70 177q-10 60 -10 193v848h123v-848q0 -197 49 -280q84 -142 291 -142q140 0 228 70q94 74 108 210q2 19 2 165v825h123v-825q0 -233 -49 -338q-35 -75 -128 -155
q-106 -91 -106 -154q0 -59 75 -59q14 0 36 6z" />
    <glyph glyph-name="uogonek" unicode="&#x173;" horiz-adv-x="1064" 
d="M941 0q-77 -49 -77 -106q0 -60 75 -60q14 0 36 6v-72q-48 -11 -79 -11q-146 0 -146 110q0 82 112 133h-47l17 235q-41 -110 -109 -166q-105 -87 -247 -87q-111 0 -201 55q-112 69 -140 217q-12 63 -12 242v562h131v-562q0 -214 28 -283q47 -115 209 -115q188 0 266 152
q40 78 50 190q3 34 3 199v419h131v-1058z" />
    <glyph glyph-name="Ydieresis" unicode="&#x178;" horiz-adv-x="1106" 
d="M1062 1365l-449 -880v-485h-127v485l-442 880h143l337 -692q11 -22 26 -56q4 14 25 56l341 692h146zM350 1644h134v-169h-134v169zM621 1644h134v-169h-134v169z" />
    <glyph glyph-name="Zacute" unicode="&#x179;" horiz-adv-x="998" 
d="M97 1365h813v-164l-695 -1085h695v-116h-821v156l690 1086h-682v123zM707 1644l-173 -169h-119l119 169h173z" />
    <glyph glyph-name="zacute" unicode="&#x17a;" horiz-adv-x="872" 
d="M115 1064h672v-128l-575 -808h575v-128h-702v150l561 786h-531v128zM628 1391l-158 -199h-112l117 199h153z" />
    <glyph glyph-name="Zcaron" unicode="&#x17d;" horiz-adv-x="998" 
d="M97 1365h813v-164l-695 -1085h695v-116h-821v156l690 1086h-682v123zM587 1475h-175l-162 169h132l117 -117l118 117h132z" />
    <glyph glyph-name="zcaron" unicode="&#x17e;" horiz-adv-x="872" 
d="M115 1064h672v-128l-575 -808h575v-128h-702v150l561 786h-531v128zM531 1192h-171l-146 199h118l115 -144l120 144h119z" />
    <glyph glyph-name="florin" unicode="&#x192;" horiz-adv-x="1092" 
d="M797 1115v-86h-185l-206 -1166h-111l202 1166h-131v86h147l15 74q63 313 284 313q63 0 144 -50v-134q-67 68 -149 68q-90 0 -129 -67q-16 -27 -38 -130l-16 -74h173z" />
    <glyph glyph-name="circumflex" unicode="&#x2c6;" 
d="M431 1391h171l146 -199h-119l-114 144l-121 -144h-118z" />
    <glyph glyph-name="caron" unicode="&#x2c7;" 
d="M593 1192h-171l-146 199h118l115 -144l120 144h119z" />
    <glyph glyph-name="macron" unicode="&#x2c9;" 
d="M736 1331v-100h-449v100h449z" />
    <glyph glyph-name="breve" unicode="&#x2d8;" 
d="M730 1390q-3 -60 -23 -99q-56 -110 -195 -110q-206 0 -219 209h84q21 -111 135 -111q65 0 106 49q21 25 28 62h84z" />
    <glyph glyph-name="dotaccent" unicode="&#x2d9;" 
d="M445 1371h134v-169h-134v169z" />
    <glyph glyph-name="ring" unicode="&#x2da;" 
d="M515 1461q61 0 104 -44t43 -106q0 -63 -43.5 -107t-106.5 -44t-106.5 44.5t-43.5 107.5q0 64 44 106.5t109 42.5zM513 1393q-34 0 -58.5 -24t-24.5 -58t24 -58.5t58 -24.5t58 24t24 58t-23.5 58.5t-57.5 24.5z" />
    <glyph glyph-name="ogonek" unicode="&#x2db;" 
d="M819 0h93q-91 -43 -91 -106q0 -60 75 -60q14 0 36 6v-72q-48 -11 -79 -11q-146 0 -146 110q0 91 112 133z" />
    <glyph glyph-name="tilde" unicode="&#x2dc;" horiz-adv-x="1044" 
d="M668 1361h92q-23 -146 -131 -146q-38 0 -148 44q-30 12 -52 12q-41 0 -53 -50h-91q17 145 142 145q40 0 125 -36q43 -18 67 -18q42 0 49 49z" />
    <glyph glyph-name="hungarumlaut" unicode="&#x2dd;" 
d="M592 1391l-152 -199h-91l104 199h139zM807 1391l-152 -199h-92l104 199h140z" />
    <glyph glyph-name="Delta" unicode="&#x394;" horiz-adv-x="1365" 
d="M60 0l551 1365h139l555 -1365h-1245zM246 119h871l-436 1089z" />
    <glyph glyph-name="Delta" unicode="&#x2206;" horiz-adv-x="1365" 
d="M60 0l551 1365h139l555 -1365h-1245zM246 119h871l-436 1089z" />
    <glyph glyph-name="Omega" unicode="&#x3a9;" horiz-adv-x="1365" 
d="M58 0v117h381q-381 222 -381 626q0 313 228 509q171 147 396 147q226 0 397 -147q228 -196 228 -510q0 -404 -380 -625h380v-117h-531v106q149 86 228 174q169 188 169 448q0 256 -175 424q-136 130 -313 130q-173 0 -307 -116q-186 -161 -186 -438q0 -397 398 -622v-106
h-532z" />
    <glyph glyph-name="Omega" unicode="&#x2126;" horiz-adv-x="1365" 
d="M58 0v117h381q-381 222 -381 626q0 313 228 509q171 147 396 147q226 0 397 -147q228 -196 228 -510q0 -404 -380 -625h380v-117h-531v106q149 86 228 174q169 188 169 448q0 256 -175 424q-136 130 -313 130q-173 0 -307 -116q-186 -161 -186 -438q0 -397 398 -622v-106
h-532z" />
    <glyph glyph-name="mu" unicode="&#xb5;" 
d="M102 -341v1322h129v-561q0 -342 270 -342q143 0 220 114q67 98 67 248v541h129v-981h-128v185q-43 -93 -88 -135q-81 -77 -204 -77q-168 0 -266 155v-469h-129z" />
    <glyph glyph-name="mu" unicode="&#x3bc;" 
d="M102 -341v1322h129v-561q0 -342 270 -342q143 0 220 114q67 98 67 248v541h129v-981h-128v185q-43 -93 -88 -135q-81 -77 -204 -77q-168 0 -266 155v-469h-129z" />
    <glyph glyph-name="pi" unicode="&#x3c0;" horiz-adv-x="1160" 
d="M204 0v932h-151v117h1053v-117h-149v-932h-131v932h-491v-932h-131z" />
    <glyph glyph-name="endash" unicode="&#x2013;" horiz-adv-x="1062" 
d="M110 613h844v-134h-844v134z" />
    <glyph glyph-name="emdash" unicode="&#x2014;" horiz-adv-x="1607" 
d="M109 613h1389v-134h-1389v134z" />
    <glyph glyph-name="quoteleft" unicode="&#x2018;" horiz-adv-x="428" 
d="M229 1365h102l-102 -326h-143z" />
    <glyph glyph-name="quoteright" unicode="&#x2019;" horiz-adv-x="415" 
d="M199 1039h-101l101 326h144z" />
    <glyph glyph-name="quotesinglbase" unicode="&#x201a;" horiz-adv-x="429" 
d="M199 -172h-101l101 326h144z" />
    <glyph glyph-name="quotedblleft" unicode="&#x201c;" horiz-adv-x="674" 
d="M475 1365h101l-101 -326h-143zM229 1365h102l-102 -326h-143z" />
    <glyph glyph-name="quotedblright" unicode="&#x201d;" horiz-adv-x="674" 
d="M199 1039h-101l101 326h144zM445 1039h-101l101 326h143z" />
    <glyph glyph-name="quotedblbase" unicode="&#x201e;" horiz-adv-x="674" 
d="M199 -172h-101l101 326h144zM445 -172h-101l101 326h143z" />
    <glyph glyph-name="dagger" unicode="&#x2020;" horiz-adv-x="1090" 
d="M599 1413v-411h424v-109h-424v-1151h-109v1151h-423v109h423v411h109z" />
    <glyph glyph-name="daggerdbl" unicode="&#x2021;" horiz-adv-x="1090" 
d="M600 1413v-409h424v-109h-424v-346h424v-109h-424v-698h-109v698h-425v109h425v346h-425v109h425v409h109z" />
    <glyph glyph-name="bullet" unicode="&#x2022;" horiz-adv-x="1365" 
d="M689 978q118 0 199 -83t81 -201q0 -120 -82 -202t-202 -82q-119 0 -201.5 82t-82.5 201q0 122 83 203.5t205 81.5z" />
    <glyph glyph-name="ellipsis" unicode="&#x2026;" horiz-adv-x="1146" 
d="M260 0h-137v180h137v-180zM642 0h-137v180h137v-180zM1024 0h-137v180h137v-180z" />
    <glyph glyph-name="perthousand" unicode="&#x2030;" horiz-adv-x="1992" 
d="M309 1376q248 2 248 -333q0 -149 -51 -246q-65 -124 -201 -124q-251 0 -251 365q0 336 255 338zM307 1304q-178 0 -178 -267q0 -296 173 -296q176 0 176 294q0 269 -171 269zM992 1377l81 -45l-727 -1344l-79 41zM1053 694q248 2 248 -333q0 -188 -80 -291
q-62 -80 -172 -80q-251 0 -251 365q0 337 255 339zM1052 622q-178 0 -178 -267q0 -297 173 -297q176 0 176 294q0 270 -171 270zM1690 694q248 2 248 -333q0 -188 -80 -291q-62 -80 -172 -80q-250 0 -250 365q0 337 254 339zM1690 622q-178 0 -178 -267q0 -297 172 -297
q176 0 176 294q0 270 -170 270z" />
    <glyph glyph-name="guilsinglleft" unicode="&#x2039;" horiz-adv-x="550" 
d="M324 887h123l-208 -343l208 -339h-123l-222 339z" />
    <glyph glyph-name="guilsinglright" unicode="&#x203a;" horiz-adv-x="550" 
d="M225 205h-123l208 343l-208 339h123l222 -339z" />
    <glyph glyph-name="fraction" unicode="&#x2044;" horiz-adv-x="148" 
d="M384 1343l79 -44l-702 -1299l-77 40z" />
    <glyph glyph-name="franc" unicode="&#x20a3;" horiz-adv-x="1449" 
d="M130 1365h803v-123h-680v-501h680v-123h-680v-618h-123v1365zM1012 -8v749h97l-11 -179q52 191 199 191q77 0 129 -58v-90q-60 62 -133 62q-128 0 -171 -143q-15 -49 -15 -95q0 -80 -2 -324l-1 -113h-92z" />
    <glyph glyph-name="trademark" unicode="&#x2122;" horiz-adv-x="1609" 
d="M39 1365h620v-86h-265v-692h-89v692h-266v86zM1535 1365v-778h-90l7 648l-245 -648h-106l-247 655l8 -655h-91v778h131l255 -684l249 684h129z" />
    <glyph glyph-name="partialdiff" unicode="&#x2202;" 
d="M163 1258l17 116q170 -24 280 -71q254 -109 384 -364q103 -202 103 -444q0 -346 -256 -473q-91 -45 -194 -45q-154 0 -276 100q-172 141 -172 361q0 145 81 266q125 187 347 187q133 0 221 -66q36 -27 88 -94q-52 138 -86 196q-30 50 -86 110q-170 180 -451 221zM506 781
q-208 2 -293 -197q-31 -73 -31 -151q0 -153 106 -254q90 -85 210 -85q114 0 201 81q109 102 109 272q0 173 -110 264q-83 69 -192 70z" />
    <glyph glyph-name="product" unicode="&#x220f;" horiz-adv-x="1420" 
d="M74 1536h1272v-117h-160v-1814h160v-117h-461v117h169v1814h-688v-1814h167v-117h-459v117h161v1814h-161v117z" />
    <glyph glyph-name="summation" unicode="&#x2211;" horiz-adv-x="1365" 
d="M1218 1536v-457h-119l-11 340h-881l516 -866l-520 -948h905l6 339h123v-456h-1177v133l511 933l-511 851v131h1158z" />
    <glyph glyph-name="minus" unicode="&#x2212;" horiz-adv-x="1092" 
d="M93 632v128h907v-128h-907z" />
    <glyph glyph-name="periodcentered" unicode="&#x2219;" horiz-adv-x="382" 
d="M260 454h-137v182h137v-182z" />
    <glyph glyph-name="radical" unicode="&#x221a;" horiz-adv-x="1365" 
d="M1365 1693v-117h-408l-458 -1576h-156l-176 622h-167v117h272l82 -275l63 -280h10l10 44l87 348l323 1117h518z" />
    <glyph glyph-name="infinity" unicode="&#x221e;" horiz-adv-x="1365" 
d="M685 609q-155 -223 -340 -223q-156 0 -242 110q-65 84 -65 203q0 172 132 257q79 51 177 51q184 0 333 -222q149 222 342 222q159 0 244 -115q61 -82 61 -197q0 -138 -83.5 -224t-220.5 -86q-190 0 -338 224zM748 697q126 -195 261 -195q83 0 134 55t51 139
q0 101 -71 155q-52 39 -116 39q-107 0 -200 -112q-26 -31 -59 -81zM617 696q-127 194 -261 194q-83 0 -134 -55t-51 -139q0 -101 71 -155q52 -39 116 -39q108 0 200 112q28 34 59 82z" />
    <glyph glyph-name="integral" unicode="&#x222b;" 
d="M210 -490l30 116q50 -23 89 -23q93 0 109 89q7 39 7 156v1305q0 189 17 244q43 139 221 139q54 0 129 -22l-30 -116q-51 22 -89 22q-94 0 -110 -89q-6 -33 -6 -209v-1252q0 -223 -38 -283q-62 -97 -221 -97q-56 0 -108 20z" />
    <glyph glyph-name="approxequal" unicode="&#x2248;" 
d="M100 706l-79 51q32 68 76 124q80 103 200 103q79 0 232 -72q142 -67 201 -67q107 0 193 143l80 -48q-51 -102 -105 -150q-81 -72 -183 -72q-69 0 -284 98q-90 41 -144 41q-104 0 -187 -151zM100 376l-79 51q110 227 276 227q78 0 232 -73q142 -67 202 -67q105 0 192 144
l80 -47q-51 -103 -105 -151q-81 -72 -182 -72q-69 0 -285 98q-90 41 -143 41q-104 0 -188 -151z" />
    <glyph glyph-name="approxequal" unicode="&#x22f2;" 
d="M100 706l-79 51q32 68 76 124q80 103 200 103q79 0 232 -72q142 -67 201 -67q107 0 193 143l80 -48q-51 -102 -105 -150q-81 -72 -183 -72q-69 0 -284 98q-90 41 -144 41q-104 0 -187 -151zM100 376l-79 51q110 227 276 227q78 0 232 -73q142 -67 202 -67q105 0 192 144
l80 -47q-51 -103 -105 -151q-81 -72 -182 -72q-69 0 -285 98q-90 41 -143 41q-104 0 -188 -151z" />
    <glyph glyph-name="notequal" unicode="&#x2260;" 
d="M561 897l112 232l92 -34l-94 -198h285v-118h-339l-94 -195h434v-118h-487l-115 -239l-92 34l97 205h-290v118h344l94 195h-440v118h493z" />
    <glyph glyph-name="lessequal" unicode="&#x2264;" 
d="M955 1219v-124l-748 -332l748 -331v-124l-887 399v114zM955 247v-118h-887v118h887z" />
    <glyph glyph-name="greaterequal" unicode="&#x2265;" 
d="M68 308v124l748 332l-748 331v124l887 -399v-114zM68 129v118h887v-118h-887z" />
    <glyph glyph-name="lozenge" unicode="&#x25ca;" horiz-adv-x="1365" 
d="M683 1419l532 -736l-532 -736l-532 736zM683 1237l-404 -554l404 -555l403 555z" />
    <glyph glyph-name="fi" unicode="&#xf001;" horiz-adv-x="1085" 
d="M348 923h245v-128h-245v-795h-131v795h-162v128h162q1 116 2 134q4 73 21 132q63 218 305 218q106 0 225 -74v-152q-91 96 -210 96q-143 0 -188 -101q-24 -54 -24 -204v-49zM963 1238h-131v183h131v-183zM832 0v1058h131v-1058h-131z" />
    <glyph glyph-name="fl" unicode="&#xf002;" horiz-adv-x="1085" 
d="M348 923h245v-128h-245v-795h-131v795h-162v128h162q1 114 2 134q18 350 326 350q106 0 225 -74v-153q-91 97 -210 97q-143 0 -188 -101q-24 -54 -24 -204v-49zM832 0v1413h131v-1413h-131z" />
    <glyph glyph-name="glyph4" horiz-adv-x="512" 
 />
    <glyph glyph-name="glyph5" horiz-adv-x="512" 
 />
    <glyph glyph-name="glyph233" horiz-adv-x="512" 
 />
    <glyph glyph-name="glyph234" horiz-adv-x="512" 
 />
    <glyph glyph-name="glyph226" horiz-adv-x="512" 
 />
    <glyph glyph-name="glyph227" horiz-adv-x="512" 
 />
    <glyph glyph-name="glyph228" horiz-adv-x="512" 
 />
    <glyph glyph-name="glyph229" horiz-adv-x="512" 
 />
    <glyph glyph-name="glyph235" horiz-adv-x="512" 
 />
    <glyph glyph-name="glyph310" horiz-adv-x="512" 
 />
    <glyph glyph-name="glyph236" horiz-adv-x="512" 
 />
    <glyph glyph-name="glyph237" horiz-adv-x="512" 
 />
    <glyph glyph-name="glyph313" horiz-adv-x="512" 
 />
    <glyph glyph-name="glyph230" horiz-adv-x="512" 
 />
    <glyph glyph-name="glyph231" horiz-adv-x="512" 
 />
    <glyph glyph-name="glyph242" horiz-adv-x="512" 
 />
    <glyph glyph-name="glyph243" horiz-adv-x="512" 
 />
    <glyph glyph-name="glyph239" horiz-adv-x="512" 
 />
    <glyph glyph-name="glyph244" horiz-adv-x="512" 
 />
    <glyph glyph-name="glyph241" horiz-adv-x="512" 
 />
    <glyph glyph-name="glyph240" horiz-adv-x="512" 
 />
    <glyph glyph-name="glyph232" horiz-adv-x="512" 
 />
    <glyph glyph-name="glyph238" horiz-adv-x="512" 
 />
    <glyph glyph-name="glyph172" horiz-adv-x="1092" 
 />
    <glyph glyph-name="apple" unicode="&#xf000;" horiz-adv-x="1365" 
d="M983 1416q-2 -144 -80 -242q-84 -106 -224 -113q5 146 82 239q80 98 222 116zM1276 935q-165 -126 -165 -285q0 -216 204 -305q-64 -158 -140 -257q-110 -143 -204 -143q-49 0 -132 38q-50 23 -106 23q-80 0 -147 -28q-84 -35 -125 -35q-111 0 -223 167
q-172 256 -172 524q0 202 122 335q99 108 259 108q64 0 173 -41q56 -21 86 -21q42 0 134 33t140 33q190 0 296 -146z" />
    <glyph glyph-name="glyph245" horiz-adv-x="512" 
 />
    <glyph glyph-name="glyph246" horiz-adv-x="512" 
 />
    <glyph glyph-name="glyph247" horiz-adv-x="512" 
 />
    <glyph glyph-name="glyph248" horiz-adv-x="512" 
 />
    <glyph glyph-name="glyph249" horiz-adv-x="512" 
 />
    <glyph glyph-name="glyph250" horiz-adv-x="512" 
 />
    <glyph glyph-name="glyph251" horiz-adv-x="512" 
 />
    <glyph glyph-name="glyph252" horiz-adv-x="512" 
 />
    <glyph glyph-name="glyph253" horiz-adv-x="512" 
 />
    <glyph glyph-name="glyph254" horiz-adv-x="512" 
 />
    <glyph glyph-name="glyph255" horiz-adv-x="512" 
 />
    <glyph glyph-name="glyph256" horiz-adv-x="512" 
 />
    <glyph glyph-name="glyph257" horiz-adv-x="512" 
 />
    <glyph glyph-name="nonbreakingspace" unicode="&#xa0;" horiz-adv-x="512" 
 />
    <glyph glyph-name="sfthyphen" unicode="&#xad;" horiz-adv-x="651" 
d="M109 613h433v-134h-433v134z" />
    <glyph glyph-name="Edotaccent" unicode="&#x116;" horiz-adv-x="1058" 
d="M130 1365h806v-123h-683v-480h683v-123h-683v-523h683v-116h-806v1365zM466 1644h134v-169h-134v169z" />
    <glyph glyph-name="edotaccent" unicode="&#x117;" horiz-adv-x="1016" 
d="M932 494h-725q4 -130 37 -217q68 -179 304 -179q117 0 197 52q67 44 143 150v-163q-64 -72 -120 -102q-99 -53 -237 -53q-449 0 -449 536q0 242 96 386q113 170 343 170q212 0 319 -151q94 -131 94 -351q0 -32 -2 -78zM824 603q-9 104 -30 162q-31 86 -111 134
q-74 45 -169 45q-287 0 -306 -341h616zM461 1371h134v-169h-134v169z" />
    <glyph glyph-name="Gcommaaccent" unicode="&#x122;" horiz-adv-x="1125" 
d="M1036 683v-517q-61 -61 -128 -107q-125 -86 -297 -86q-231 0 -365 157q-171 201 -171 570q0 498 321 642q96 43 211 43q230 0 406 -178v-149q-90 101 -169 143q-115 61 -240 61q-134 0 -235 -80q-171 -135 -171 -489q0 -246 91 -406q113 -198 339 -198q144 0 285 103v491
h123zM561 -102h138l-97 -228h-108z" />
    <glyph glyph-name="gcommaaccent" unicode="&#x123;" horiz-adv-x="1073" 
d="M950 1058v-811q0 -174 -17 -232q-39 -134 -161 -203q-107 -61 -257 -61q-209 0 -359 126v140q71 -75 143 -107q97 -43 221 -43q223 0 286 157q23 58 26 143q1 41 3 146q-45 -91 -102 -137q-95 -76 -244 -76q-310 0 -386 296q-21 82 -21 176q0 330 202 448q96 56 224 56
q220 0 327 -182l-10 164h125zM522 960q-164 3 -247 -111q-73 -100 -73 -270q0 -363 304 -363q163 0 246 115q74 101 74 270q0 353 -304 359zM607 1192h-139l98 228h107z" />
    <glyph glyph-name="Kcommaaccent" unicode="&#x136;" horiz-adv-x="1078" 
d="M130 1365h132l-9 -654q24 29 70 80l516 574h169l-616 -670l639 -695h-175l-547 609l-56 60v-669h-123v1365zM470 -102h138l-97 -228h-108z" />
    <glyph glyph-name="kcommaaccent" unicode="&#x137;" horiz-adv-x="905" 
d="M123 0v1413h143l-21 -870l441 515h162l-471 -515l494 -543h-170l-456 526v-526h-122zM397 -95h138l-97 -228h-108z" />
    <glyph glyph-name="Lcommaaccent" unicode="&#x13b;" horiz-adv-x="901" 
d="M253 116h587v-116h-710v1365h123v-1249zM429 -102h138l-97 -228h-108z" />
    <glyph glyph-name="lcommaaccent" unicode="&#x13c;" horiz-adv-x="377" 
d="M123 0v1413h131v-1413h-131zM126 -95h138l-97 -228h-108z" />
    <glyph glyph-name="Ncommaaccent" unicode="&#x145;" horiz-adv-x="1222" 
d="M1093 1365v-1365h-152l-698 1262v-92l9 -1170h-122v1365h187l625 -1132q32 -58 43 -84v84l-17 1132h125zM535 -102h138l-97 -228h-108z" />
    <glyph glyph-name="ncommaaccent" unicode="&#x146;" horiz-adv-x="1055" 
d="M123 0v1058h128v-133q0 -19 -2 -55.5t-2 -55.5q23 103 83 161q104 101 265 101q187 0 275 -135q63 -97 63 -326v-615h-131v615q0 176 -35 239q-55 99 -198 99q-95 0 -173 -51q-81 -52 -114 -139q-31 -81 -31 -225v-538h-128zM472 -95h138l-97 -228h-108z" />
    <glyph glyph-name="Ohungarumlaut" unicode="&#x150;" horiz-adv-x="1223" 
d="M607 1385q286 2 425 -214q116 -180 116 -482q0 -272 -102 -449q-150 -260 -439 -260q-207 0 -344 142q-189 196 -189 574q0 294 116 473q138 214 417 216zM613 1262q-134 1 -239 -77q-177 -132 -177 -485q0 -290 125 -458q108 -146 288 -146q122 0 224 78
q191 146 191 516q0 569 -412 572zM701 1644l-149 -169h-102l98 169h153zM922 1644l-148 -169h-103l98 169h153z" />
    <glyph glyph-name="ohungarumlaut" unicode="&#x151;" horiz-adv-x="1078" 
d="M530 1076q468 3 468 -516q0 -291 -145 -454q-110 -124 -309 -124q-202 0 -316 118q-146 151 -146 443q0 289 144 428q107 104 304 105zM543 953q-341 0 -341 -422q0 -433 338 -433t338 456q0 399 -335 399zM622 1391l-152 -199h-91l104 199h139zM837 1391l-152 -199h-92
l104 199h140z" />
    <glyph glyph-name="Rcommaaccent" unicode="&#x156;" horiz-adv-x="1044" 
d="M130 1365h417q205 0 295 -55q157 -96 157 -311q0 -331 -372 -368q-60 -6 -186 -6l563 -625h-161l-548 618q-19 22 -42 52v-670h-123v1365zM253 1242v-518h290q333 0 333 268q0 140 -90 204q-64 46 -231 46h-302zM467 -102h138l-97 -228h-108z" />
    <glyph glyph-name="rcommaaccent" unicode="&#x157;" horiz-adv-x="748" 
d="M123 0v1058h139l-17 -255q38 137 94 196q73 77 191 77q109 0 184 -84v-128q-87 89 -190 89q-183 0 -244 -205q-27 -91 -28 -299q1 133 2 140q1 -63 1 -438v-151h-132zM124 -95h138l-97 -228h-108z" />
    <glyph glyph-name="Tcommaaccent" unicode="&#x162;" horiz-adv-x="1136" 
d="M75 1365h986v-130h-430v-1235h-123v1235h-433v130zM505 -102h138l-97 -228h-108z" />
    <glyph glyph-name="tcommaaccent" unicode="&#x163;" horiz-adv-x="801" 
d="M355 1047h377v-128h-394q0 -309 -3 -464l-2 -103q-5 -254 159 -254q111 0 218 127v-138q-107 -105 -227 -105q-90 0 -159 44q-74 47 -98 130q-21 72 -21 239q0 65 3 194t3 194q0 35 -3 136h-164v87q106 15 154 72q65 77 107 276h70zM378 -95h138l-97 -228h-108z" />
    <glyph glyph-name="Uhungarumlaut" unicode="&#x170;" horiz-adv-x="1184" 
d="M130 1365h123v-848q0 -197 49 -280q84 -142 291 -142q140 0 228 70q94 74 108 210q2 19 2 165v825h123v-825q0 -178 -18 -251q-77 -310 -449 -310q-264 0 -377 168q-54 80 -70 177q-10 60 -10 193v848zM675 1644l-149 -169h-102l98 169h153zM896 1644l-148 -169h-103
l98 169h153z" />
    <glyph glyph-name="uhungarumlaut" unicode="&#x171;" horiz-adv-x="1064" 
d="M941 1058v-1058h-126l17 235q-41 -109 -109 -166q-104 -87 -247 -87q-111 0 -201 55q-112 69 -140 217q-12 63 -12 242v562h131v-562q0 -214 28 -283q47 -115 209 -115q188 0 266 152q40 78 50 190q3 34 3 199v419h131zM608 1391l-152 -199h-91l104 199h139zM823 1391
l-152 -199h-92l104 199h140z" />
    <glyph glyph-name="Zdotaccent" unicode="&#x17b;" horiz-adv-x="998" 
d="M97 1365h813v-164l-695 -1085h695v-116h-821v156l690 1086h-682v123zM432 1644h134v-169h-134v169z" />
    <glyph glyph-name="zdotaccent" unicode="&#x17c;" horiz-adv-x="872" 
d="M115 1064h672v-128l-575 -808h575v-128h-702v150l561 786h-531v128zM382 1371h134v-169h-134v169z" />
    <glyph glyph-name="glyph359" 
d="M665 1628h98q-19 -101 -88 -132q-31 -14 -60 -14q-31 0 -147 45q-31 12 -55 12q-43 0 -55 -51h-98q36 145 151 145q42 0 131 -36q44 -18 71 -18q39 0 52 49z" />
    <glyph glyph-name="glyph360" 
d="M515 1748q61 0 104 -44t43 -106q0 -63 -43.5 -107t-106.5 -44t-106.5 44.5t-43.5 107.5q0 64 44 106.5t109 42.5zM513 1680q-34 0 -58.5 -24t-24.5 -58t24 -58.5t58 -24.5t58 24t24 58t-23.5 58.5t-57.5 24.5z" />
    <glyph glyph-name="glyph361" 
d="M667 1365h138l-97 -255h-108z" />
    <glyph glyph-name="glyph362" 
d="M483 -102h138l-97 -228h-108z" />
    <glyph glyph-name="glyph363" 
d="M600 1475h-175l-162 169h132l117 -117l118 117h132z" />
    <glyph glyph-name="glyph364" 
d="M287 1644h173l119 -169h-119z" />
    <glyph glyph-name="glyph365" 
d="M737 1644l-173 -169h-119l119 169h173z" />
    <glyph glyph-name="glyph366" 
d="M449 -95h138l-97 -228h-108z" />
    <glyph glyph-name="glyph367" 
d="M661 1413h138l-97 -255h-108z" />
    <glyph glyph-name="glyph368" 
d="M445 1644h134v-169h-134v169z" />
    <glyph glyph-name="glyph369" 
d="M340 1368h131v-164h-131v164zM553 1368h131v-164h-131v164z" />
    <glyph glyph-name="glyph370" 
d="M744 1641q-14 -109 -118 -156q-47 -21 -118 -21q-89 0 -151 44q-68 48 -78 133h90q41 -84 143 -84q101 0 142 84h90z" />
    <glyph glyph-name="glyph371" 
d="M747 1602v-100h-470v100h470z" />
    <glyph glyph-name="glyph372" 
d="M627 1644l-149 -169h-102l98 169h153zM848 1644l-148 -169h-103l98 169h153z" />
    <glyph glyph-name="glyph373" 
d="M452 -102h138l-97 -228h-108z" />
    <glyph glyph-name="glyph374" 
d="M309 1644h134v-169h-134v169zM581 1644h134v-169h-134v169z" />
    <glyph glyph-name="glyph375" 
d="M425 1644h175l162 -169h-132l-118 117l-117 -117h-132z" />
    <glyph glyph-name="glyph376" 
d="M542 1192h-139l98 228h107z" />
    <glyph glyph-name="glyph377" 
d="M340 1641h131v-164h-131v164zM553 1641h131v-164h-131v164z" />
    <glyph glyph-name="glyph378" horiz-adv-x="512" 
 />
    </font>
</defs>
</svg>
